<svg xmlns="http://www.w3.org/2000/svg" xmlns:xlink="http://www.w3.org/1999/xlink" xmlns:lucid="lucid" width="1478" height="1240"><g transform="translate(1713 2044)" lucid:page-tab-id="mv_GDh85LMSB"><path d="M-5420.6-3776.5h9098.33v5099.34H-5420.6z" fill="#fff"/><path d="M-1615.5-1354a6 6 0 0 1 6-6h168a6 6 0 0 1 6 6v68a6 6 0 0 1-6 6h-168a6 6 0 0 1-6-6z" stroke="#5e5e5e" stroke-width="3" fill="#dfe3e8"/><use xlink:href="#a" transform="matrix(1,0,0,1,-1610.4929839051188,-1355) translate(17.77777777777777 39.96527777777778)"/><path d="M-1615.5-1163.68a6 6 0 0 1 6-6h168a6 6 0 0 1 6 6v68a6 6 0 0 1-6 6h-168a6 6 0 0 1-6-6z" stroke="#5e5e5e" stroke-width="3" fill="#dfe3e8"/><use xlink:href="#b" transform="matrix(1,0,0,1,-1610.4929839051188,-1164.6770733818832) translate(4.876543209876559 39.96527777777778)"/><path d="M-1615.5-1821.12a6 6 0 0 1 6-6h168a6 6 0 0 1 6 6v68a6 6 0 0 1-6 6h-168a6 6 0 0 1-6-6z" stroke="#5e5e5e" stroke-width="3" fill="#dfe3e8"/><use xlink:href="#c" transform="matrix(1,0,0,1,-1610.4929839051188,-1822.114791230008) translate(5.493827160493822 39.96527777777778)"/><path d="M-1317.97-1812.63a6 6 0 0 1 6-6h248a6 6 0 0 1 6 6v51.03a6 6 0 0 1-6 6h-248a6 6 0 0 1-6-6z" stroke="#000" stroke-opacity="0" stroke-width="3" fill="#f2f3f5"/><use xlink:href="#d" transform="matrix(1,0,0,1,-1312.9678582572487,-1813.6327031319645) translate(16.543209876543216 21.15277777777778)"/><use xlink:href="#e" transform="matrix(1,0,0,1,-1312.9678582572487,-1813.6327031319645) translate(95.30864197530863 21.15277777777778)"/><use xlink:href="#f" transform="matrix(1,0,0,1,-1312.9678582572487,-1813.6327031319645) translate(174.25925925925924 21.15277777777778)"/><use xlink:href="#g" transform="matrix(1,0,0,1,-1312.9678582572487,-1813.6327031319645) translate(89.25925925925927 47.81944444444444)"/><path d="M-1433.74-1787.12h115.52" stroke="#5e5e5e" stroke-width=".5" stroke-linejoin="round" fill="none"/><path d="M-1433.73-1786.87h-.26v-.5h.27zM-1317.97-1786.87h-.25v-.5h.25z" stroke="#5e5e5e" stroke-width=".05" fill="#5e5e5e"/><path d="M-999.47-1818.62a6 6 0 0 1 6-6h88a6 6 0 0 1 6 6v63a6 6 0 0 1-6 6h-88a6 6 0 0 1-6-6z" stroke="#5e5e5e" stroke-width="3" fill="#fff"/><path d="M-1057.72-1787.7l56.5.58" stroke="#5e5e5e" stroke-width=".5" stroke-linejoin="round" fill="none"/><path d="M-1057.7-1787.7h-.27" stroke="#5e5e5e" stroke-width=".5" fill="none"/><path d="M-1000.97-1787.37v.5h-.26v-.5z" stroke="#5e5e5e" stroke-width=".05" fill="#5e5e5e"/><path d="M-1057.72-1787.1l.7.02.94.08.9.15.9.2.87.26.87.33.88.38.9.48.93.55.95.67 1 .8 1.08.95 1.16 1.17 1.26 1.46 1.4 1.85 1.6 2.43 1.93 3.35 2.48 5.05 4.07 9.88 10.93 28.5 2.48 5.05 1.93 3.35 1.6 2.43 1.4 1.85 1.27 1.47 1.15 1.17 1.07.96 1 .8.97.65.9.56.9.47.9.4.87.3.88.27.9.2.9.14.92.1h.7" stroke="#5e5e5e" stroke-width=".5" stroke-linejoin="round" fill="none"/><path d="M-1057.7-1787.36l-.02.5h-.25v-.5zM-1000.97-1708.65v.5h-.22v-.5z" stroke="#5e5e5e" stroke-width=".05" fill="#5e5e5e"/><path d="M-1000.97-1719.48a6 6 0 0 1 6-6h228a6 6 0 0 1 6 6v22.16a6 6 0 0 1-6 6h-228a6 6 0 0 1-6-6z" stroke="#000" stroke-opacity="0" stroke-width="3" fill="#f2f3f5"/><use xlink:href="#h" transform="matrix(1,0,0,1,-995.9705662559736,-1720.4819803231749) translate(43.79629629629629 19.34027777777778)"/><use xlink:href="#i" transform="matrix(1,0,0,1,-995.9705662559736,-1720.4819803231749) translate(62.93209876543209 19.34027777777778)"/><path d="M-708.5-1739.9a6 6 0 0 1 6-6h88a6 6 0 0 1 6 6v63a6 6 0 0 1-6 6h-88a6 6 0 0 1-6-6z" stroke="#5e5e5e" stroke-width="3" fill="#fff"/><path d="M-760.72-1708.4h50.48" stroke="#5e5e5e" stroke-width=".5" stroke-linejoin="round" fill="none"/><path d="M-760.7-1708.15h-.27v-.5h.26zM-710-1708.15h-.25v-.5h.26z" stroke="#5e5e5e" stroke-width=".05" fill="#5e5e5e"/><path d="M-1000.97-1632.24a6 6 0 0 1 6-6h228a6 6 0 0 1 6 6v22.17a6 6 0 0 1-6 6h-228a6 6 0 0 1-6-6z" stroke="#000" stroke-opacity="0" stroke-width="3" fill="#f2f3f5"/><use xlink:href="#h" transform="matrix(1,0,0,1,-995.9705662559736,-1633.239159349886) translate(67.80864197530866 19.34027777777778)"/><use xlink:href="#j" transform="matrix(1,0,0,1,-995.9705662559736,-1633.239159349886) translate(86.94444444444446 19.34027777777778)"/><path d="M-708.5-1652.66a6 6 0 0 1 6-6h88a6 6 0 0 1 6 6v63a6 6 0 0 1-6 6h-88a6 6 0 0 1-6-6z" stroke="#5e5e5e" stroke-width="3" fill="#fff"/><path d="M-760.72-1621.16h50.48" stroke="#5e5e5e" stroke-width=".5" stroke-linejoin="round" fill="none"/><path d="M-760.7-1620.9h-.27v-.5h.26zM-710-1620.9h-.25v-.5h.26z" stroke="#5e5e5e" stroke-width=".05" fill="#5e5e5e"/><path d="M-1057.72-1787.1h.36l.3.04.3.05.3.04.3.07.3.1.3.1.32.1.3.15.34.15.33.17.34.2.35.22.37.25.37.3.4.32.42.38.44.44.48.5.5.6.56.7.6.82.66 1 .72 1.2.82 1.47.9 1.84 1.06 2.36 1.23 3.12 1.47 4.24 1.83 6.1 2.43 9.5 3.86 18.46 13.8 74.33 2.43 9.54 1.82 6.07 1.47 4.24 1.22 3.13 1.05 2.36.9 1.84.83 1.48.72 1.2.66 1 .6.82.55.7.5.6.5.5.44.44.42.38.4.33.38.28.36.26.36.22.34.2.33.17.32.15.3.14.32.1.3.1.3.1.3.07.3.04.3.05.3.02.3.02h.06" stroke="#5e5e5e" stroke-width=".5" stroke-linejoin="round" fill="none"/><path d="M-1057.7-1787.36l-.02.5h-.25v-.5zM-1000.97-1621.4v.5h-.22v-.5z" stroke="#5e5e5e" stroke-width=".05" fill="#5e5e5e"/><path d="M-1319.47-1345.52a6 6 0 0 1 6-6h248a6 6 0 0 1 6 6v51.04a6 6 0 0 1-6 6h-248a6 6 0 0 1-6-6z" stroke="#000" stroke-opacity="0" stroke-width="3" fill="#f2f3f5"/><use xlink:href="#k" transform="matrix(1,0,0,1,-1314.4695486182318,-1346.5179119019563) translate(52.314814814814824 21.15277777777778)"/><use xlink:href="#l" transform="matrix(1,0,0,1,-1314.4695486182318,-1346.5179119019563) translate(126.14197530864197 21.15277777777778)"/><use xlink:href="#i" transform="matrix(1,0,0,1,-1314.4695486182318,-1346.5179119019563) translate(63.36419753086419 47.81944444444444)"/><path d="M-1435.24-1320h115.52" stroke="#5e5e5e" stroke-width=".5" stroke-linejoin="round" fill="none"/><path d="M-1435.24-1320h-.25" stroke="#5e5e5e" stroke-width=".5" fill="none"/><path d="M-1319.47-1319.75h-.26v-.5h.26z" stroke="#5e5e5e" stroke-width=".05" fill="#5e5e5e"/><path d="M-1000.97-1351.5a6 6 0 0 1 6-6h88a6 6 0 0 1 6 6v63a6 6 0 0 1-6 6h-88a6 6 0 0 1-6-6z" stroke="#5e5e5e" stroke-width="3" fill="#fff0f0"/><path d="M-1059.22-1320.58l56.5.58" stroke="#5e5e5e" stroke-width=".5" stroke-linejoin="round" fill="none"/><path d="M-1059.2-1320.58h-.27" stroke="#5e5e5e" stroke-width=".5" fill="none"/><path d="M-1002.47-1320.25v.5h-.26v-.5zM-950.72-1247l.07.9.2.88.36.83.48.78.6.68.67.6.77.46.83.35.88.2.9.08h18.33v.5h-18.34l-.97-.08-.95-.23-.9-.37-.84-.5-.75-.65-.63-.75-.5-.83-.38-.9-.24-.96-.08-.97v-33.55h.5zm86.23-73.17l.96.23.9.37.84.5.75.65.64.75.5.83.38.9.22.96.08.97v67l-.08.98-.23.95-.37.9-.5.84-.65.75-.75.64-.83.5-.9.38-.96.23-.96.08h-17.87v-.5h17.85l.9-.07.9-.2.82-.36.77-.47.7-.6.58-.67.47-.77.35-.82.2-.88.08-.9v-67l-.07-.9-.2-.88-.35-.83-.47-.78-.58-.68-.7-.6-.76-.46-.83-.35-.87-.2-.9-.08h-33.75v-.5h33.76z" stroke="#5e5e5e" stroke-width=".05" fill="#5e5e5e"/><path d="M-899.2-1319.75h-.27v-.5h.26z" fill="#5e5e5e"/><path d="M-899.2-1319.72h-.3v-.56h.3zm-.25-.5v.44h.2v-.44zM-940.57-1263.42l-.43.25-9.97-16.85-9.97 16.85-.43-.25 10.4-17.58z" stroke="#5e5e5e" stroke-width=".05" fill="#5e5e5e"/><use xlink:href="#m" transform="matrix(1,0,0,1,-926.6367794185634,-1251.666666779843) translate(0 14.222222222222223)"/><path d="M-999.47-1541.44a6 6 0 0 1 6-6h228a6 6 0 0 1 6 6v22.16a6 6 0 0 1-6 6h-228a6 6 0 0 1-6-6z" stroke="#000" stroke-opacity="0" stroke-width="3" fill="#f2f3f5"/><use xlink:href="#h" transform="matrix(1,0,0,1,-994.4684914021436,-1542.4423159519822) translate(49.35185185185186 19.34027777777778)"/><use xlink:href="#n" transform="matrix(1,0,0,1,-994.4684914021436,-1542.4423159519822) translate(68.48765432098766 19.34027777777778)"/><use xlink:href="#o" transform="matrix(1,0,0,1,-994.4684914021436,-1542.4423159519822) translate(137.5 19.34027777777778)"/><path d="M-707-1561.86a6 6 0 0 1 6-6h88a6 6 0 0 1 6 6v63a6 6 0 0 1-6 6h-88a6 6 0 0 1-6-6z" stroke="#5e5e5e" stroke-width="3" fill="#fff"/><path d="M-759.22-1530.36h50.48" stroke="#5e5e5e" stroke-width=".5" stroke-linejoin="round" fill="none"/><path d="M-759.2-1530.1h-.27v-.5h.26zM-708.5-1530.1h-.25v-.5h.26z" stroke="#5e5e5e" stroke-width=".05" fill="#5e5e5e"/><path d="M-1057.72-1787.1h.17l.2.02.2.03.22.04.2.04.22.06.2.07.23.1.22.08.23.1.24.13.25.14.25.17.27.17.27.22.3.23.3.3.35.3.35.4.4.44.4.53.47.64.5.76.57.93.64 1.16.72 1.44.83 1.88.97 2.47 1.17 3.35 1.43 4.77 1.82 7.15 2.45 11.68 3.73 22.46 20.13 154.58 2.47 11.67 1.82 7.15 1.43 4.77 1.16 3.37.97 2.47.83 1.88.72 1.46.63 1.15.57.93.5.76.46.62.42.53.4.45.35.38.33.33.32.3.3.24.27.2.27.2.26.16.24.14.24.13.23.1.24.1.22.08.2.07.22.06.2.05.22.04.2.03.22.02h.16" stroke="#5e5e5e" stroke-width=".5" stroke-linejoin="round" fill="none"/><path d="M-1057.7-1787.36l-.02.5h-.25v-.5zM-999.47-1530.6v.5h-.22v-.5z" stroke="#5e5e5e" stroke-width=".05" fill="#5e5e5e"/><path d="M-1319.47-1208.02a6 6 0 0 1 6-6h248a6 6 0 0 1 6 6v51.04a6 6 0 0 1-6 6h-248a6 6 0 0 1-6-6z" stroke="#000" stroke-opacity="0" stroke-width="3" fill="#f2f3f5"/><use xlink:href="#k" transform="matrix(1,0,0,1,-1314.4695486182318,-1209.017961788779) translate(55.40123456790124 31.27777777777778)"/><use xlink:href="#p" transform="matrix(1,0,0,1,-1314.4695486182318,-1209.017961788779) translate(129.2283950617284 31.27777777777778)"/><path d="M-1433.74-1129.68l3.63-.08 3.56-.23 3.32-.36 3.1-.47 2.93-.6 2.8-.67 2.68-.78 2.6-.9 2.56-.98 2.54-1.12 2.54-1.25 2.6-1.42 2.68-1.64 2.88-1.9 3.2-2.38 3.94-3.16 7.14-6.32 11.75-10.57 3.95-3.17 3.2-2.36 2.9-1.93 2.68-1.62 2.6-1.43 2.53-1.25 2.53-1.12 2.55-1 2.6-.88 2.7-.78 2.78-.68 2.93-.58 3.1-.48 3.3-.36 3.58-.24 3.64-.07" stroke="#5e5e5e" stroke-width=".5" stroke-linejoin="round" fill="none"/><path d="M-1433.73-1129.43h-.26v-.5h.26zM-1319.47-1182.25h-.26v-.5h.26z" stroke="#5e5e5e" stroke-width=".05" fill="#5e5e5e"/><path d="M-1000.97-1214a6 6 0 0 1 6-6h88a6 6 0 0 1 6 6v63a6 6 0 0 1-6 6h-88a6 6 0 0 1-6-6z" stroke="#5e5e5e" stroke-width="3" fill="#fff"/><path d="M-1059.22-1182.5h56.5" stroke="#5e5e5e" stroke-width=".5" stroke-linejoin="round" fill="none"/><path d="M-1059.2-1182.25h-.27v-.5h.26zM-1002.47-1182.25h-.26v-.5h.26z" stroke="#5e5e5e" stroke-width=".05" fill="#5e5e5e"/><path d="M-1319.47-1119.44a6 6 0 0 1 6-6h248a6 6 0 0 1 6 6v51.04a6 6 0 0 1-6 6h-248a6 6 0 0 1-6-6z" stroke="#000" stroke-opacity="0" stroke-width="3" fill="#f2f3f5"/><use xlink:href="#q" transform="matrix(1,0,0,1,-1314.4695486182318,-1120.4407269704932) translate(74.47530864197532 31.27777777777778)"/><path d="M-1433.74-1129.67l5.37.1 4.97.34 4.48.5 4.08.6 3.8.77 3.57.87 3.42 1 3.35 1.15 3.37 1.3 3.48 1.54 3.82 1.88 4.73 2.6 21.87 13.04 3.82 1.9 3.47 1.52 3.36 1.3 3.36 1.15 3.4 1 3.6.86 3.78.76 4.08.62 4.47.5 4.98.32 5.38.1" stroke="#5e5e5e" stroke-width=".5" stroke-linejoin="round" fill="none"/><path d="M-1433.73-1129.92v.5h-.26v-.5zM-1319.47-1094.17v.5h-.26v-.5z" stroke="#5e5e5e" stroke-width=".05" fill="#5e5e5e"/><path d="M-1000.97-1125.42a6 6 0 0 1 6-6h88a6 6 0 0 1 6 6v63a6 6 0 0 1-6 6h-88a6 6 0 0 1-6-6z" stroke="#5e5e5e" stroke-width="3" fill="#fff"/><path d="M-1059.22-1094.5l56.5.58" stroke="#5e5e5e" stroke-width=".5" stroke-linejoin="round" fill="none"/><path d="M-1059.2-1094.5h-.27" stroke="#5e5e5e" stroke-width=".5" fill="none"/><path d="M-1002.47-1094.17v.5h-.26v-.5z" stroke="#5e5e5e" stroke-width=".05" fill="#5e5e5e"/><path d="M-1319.47-986.73a6 6 0 0 1 6-6h168a6 6 0 0 1 6 6v68a6 6 0 0 1-6 6h-168a6 6 0 0 1-6-6z" stroke="#5e5e5e" stroke-width="3" fill="#dfe3e8"/><use xlink:href="#r" transform="matrix(1,0,0,1,-1314.4695486182318,-987.7310403739586) translate(12.71604938271605 39.96527777777778)"/><path d="M-1095.5-986.73a6 6 0 0 1 6-6h168a6 6 0 0 1 6 6v68a6 6 0 0 1-6 6h-168a6 6 0 0 1-6-6z" stroke="#5e5e5e" stroke-width="3" fill="#dfe3e8"/><use xlink:href="#s" transform="matrix(1,0,0,1,-1090.4929839051183,-987.7310403739586) translate(20.586419753086417 39.96527777777778)"/><path d="M-1137.72-952.73h40.48" stroke="#5e5e5e" stroke-width=".5" stroke-linejoin="round" fill="none"/><path d="M-1137.7-952.48h-.27v-.5h.26zM-1097-952.48h-.25v-.5h.26z" stroke="#5e5e5e" stroke-width=".05" fill="#5e5e5e"/><path d="M-1433.74-1129.67l.87.02 1.1.07 1.07.1 1.06.16 1.04.2 1.04.25 1.03.3 1.04.32 1.05.4 1.05.43 1.05.5 1.08.56 1.1.63 1.12.72 1.15.8 1.2.9 1.24 1.02 1.3 1.17 1.35 1.32 1.42 1.53 1.53 1.77 1.63 2.06 1.77 2.43 1.92 2.92 2.14 3.53 2.42 4.38 2.78 5.62 3.35 7.56 4.4 11.16 8.05 23.43 15.9 47.83 4.4 11.16 3.34 7.54 2.78 5.62 2.4 4.38 2.14 3.54 1.93 2.9 1.76 2.43 1.63 2.08 1.5 1.76 1.45 1.53 1.36 1.33 1.3 1.17 1.24 1.02 1.2.9 1.15.8 1.1.72 1.1.63 1.08.56 1.06.5 1.05.45 1.03.4 1.03.32 1.04.3 1.04.24 1.04.2 1.06.16 1.08.12 1.1.07h.86" stroke="#5e5e5e" stroke-width=".5" stroke-linejoin="round" fill="none"/><path d="M-1433.73-1129.92v.5h-.26v-.5zM-1320.97-952.98v.5h-.26v-.5z" stroke="#5e5e5e" stroke-width=".05" fill="#5e5e5e"/><path d="M-781.5-1025.3a6 6 0 0 1 6-6h248a6 6 0 0 1 6 6v51.03a6 6 0 0 1-6 6h-248a6 6 0 0 1-6-6z" stroke="#000" stroke-opacity="0" stroke-width="3" fill="#f2f3f5"/><use xlink:href="#t" transform="matrix(1,0,0,1,-776.4981942901422,-1026.3088359538963) translate(27.59259259259258 31.27777777777778)"/><use xlink:href="#u" transform="matrix(1,0,0,1,-776.4981942901422,-1026.3088359538963) translate(163.20987654320987 31.27777777777778)"/><path d="M-913.74-952.74l5.3-.1 4.98-.32 4.55-.47 4.18-.62 3.92-.75 3.7-.87 3.55-1 3.43-1.1 3.38-1.26 3.38-1.42 3.46-1.63 3.66-1.92 4.1-2.37 5.2-3.3 23.58-16.08 4.1-2.38 3.67-1.9 3.47-1.64 3.38-1.42 3.38-1.25 3.43-1.12 3.54-.98 3.7-.87 3.93-.75 4.2-.62 4.54-.47 5-.3 5.28-.12" stroke="#5e5e5e" stroke-width=".5" stroke-linejoin="round" fill="none"/><path d="M-913.73-952.5l-.26.02v-.5h.26zM-781.5-999.54h-.25v-.5h.25z" stroke="#5e5e5e" stroke-width=".05" fill="#5e5e5e"/><path d="M-781.5-931.2a6 6 0 0 1 6-6h248a6 6 0 0 1 6 6v51.05a6 6 0 0 1-6 6h-248a6 6 0 0 1-6-6z" stroke="#000" stroke-opacity="0" stroke-width="3" fill="#f2f3f5"/><use xlink:href="#k" transform="matrix(1,0,0,1,-776.4981942901422,-932.1890685979316) translate(19.629629629629648 21.15277777777778)"/><use xlink:href="#v" transform="matrix(1,0,0,1,-776.4981942901422,-932.1890685979316) translate(93.4567901234568 21.15277777777778)"/><use xlink:href="#f" transform="matrix(1,0,0,1,-776.4981942901422,-932.1890685979316) translate(171.17283950617283 21.15277777777778)"/><use xlink:href="#g" transform="matrix(1,0,0,1,-776.4981942901422,-932.1890685979316) translate(89.25925925925927 47.81944444444444)"/><path d="M-913.74-952.73l5.3.1 4.98.33 4.55.47 4.18.62 3.92.74 3.7.87 3.55 1 3.43 1.1 3.38 1.26 3.38 1.43 3.46 1.62 3.66 1.9 4.1 2.4 5.2 3.3 23.58 16.07 4.1 2.36 3.67 1.92 3.47 1.63 3.38 1.43 3.38 1.26 3.43 1.1 3.54 1 3.7.86 3.93.75 4.2.63 4.54.47 5 .32 5.28.1" stroke="#5e5e5e" stroke-width=".5" stroke-linejoin="round" fill="none"/><path d="M-913.73-952.98v.5h-.26v-.5zM-781.5-905.92v.5h-.25v-.5z" stroke="#5e5e5e" stroke-width=".05" fill="#5e5e5e"/><path d="M-463-1031.3a6 6 0 0 1 6-6h88a6 6 0 0 1 6 6v63a6 6 0 0 1-6 6h-88a6 6 0 0 1-6-6z" stroke="#5e5e5e" stroke-width="3" fill="#fff"/><path d="M-521.25-999.8h56.5" stroke="#5e5e5e" stroke-width=".5" stroke-linejoin="round" fill="none"/><path d="M-521.24-999.54h-.26v-.5h.26zM-464.5-999.54h-.25v-.5h.25z" stroke="#5e5e5e" stroke-width=".05" fill="#5e5e5e"/><path d="M-463-937.17a6 6 0 0 1 6-6h88a6 6 0 0 1 6 6v63a6 6 0 0 1-6 6h-88a6 6 0 0 1-6-6z" stroke="#5e5e5e" stroke-width="3" fill="#fff"/><path d="M-521.25-905.67h56.5" stroke="#5e5e5e" stroke-width=".5" stroke-linejoin="round" fill="none"/><path d="M-521.24-905.42h-.26v-.5h.26zM-464.5-905.42h-.25v-.5h.25z" stroke="#5e5e5e" stroke-width=".05" fill="#5e5e5e"/><path d="M-1319.47-1460.93a6 6 0 0 1 6-6h168a6 6 0 0 1 6 6v68a6 6 0 0 1-6 6h-168a6 6 0 0 1-6-6z" stroke="#5e5e5e" stroke-width="3" fill="#dfe3e8"/><use xlink:href="#w" transform="matrix(1,0,0,1,-1314.4695486182318,-1461.9263934098183) translate(25.216049382716044 39.96527777777778)"/><path d="M-1433.74-1787.1h.3l.55.03.56.06.54.07.54.1.55.13.54.16.56.18.57.2.58.25.6.27.6.32.63.35.64.4.68.48.7.54.75.62.78.7.83.8.9.95.94 1.1 1.03 1.3 1.1 1.54 1.24 1.84 1.36 2.24 1.52 2.77 1.7 3.47 2 4.44 2.3 5.83 2.74 7.92 3.4 11.3 4.4 17.36 6.5 30.86 33.73 193.74 4.42 17.35 3.4 11.3 2.75 7.94 2.3 5.83 1.97 4.44 1.72 3.47 1.5 2.78 1.37 2.24 1.22 1.85 1.1 1.54 1.04 1.3.95 1.1.88.95.83.82.8.7.73.62.7.53.68.46.66.4.63.37.6.32.6.27.57.24.57.22.55.18.54.16.55.13.54.1.54.07.55.06.54.03h.3" stroke="#5e5e5e" stroke-width=".5" stroke-linejoin="round" fill="none"/><path d="M-1433.73-1787.36v.5h-.26v-.5zM-1320.97-1427.18v.5h-.26v-.5z" stroke="#5e5e5e" stroke-width=".05" fill="#5e5e5e"/><path d="M-1020.97-1452.44a6 6 0 0 1 6-6h248a6 6 0 0 1 6 6v51.03a6 6 0 0 1-6 6h-248a6 6 0 0 1-6-6z" stroke="#000" stroke-opacity="0" stroke-width="3" fill="#f2f3f5"/><use xlink:href="#x" transform="matrix(1,0,0,1,-1015.9708728923943,-1453.4443053117745) translate(63.36419753086419 31.27777777777778)"/><path d="M-1137.72-1426.93h116.5" stroke="#5e5e5e" stroke-width=".5" stroke-linejoin="round" fill="none"/><path d="M-1137.7-1426.68h-.27v-.5h.26zM-1020.97-1426.68h-.26v-.5h.26z" stroke="#5e5e5e" stroke-width=".05" fill="#5e5e5e"/><path d="M-707-1458.43a6 6 0 0 1 6-6h88a6 6 0 0 1 6 6v63a6 6 0 0 1-6 6h-88a6 6 0 0 1-6-6z" stroke="#5e5e5e" stroke-width="3" fill="#fff"/><path d="M-760.72-1426.93h51.98" stroke="#5e5e5e" stroke-width=".5" stroke-linejoin="round" fill="none"/><path d="M-760.7-1426.68h-.27v-.5h.26zM-708.5-1426.68h-.25v-.5h.26z" stroke="#5e5e5e" stroke-width=".05" fill="#5e5e5e"/><path d="M-1319.47-1956.72a6 6 0 0 1 6-6h248a6 6 0 0 1 6 6v51.04a6 6 0 0 1-6 6h-248a6 6 0 0 1-6-6z" stroke="#000" stroke-opacity="0" stroke-width="3" fill="#f2f3f5"/><use xlink:href="#y" transform="matrix(1,0,0,1,-1314.4695486182318,-1957.7168856423543) translate(42.345679012345684 31.27777777777778)"/><use xlink:href="#z" transform="matrix(1,0,0,1,-1314.4695486182318,-1957.7168856423543) translate(143.51851851851853 31.27777777777778)"/><path d="M-1433.74-1787.12l1.16-.02 1.36-.1 1.34-.13 1.3-.2 1.3-.24 1.25-.3 1.26-.36 1.25-.4 1.25-.47 1.25-.53 1.27-.6 1.27-.66 1.3-.75 1.32-.83 1.36-.95 1.4-1.06 1.44-1.2 1.5-1.36 1.58-1.54 1.66-1.78 1.77-2.05 1.9-2.4 2.07-2.85 2.3-3.44 2.57-4.27 3-5.5 3.76-7.58 5.56-12.57 20.06-48.38 3.76-7.6 3-5.5 2.6-4.26 2.28-3.43 2.07-2.85 1.9-2.4 1.76-2.06 1.66-1.77 1.58-1.56 1.5-1.35 1.45-1.2 1.4-1.07 1.35-.94 1.32-.85 1.3-.75 1.27-.66 1.25-.6 1.26-.53 1.26-.45 1.25-.4 1.26-.36 1.27-.3 1.3-.25 1.3-.2 1.33-.13 1.36-.1h1.16" stroke="#5e5e5e" stroke-width=".5" stroke-linejoin="round" fill="none"/><path d="M-1433.73-1786.87h-.26v-.5h.26zM-1319.47-1930.95h-.26v-.5h.26z" stroke="#5e5e5e" stroke-width=".05" fill="#5e5e5e"/><path d="M-1000.97-1962.7a6 6 0 0 1 6-6h88a6 6 0 0 1 6 6v63a6 6 0 0 1-6 6h-88a6 6 0 0 1-6-6z" stroke="#5e5e5e" stroke-width="3" fill="#fff"/><path d="M-1059.22-1931.78l56.5.58" stroke="#5e5e5e" stroke-width=".5" stroke-linejoin="round" fill="none"/><path d="M-1059.2-1931.78h-.27" stroke="#5e5e5e" stroke-width=".5" fill="none"/><path d="M-1002.47-1931.45v.5h-.26v-.5zM-950.72-1858.2l.07.9.2.88.36.83.48.78.6.7.67.57.77.47.83.35.88.2.9.08h19.12v.5h-19.13l-.97-.08-.95-.22-.9-.38-.84-.5-.75-.65-.63-.75-.5-.83-.38-.9-.24-.96-.08-.97v-33.54h.5zm86.23-73.17l.96.23.9.37.84.5.75.65.64.75.5.83.38.9.22.96.08.97v67l-.08.98-.23.95-.37.9-.5.84-.65.75-.75.64-.83.5-.9.4-.96.2-.96.1h-17.08v-.5h17.06l.9-.08.9-.2.82-.36.77-.47.7-.58.58-.7.47-.76.35-.82.2-.88.08-.9v-67l-.07-.9-.2-.88-.35-.83-.47-.78-.58-.68-.7-.6-.76-.46-.83-.35-.87-.2-.9-.08h-33.75v-.5h33.76z" stroke="#5e5e5e" stroke-width=".05" fill="#5e5e5e"/><path d="M-899.2-1930.95h-.27v-.5h.26z" fill="#5e5e5e"/><path d="M-899.2-1930.92h-.3v-.55h.3zm-.25-.5v.45h.2v-.45zM-940.57-1874.62l-.43.25-9.97-16.85-9.97 16.85-.43-.25 10.4-17.58z" stroke="#5e5e5e" stroke-width=".05" fill="#5e5e5e"/><use xlink:href="#m" transform="matrix(1,0,0,1,-925.851283052895,-1862.865640520241) translate(0 14.222222222222223)"/><path d="M-855.5-1870.62a6 6 0 0 1 6-6h84.5a6 6 0 0 1 6 6v9.86a6 6 0 0 1-6 6h-84.5a6 6 0 0 1-6-6z" stroke="#000" stroke-opacity="0" stroke-width="3" fill="#f2f3f5"/><g><use xlink:href="#A" transform="matrix(1,0,0,1,-850.4929839051183,-1871.6176340336756) translate(1.1666666666666856 10.666666666666664)"/><use xlink:href="#B" transform="matrix(1,0,0,1,-850.4929839051183,-1871.6176340336756) translate(12.648148148148161 10.666666666666664)"/><use xlink:href="#C" transform="matrix(1,0,0,1,-850.4929839051183,-1871.6176340336756) translate(56.31481481481481 10.666666666666664)"/></g><path d="M-735.5-1351.5a6 6 0 0 1 6-6h88a6 6 0 0 1 6 6v63a6 6 0 0 1-6 6h-88a6 6 0 0 1-6-6z" stroke="#5e5e5e" stroke-width="3" fill="#fff"/><path d="M-836.47-1319.75h-62.75v-.5h62.75zm99.02 0h-25.98v-.5h25.98z" stroke="#5e5e5e" stroke-width=".05" fill="#5e5e5e"/><path d="M-899.2-1319.75h-.27v-.5h.26z" fill="#5e5e5e"/><path d="M-899.2-1319.72h-.3v-.56h.3zm-.25-.5v.44h.2v-.44zM-737-1320l-17.57 10.4-.26-.43 16.86-9.97-16.86-9.97.26-.43z" stroke="#5e5e5e" stroke-width=".05" fill="#5e5e5e"/><g><use xlink:href="#D" transform="matrix(1,0,0,1,-836.4716198129074,-1330.6666167798437) translate(0 14.222222222222223)"/><use xlink:href="#E" transform="matrix(1,0,0,1,-836.4716198129074,-1330.6666167798437) translate(48.345679012345684 14.222222222222223)"/></g><path d="M-415.5-1561.86a6 6 0 0 1 6-6h88a6 6 0 0 1 6 6v63a6 6 0 0 1-6 6h-88a6 6 0 0 1-6-6z" stroke="#5e5e5e" stroke-width="3" fill="#fff0f0"/><path d="M-554.15-1528.34h-51.1v-.5h51.1zm136.7 0h-50.88v-.5h50.88z" stroke="#5e5e5e" stroke-width=".05" fill="#5e5e5e"/><path d="M-605.23-1528.34h-.26v-.5h.27z" fill="#5e5e5e"/><path d="M-605.2-1528.3h-.32v-.56h.3zm-.27-.5v.44h.2v-.45zM-417-1528.6l-17.57 10.4-.26-.42 16.85-9.97-16.85-9.95.26-.43z" stroke="#5e5e5e" stroke-width=".05" fill="#5e5e5e"/><g><use xlink:href="#F" transform="matrix(1,0,0,1,-554.1545373066226,-1539.2534814874539) translate(0 14.222222222222223)"/><use xlink:href="#G" transform="matrix(1,0,0,1,-554.1545373066226,-1539.2534814874539) translate(38.46913580246914 14.222222222222223)"/></g><path d="M-995.5-1968.68a6 6 0 0 1 6-6h88a6 6 0 0 1 6 6v63a6 6 0 0 1-6 6h-88a6 6 0 0 1-6-6z" stroke="#5e5e5e" stroke-width="3" fill="#fff"/><defs><path fill="#333" d="M85-194c31 0 48 13 60 33l-1-100h32l1 261h-30c-2-10 0-23-3-31C134-8 116 4 85 4 32 4 16-35 15-94c0-66 23-100 70-100zm9 24c-40 0-46 34-46 75 0 40 6 74 45 74 42 0 51-32 51-76 0-42-9-74-50-73" id="H"/><path fill="#333" d="M115-194c55 1 70 41 70 98S169 2 115 4C84 4 66-9 55-30l1 105H24l-1-265h31l2 30c10-21 28-34 59-34zm-8 174c40 0 45-34 45-75s-6-73-45-74c-42 0-51 32-51 76 0 43 10 73 51 73" id="I"/><path fill="#333" d="M205 0l-28-72H64L36 0H1l101-248h38L239 0h-34zm-38-99l-47-123c-12 45-31 82-46 123h93" id="J"/><path fill="#333" d="M84 4C-5 8 30-112 23-190h32v120c0 31 7 50 39 49 72-2 45-101 50-169h31l1 190h-30c-1-10 1-25-2-33-11 22-28 36-60 37" id="K"/><path fill="#333" d="M100-194c63 0 86 42 84 106H49c0 40 14 67 53 68 26 1 43-12 49-29l28 8c-11 28-37 45-77 45C44 4 14-33 15-96c1-61 26-98 85-98zm52 81c6-60-76-77-97-28-3 7-6 17-6 28h103" id="L"/><path fill="#333" d="M24-231v-30h32v30H24zM24 0v-190h32V0H24" id="M"/><path fill="#333" d="M30-248c118-7 216 8 213 122C240-48 200 0 122 0H30v-248zM63-27c89 8 146-16 146-99s-60-101-146-95v194" id="N"/><path fill="#333" d="M177-190C167-65 218 103 67 71c-23-6-38-20-44-43l32-5c15 47 100 32 89-28v-30C133-14 115 1 83 1 29 1 15-40 15-95c0-56 16-97 71-98 29-1 48 16 59 35 1-10 0-23 2-32h30zM94-22c36 0 50-32 50-73 0-42-14-75-50-75-39 0-46 34-46 75s6 73 46 73" id="O"/><path fill="#333" d="M-5 72V49h209v23H-5" id="P"/><path fill="#333" d="M100-194c62-1 85 37 85 99 1 63-27 99-86 99S16-35 15-95c0-66 28-99 85-99zM99-20c44 1 53-31 53-75 0-43-8-75-51-75s-53 32-53 75 10 74 51 75" id="Q"/><g id="a"><use transform="matrix(0.06172839506172839,0,0,0.06172839506172839,0,0)" xlink:href="#H"/><use transform="matrix(0.06172839506172839,0,0,0.06172839506172839,12.345679012345679,0)" xlink:href="#I"/><use transform="matrix(0.06172839506172839,0,0,0.06172839506172839,24.691358024691358,0)" xlink:href="#J"/><use transform="matrix(0.06172839506172839,0,0,0.06172839506172839,39.50617283950617,0)" xlink:href="#K"/><use transform="matrix(0.06172839506172839,0,0,0.06172839506172839,51.85185185185185,0)" xlink:href="#L"/><use transform="matrix(0.06172839506172839,0,0,0.06172839506172839,64.19753086419753,0)" xlink:href="#M"/><use transform="matrix(0.06172839506172839,0,0,0.06172839506172839,69.07407407407408,0)" xlink:href="#N"/><use transform="matrix(0.06172839506172839,0,0,0.06172839506172839,85.06172839506173,0)" xlink:href="#O"/><use transform="matrix(0.06172839506172839,0,0,0.06172839506172839,97.40740740740742,0)" xlink:href="#P"/><use transform="matrix(0.06172839506172839,0,0,0.06172839506172839,109.7530864197531,0)" xlink:href="#Q"/><use transform="matrix(0.06172839506172839,0,0,0.06172839506172839,122.09876543209879,0)" xlink:href="#O"/></g><path fill="#333" d="M240 0l2-218c-23 76-54 145-80 218h-23L58-218 59 0H30v-248h44l77 211c21-75 51-140 76-211h43V0h-30" id="R"/><path fill="#333" d="M141-36C126-15 110 5 73 4 37 3 15-17 15-53c-1-64 63-63 125-63 3-35-9-54-41-54-24 1-41 7-42 31l-33-3c5-37 33-52 76-52 45 0 72 20 72 64v82c-1 20 7 32 28 27v20c-31 9-61-2-59-35zM48-53c0 20 12 33 32 33 41-3 63-29 60-74-43 2-92-5-92 41" id="S"/><path fill="#333" d="M30-248c87 1 191-15 191 75 0 78-77 80-158 76V0H30v-248zm33 125c57 0 124 11 124-50 0-59-68-47-124-48v98" id="T"/><path fill="#333" d="M127-220V0H93v-220H8v-28h204v28h-85" id="U"/><path fill="#333" d="M126-127c33 6 58 20 58 59 0 88-139 92-164 29-3-8-5-16-6-25l32-3c6 27 21 44 54 44 32 0 52-15 52-46 0-38-36-46-79-43v-28c39 1 72-4 72-42 0-27-17-43-46-43-28 0-47 15-49 41l-32-3c6-42 35-63 81-64 48-1 79 21 79 65 0 36-21 52-52 59" id="V"/><path fill="#333" d="M27 0v-27h64v-190l-56 39v-29l58-41h29v221h61V0H27" id="W"/><path fill="#333" d="M210-169c-67 3-38 105-44 169h-31v-121c0-29-5-50-35-48C34-165 62-65 56 0H25l-1-190h30c1 10-1 24 2 32 10-44 99-50 107 0 11-21 27-35 58-36 85-2 47 119 55 194h-31v-121c0-29-5-49-35-48" id="X"/><path fill="#333" d="M140-251c81 0 123 46 123 126C263-53 228-8 163 1c7 30 30 48 69 40v23c-55 16-95-15-103-61C56-3 17-48 17-125c0-80 42-126 123-126zm0 227c63 0 89-41 89-101s-29-99-89-99c-61 0-89 39-89 99S79-25 140-24" id="Y"/><path fill="#333" d="M63-220v92h138v28H63V0H30v-248h175v28H63" id="Z"/><path fill="#333" d="M30 0v-248h187v28H63v79h144v27H63v87h162V0H30" id="aa"/><g id="b"><use transform="matrix(0.06172839506172839,0,0,0.06172839506172839,0,0)" xlink:href="#H"/><use transform="matrix(0.06172839506172839,0,0,0.06172839506172839,12.345679012345679,0)" xlink:href="#R"/><use transform="matrix(0.06172839506172839,0,0,0.06172839506172839,30.80246913580247,0)" xlink:href="#S"/><use transform="matrix(0.06172839506172839,0,0,0.06172839506172839,43.148148148148145,0)" xlink:href="#T"/><use transform="matrix(0.06172839506172839,0,0,0.06172839506172839,57.96296296296296,0)" xlink:href="#U"/><use transform="matrix(0.06172839506172839,0,0,0.06172839506172839,71.48148148148148,0)" xlink:href="#V"/><use transform="matrix(0.06172839506172839,0,0,0.06172839506172839,83.82716049382717,0)" xlink:href="#W"/><use transform="matrix(0.06172839506172839,0,0,0.06172839506172839,96.17283950617285,0)" xlink:href="#X"/><use transform="matrix(0.06172839506172839,0,0,0.06172839506172839,114.62962962962963,0)" xlink:href="#Y"/><use transform="matrix(0.06172839506172839,0,0,0.06172839506172839,131.91358024691357,0)" xlink:href="#Z"/><use transform="matrix(0.06172839506172839,0,0,0.06172839506172839,145.43209876543207,0)" xlink:href="#aa"/></g><path fill="#333" d="M160-131c35 5 61 23 61 61C221 17 115-2 30 0v-248c76 3 177-17 177 60 0 33-19 50-47 57zm-97-11c50-1 110 9 110-42 0-47-63-36-110-37v79zm0 115c55-2 124 14 124-45 0-56-70-42-124-44v89" id="ab"/><path fill="#333" d="M30 0v-248h33v221h125V0H30" id="ac"/><path fill="#333" d="M143 4C61 4 22-44 18-125c-5-107 100-154 193-111 17 8 29 25 37 43l-32 9c-13-25-37-40-76-40-61 0-88 39-88 99 0 61 29 100 91 101 35 0 62-11 79-27v-45h-74v-28h105v86C228-13 192 4 143 4" id="ad"/><path fill="#333" d="M197 0v-115H63V0H30v-248h33v105h134v-105h34V0h-34" id="ae"/><path fill="#333" d="M16-82v-28h88v28H16" id="af"/><g id="c"><use transform="matrix(0.06172839506172839,0,0,0.06172839506172839,0,0)" xlink:href="#O"/><use transform="matrix(0.06172839506172839,0,0,0.06172839506172839,12.345679012345679,0)" xlink:href="#ab"/><use transform="matrix(0.06172839506172839,0,0,0.06172839506172839,27.160493827160494,0)" xlink:href="#ac"/><use transform="matrix(0.06172839506172839,0,0,0.06172839506172839,39.50617283950617,0)" xlink:href="#ad"/><use transform="matrix(0.06172839506172839,0,0,0.06172839506172839,56.79012345679012,0)" xlink:href="#ab"/><use transform="matrix(0.06172839506172839,0,0,0.06172839506172839,71.60493827160494,0)" xlink:href="#N"/><use transform="matrix(0.06172839506172839,0,0,0.06172839506172839,87.5925925925926,0)" xlink:href="#ae"/><use transform="matrix(0.06172839506172839,0,0,0.06172839506172839,103.58024691358025,0)" xlink:href="#T"/><use transform="matrix(0.06172839506172839,0,0,0.06172839506172839,118.39506172839506,0)" xlink:href="#af"/><use transform="matrix(0.06172839506172839,0,0,0.06172839506172839,125.74074074074075,0)" xlink:href="#ab"/><use transform="matrix(0.06172839506172839,0,0,0.06172839506172839,140.55555555555557,0)" xlink:href="#R"/></g><path fill="#333" d="M117-194c89-4 53 116 60 194h-32v-121c0-31-8-49-39-48C34-167 62-67 57 0H25l-1-190h30c1 10-1 24 2 32 11-22 29-35 61-36" id="ag"/><path fill="#333" d="M59-47c-2 24 18 29 38 22v24C64 9 27 4 27-40v-127H5v-23h24l9-43h21v43h35v23H59v120" id="ah"/><path fill="#333" d="M114-163C36-179 61-72 57 0H25l-1-190h30c1 12-1 29 2 39 6-27 23-49 58-41v29" id="ai"/><path fill="#333" d="M68-38c1 34 0 65-14 84H32c9-13 17-26 17-46H33v-38h35" id="aj"/><g id="d"><use transform="matrix(0.06172839506172839,0,0,0.06172839506172839,0,0)" xlink:href="#M"/><use transform="matrix(0.06172839506172839,0,0,0.06172839506172839,4.876543209876543,0)" xlink:href="#ag"/><use transform="matrix(0.06172839506172839,0,0,0.06172839506172839,17.22222222222222,0)" xlink:href="#ah"/><use transform="matrix(0.06172839506172839,0,0,0.06172839506172839,23.39506172839506,0)" xlink:href="#L"/><use transform="matrix(0.06172839506172839,0,0,0.06172839506172839,35.74074074074074,0)" xlink:href="#ai"/><use transform="matrix(0.06172839506172839,0,0,0.06172839506172839,43.08641975308642,0)" xlink:href="#M"/><use transform="matrix(0.06172839506172839,0,0,0.06172839506172839,47.96296296296296,0)" xlink:href="#Q"/><use transform="matrix(0.06172839506172839,0,0,0.06172839506172839,60.30864197530864,0)" xlink:href="#ai"/><use transform="matrix(0.06172839506172839,0,0,0.06172839506172839,66.41975308641975,0)" xlink:href="#aj"/></g><path fill="#333" d="M96-169c-40 0-48 33-48 73s9 75 48 75c24 0 41-14 43-38l32 2c-6 37-31 61-74 61-59 0-76-41-82-99-10-93 101-131 147-64 4 7 5 14 7 22l-32 3c-4-21-16-35-41-35" id="ak"/><path fill="#333" d="M108 0H70L1-190h34L89-25l56-165h34" id="al"/><g id="e"><use transform="matrix(0.06172839506172839,0,0,0.06172839506172839,0,0)" xlink:href="#ak"/><use transform="matrix(0.06172839506172839,0,0,0.06172839506172839,11.11111111111111,0)" xlink:href="#K"/><use transform="matrix(0.06172839506172839,0,0,0.06172839506172839,23.45679012345679,0)" xlink:href="#ai"/><use transform="matrix(0.06172839506172839,0,0,0.06172839506172839,30.80246913580247,0)" xlink:href="#al"/><use transform="matrix(0.06172839506172839,0,0,0.06172839506172839,41.91358024691358,0)" xlink:href="#L"/><use transform="matrix(0.06172839506172839,0,0,0.06172839506172839,54.25925925925926,0)" xlink:href="#H"/><use transform="matrix(0.06172839506172839,0,0,0.06172839506172839,66.60493827160494,0)" xlink:href="#aj"/></g><path fill="#333" d="M135-143c-3-34-86-38-87 0 15 53 115 12 119 90S17 21 10-45l28-5c4 36 97 45 98 0-10-56-113-15-118-90-4-57 82-63 122-42 12 7 21 19 24 35" id="am"/><path fill="#333" d="M24 0v-261h32V0H24" id="an"/><g id="f"><use transform="matrix(0.06172839506172839,0,0,0.06172839506172839,0,0)" xlink:href="#I"/><use transform="matrix(0.06172839506172839,0,0,0.06172839506172839,12.345679012345679,0)" xlink:href="#S"/><use transform="matrix(0.06172839506172839,0,0,0.06172839506172839,24.691358024691358,0)" xlink:href="#am"/><use transform="matrix(0.06172839506172839,0,0,0.06172839506172839,35.80246913580247,0)" xlink:href="#ah"/><use transform="matrix(0.06172839506172839,0,0,0.06172839506172839,41.97530864197531,0)" xlink:href="#L"/><use transform="matrix(0.06172839506172839,0,0,0.06172839506172839,54.32098765432099,0)" xlink:href="#an"/></g><g id="g"><use transform="matrix(0.06172839506172839,0,0,0.06172839506172839,0,0)" xlink:href="#ak"/><use transform="matrix(0.06172839506172839,0,0,0.06172839506172839,11.11111111111111,0)" xlink:href="#Q"/><use transform="matrix(0.06172839506172839,0,0,0.06172839506172839,23.45679012345679,0)" xlink:href="#an"/><use transform="matrix(0.06172839506172839,0,0,0.06172839506172839,28.333333333333336,0)" xlink:href="#Q"/><use transform="matrix(0.06172839506172839,0,0,0.06172839506172839,40.67901234567901,0)" xlink:href="#K"/><use transform="matrix(0.06172839506172839,0,0,0.06172839506172839,53.02469135802469,0)" xlink:href="#ai"/><use transform="matrix(0.06172839506172839,0,0,0.06172839506172839,60.37037037037037,0)" xlink:href="#am"/></g><path fill="#333" d="M118-107v75H92v-75H18v-26h74v-75h26v75h74v26h-74" id="ao"/><use transform="matrix(0.06172839506172839,0,0,0.06172839506172839,0,0)" xlink:href="#ao" id="h"/><path fill="#333" d="M143 0L79-87 56-68V0H24v-261h32v163l83-92h37l-77 82L181 0h-38" id="ap"/><g id="i"><use transform="matrix(0.06172839506172839,0,0,0.06172839506172839,0,0)" xlink:href="#ap"/><use transform="matrix(0.06172839506172839,0,0,0.06172839506172839,11.11111111111111,0)" xlink:href="#M"/><use transform="matrix(0.06172839506172839,0,0,0.06172839506172839,15.987654320987653,0)" xlink:href="#ag"/><use transform="matrix(0.06172839506172839,0,0,0.06172839506172839,28.333333333333332,0)" xlink:href="#H"/><use transform="matrix(0.06172839506172839,0,0,0.06172839506172839,40.67901234567901,0)" xlink:href="#L"/><use transform="matrix(0.06172839506172839,0,0,0.06172839506172839,53.02469135802469,0)" xlink:href="#ai"/><use transform="matrix(0.06172839506172839,0,0,0.06172839506172839,60.37037037037037,0)" xlink:href="#O"/><use transform="matrix(0.06172839506172839,0,0,0.06172839506172839,72.71604938271605,0)" xlink:href="#S"/><use transform="matrix(0.06172839506172839,0,0,0.06172839506172839,85.06172839506173,0)" xlink:href="#ai"/><use transform="matrix(0.06172839506172839,0,0,0.06172839506172839,92.40740740740742,0)" xlink:href="#ah"/><use transform="matrix(0.06172839506172839,0,0,0.06172839506172839,98.58024691358025,0)" xlink:href="#L"/><use transform="matrix(0.06172839506172839,0,0,0.06172839506172839,110.92592592592594,0)" xlink:href="#ag"/></g><path fill="#333" d="M185-189c-5-48-123-54-124 2 14 75 158 14 163 119 3 78-121 87-175 55-17-10-28-26-33-46l33-7c5 56 141 63 141-1 0-78-155-14-162-118-5-82 145-84 179-34 5 7 8 16 11 25" id="aq"/><path fill="#333" d="M190 0L58-211 59 0H30v-248h39L202-35l-2-213h31V0h-41" id="ar"/><g id="j"><use transform="matrix(0.06172839506172839,0,0,0.06172839506172839,0,0)" xlink:href="#aq"/><use transform="matrix(0.06172839506172839,0,0,0.06172839506172839,14.814814814814813,0)" xlink:href="#J"/><use transform="matrix(0.06172839506172839,0,0,0.06172839506172839,29.629629629629626,0)" xlink:href="#ar"/><use transform="matrix(0.06172839506172839,0,0,0.06172839506172839,45.61728395061728,0)" xlink:href="#J"/><use transform="matrix(0.06172839506172839,0,0,0.06172839506172839,60.43209876543209,0)" xlink:href="#J"/></g><g id="k"><use transform="matrix(0.06172839506172839,0,0,0.06172839506172839,0,0)" xlink:href="#M"/><use transform="matrix(0.06172839506172839,0,0,0.06172839506172839,4.876543209876543,0)" xlink:href="#ag"/><use transform="matrix(0.06172839506172839,0,0,0.06172839506172839,17.22222222222222,0)" xlink:href="#ah"/><use transform="matrix(0.06172839506172839,0,0,0.06172839506172839,23.39506172839506,0)" xlink:href="#L"/><use transform="matrix(0.06172839506172839,0,0,0.06172839506172839,35.74074074074074,0)" xlink:href="#ai"/><use transform="matrix(0.06172839506172839,0,0,0.06172839506172839,43.08641975308642,0)" xlink:href="#M"/><use transform="matrix(0.06172839506172839,0,0,0.06172839506172839,47.96296296296296,0)" xlink:href="#Q"/><use transform="matrix(0.06172839506172839,0,0,0.06172839506172839,60.30864197530864,0)" xlink:href="#ai"/></g><g id="l"><use transform="matrix(0.06172839506172839,0,0,0.06172839506172839,0,0)" xlink:href="#H"/><use transform="matrix(0.06172839506172839,0,0,0.06172839506172839,12.345679012345679,0)" xlink:href="#L"/><use transform="matrix(0.06172839506172839,0,0,0.06172839506172839,24.691358024691358,0)" xlink:href="#am"/><use transform="matrix(0.06172839506172839,0,0,0.06172839506172839,35.80246913580247,0)" xlink:href="#M"/><use transform="matrix(0.06172839506172839,0,0,0.06172839506172839,40.67901234567901,0)" xlink:href="#O"/><use transform="matrix(0.06172839506172839,0,0,0.06172839506172839,53.02469135802469,0)" xlink:href="#ag"/><use transform="matrix(0.06172839506172839,0,0,0.06172839506172839,65.37037037037037,0)" xlink:href="#aj"/></g><path fill="#333" d="M141 0L90-78 38 0H4l68-98-65-92h35l48 74 47-74h35l-64 92 68 98h-35" id="as"/><g id="m"><use transform="matrix(0.04938271604938272,0,0,0.04938271604938272,0,0)" xlink:href="#ai"/><use transform="matrix(0.04938271604938272,0,0,0.04938271604938272,5.8765432098765435,0)" xlink:href="#L"/><use transform="matrix(0.04938271604938272,0,0,0.04938271604938272,15.753086419753087,0)" xlink:href="#X"/><use transform="matrix(0.04938271604938272,0,0,0.04938271604938272,30.518518518518523,0)" xlink:href="#M"/><use transform="matrix(0.04938271604938272,0,0,0.04938271604938272,34.41975308641976,0)" xlink:href="#as"/></g><g id="n"><use transform="matrix(0.06172839506172839,0,0,0.06172839506172839,0,0)" xlink:href="#J"/><use transform="matrix(0.06172839506172839,0,0,0.06172839506172839,14.814814814814813,0)" xlink:href="#an"/><use transform="matrix(0.06172839506172839,0,0,0.06172839506172839,19.691358024691354,0)" xlink:href="#al"/><use transform="matrix(0.06172839506172839,0,0,0.06172839506172839,30.802469135802465,0)" xlink:href="#S"/><use transform="matrix(0.06172839506172839,0,0,0.06172839506172839,43.148148148148145,0)" xlink:href="#ai"/><use transform="matrix(0.06172839506172839,0,0,0.06172839506172839,50.49382716049382,0)" xlink:href="#Q"/></g><path fill="#333" d="M9 0v-24l116-142H16v-24h144v24L44-24h123V0H9" id="at"/><g id="o"><use transform="matrix(0.06172839506172839,0,0,0.06172839506172839,0,0)" xlink:href="#aq"/><use transform="matrix(0.06172839506172839,0,0,0.06172839506172839,14.814814814814813,0)" xlink:href="#M"/><use transform="matrix(0.06172839506172839,0,0,0.06172839506172839,19.691358024691354,0)" xlink:href="#at"/><use transform="matrix(0.06172839506172839,0,0,0.06172839506172839,30.802469135802465,0)" xlink:href="#S"/></g><g id="p"><use transform="matrix(0.06172839506172839,0,0,0.06172839506172839,0,0)" xlink:href="#H"/><use transform="matrix(0.06172839506172839,0,0,0.06172839506172839,12.345679012345679,0)" xlink:href="#L"/><use transform="matrix(0.06172839506172839,0,0,0.06172839506172839,24.691358024691358,0)" xlink:href="#am"/><use transform="matrix(0.06172839506172839,0,0,0.06172839506172839,35.80246913580247,0)" xlink:href="#M"/><use transform="matrix(0.06172839506172839,0,0,0.06172839506172839,40.67901234567901,0)" xlink:href="#O"/><use transform="matrix(0.06172839506172839,0,0,0.06172839506172839,53.02469135802469,0)" xlink:href="#ag"/></g><g id="q"><use transform="matrix(0.06172839506172839,0,0,0.06172839506172839,0,0)" xlink:href="#ak"/><use transform="matrix(0.06172839506172839,0,0,0.06172839506172839,11.11111111111111,0)" xlink:href="#an"/><use transform="matrix(0.06172839506172839,0,0,0.06172839506172839,15.987654320987653,0)" xlink:href="#S"/><use transform="matrix(0.06172839506172839,0,0,0.06172839506172839,28.333333333333332,0)" xlink:href="#am"/><use transform="matrix(0.06172839506172839,0,0,0.06172839506172839,39.44444444444444,0)" xlink:href="#am"/><use transform="matrix(0.06172839506172839,0,0,0.06172839506172839,50.55555555555556,0)" xlink:href="#ai"/><use transform="matrix(0.06172839506172839,0,0,0.06172839506172839,57.901234567901234,0)" xlink:href="#Q"/><use transform="matrix(0.06172839506172839,0,0,0.06172839506172839,70.24691358024691,0)" xlink:href="#Q"/><use transform="matrix(0.06172839506172839,0,0,0.06172839506172839,82.5925925925926,0)" xlink:href="#X"/></g><path fill="#333" d="M155-56V0h-30v-56H8v-25l114-167h33v167h35v25h-35zm-30-156c-27 46-58 90-88 131h88v-131" id="au"/><path fill="#333" d="M99-251c64 0 84 50 84 122C183-37 130 33 47-8c-14-7-20-23-25-40l30-5c6 39 69 39 84 7 9-19 16-44 16-74-10 22-31 35-62 35-49 0-73-33-73-83 0-54 28-83 82-83zm-1 141c31-1 51-18 51-49 0-36-14-67-51-67-34 0-49 23-49 58 0 34 15 58 49 58" id="av"/><path fill="#333" d="M266 0h-40l-56-210L115 0H75L2-248h35L96-30l15-64 43-154h32l59 218 59-218h35" id="aw"/><g id="r"><use transform="matrix(0.06172839506172839,0,0,0.06172839506172839,0,0)" xlink:href="#M"/><use transform="matrix(0.06172839506172839,0,0,0.06172839506172839,4.876543209876543,0)" xlink:href="#Y"/><use transform="matrix(0.06172839506172839,0,0,0.06172839506172839,22.160493827160494,0)" xlink:href="#au"/><use transform="matrix(0.06172839506172839,0,0,0.06172839506172839,34.50617283950617,0)" xlink:href="#X"/><use transform="matrix(0.06172839506172839,0,0,0.06172839506172839,52.96296296296296,0)" xlink:href="#av"/><use transform="matrix(0.06172839506172839,0,0,0.06172839506172839,65.30864197530865,0)" xlink:href="#J"/><use transform="matrix(0.06172839506172839,0,0,0.06172839506172839,80.12345679012346,0)" xlink:href="#ak"/><use transform="matrix(0.06172839506172839,0,0,0.06172839506172839,91.23456790123457,0)" xlink:href="#M"/><use transform="matrix(0.06172839506172839,0,0,0.06172839506172839,96.11111111111111,0)" xlink:href="#U"/><use transform="matrix(0.06172839506172839,0,0,0.06172839506172839,109.62962962962963,0)" xlink:href="#aw"/><use transform="matrix(0.06172839506172839,0,0,0.06172839506172839,129.7530864197531,0)" xlink:href="#J"/></g><path fill="#333" d="M24-231v-30h32v30H24zM-9 49c24 4 33-6 33-30v-209h32V24c2 40-23 58-65 49V49" id="ax"/><path fill="#333" d="M206 0h-36l-40-164L89 0H53L-1-190h32L70-26l43-164h34l41 164 42-164h31" id="ay"/><g id="s"><use transform="matrix(0.06172839506172839,0,0,0.06172839506172839,0,0)" xlink:href="#M"/><use transform="matrix(0.06172839506172839,0,0,0.06172839506172839,4.876543209876543,0)" xlink:href="#ax"/><use transform="matrix(0.06172839506172839,0,0,0.06172839506172839,9.753086419753085,0)" xlink:href="#U"/><use transform="matrix(0.06172839506172839,0,0,0.06172839506172839,21.604938271604937,0)" xlink:href="#J"/><use transform="matrix(0.06172839506172839,0,0,0.06172839506172839,36.419753086419746,0)" xlink:href="#L"/><use transform="matrix(0.06172839506172839,0,0,0.06172839506172839,48.76543209876542,0)" xlink:href="#ay"/><use transform="matrix(0.06172839506172839,0,0,0.06172839506172839,64.75308641975307,0)" xlink:href="#ak"/><use transform="matrix(0.06172839506172839,0,0,0.06172839506172839,75.86419753086419,0)" xlink:href="#ac"/><use transform="matrix(0.06172839506172839,0,0,0.06172839506172839,88.20987654320987,0)" xlink:href="#an"/><use transform="matrix(0.06172839506172839,0,0,0.06172839506172839,93.08641975308642,0)" xlink:href="#aw"/><use transform="matrix(0.06172839506172839,0,0,0.06172839506172839,114.01234567901234,0)" xlink:href="#aa"/></g><g id="t"><use transform="matrix(0.06172839506172839,0,0,0.06172839506172839,0,0)" xlink:href="#ap"/><use transform="matrix(0.06172839506172839,0,0,0.06172839506172839,11.11111111111111,0)" xlink:href="#M"/><use transform="matrix(0.06172839506172839,0,0,0.06172839506172839,15.987654320987653,0)" xlink:href="#ag"/><use transform="matrix(0.06172839506172839,0,0,0.06172839506172839,28.333333333333332,0)" xlink:href="#H"/><use transform="matrix(0.06172839506172839,0,0,0.06172839506172839,40.67901234567901,0)" xlink:href="#L"/><use transform="matrix(0.06172839506172839,0,0,0.06172839506172839,53.02469135802469,0)" xlink:href="#ai"/><use transform="matrix(0.06172839506172839,0,0,0.06172839506172839,60.37037037037037,0)" xlink:href="#O"/><use transform="matrix(0.06172839506172839,0,0,0.06172839506172839,72.71604938271605,0)" xlink:href="#S"/><use transform="matrix(0.06172839506172839,0,0,0.06172839506172839,85.06172839506173,0)" xlink:href="#ai"/><use transform="matrix(0.06172839506172839,0,0,0.06172839506172839,92.40740740740742,0)" xlink:href="#ah"/><use transform="matrix(0.06172839506172839,0,0,0.06172839506172839,98.58024691358025,0)" xlink:href="#L"/><use transform="matrix(0.06172839506172839,0,0,0.06172839506172839,110.92592592592594,0)" xlink:href="#ag"/><use transform="matrix(0.06172839506172839,0,0,0.06172839506172839,123.27160493827162,0)" xlink:href="#aj"/></g><g id="u"><use transform="matrix(0.06172839506172839,0,0,0.06172839506172839,0,0)" xlink:href="#S"/><use transform="matrix(0.06172839506172839,0,0,0.06172839506172839,12.345679012345679,0)" xlink:href="#H"/><use transform="matrix(0.06172839506172839,0,0,0.06172839506172839,24.691358024691358,0)" xlink:href="#K"/><use transform="matrix(0.06172839506172839,0,0,0.06172839506172839,37.03703703703704,0)" xlink:href="#an"/><use transform="matrix(0.06172839506172839,0,0,0.06172839506172839,41.91358024691358,0)" xlink:href="#ah"/><use transform="matrix(0.06172839506172839,0,0,0.06172839506172839,48.086419753086425,0)" xlink:href="#am"/></g><g id="v"><use transform="matrix(0.06172839506172839,0,0,0.06172839506172839,0,0)" xlink:href="#H"/><use transform="matrix(0.06172839506172839,0,0,0.06172839506172839,12.345679012345679,0)" xlink:href="#L"/><use transform="matrix(0.06172839506172839,0,0,0.06172839506172839,24.691358024691358,0)" xlink:href="#am"/><use transform="matrix(0.06172839506172839,0,0,0.06172839506172839,35.80246913580247,0)" xlink:href="#M"/><use transform="matrix(0.06172839506172839,0,0,0.06172839506172839,40.67901234567901,0)" xlink:href="#O"/><use transform="matrix(0.06172839506172839,0,0,0.06172839506172839,53.02469135802469,0)" xlink:href="#ag"/><use transform="matrix(0.06172839506172839,0,0,0.06172839506172839,65.37037037037037,0)" xlink:href="#aj"/></g><path fill="#333" d="M115-194c53 0 69 39 70 98 0 66-23 100-70 100C84 3 66-7 56-30L54 0H23l1-261h32v101c10-23 28-34 59-34zm-8 174c40 0 45-34 45-75 0-40-5-75-45-74-42 0-51 32-51 76 0 43 10 73 51 73" id="az"/><path fill="#333" d="M179-190L93 31C79 59 56 82 12 73V49c39 6 53-20 64-50L1-190h34L92-34l54-156h33" id="aA"/><path fill="#333" d="M101-251c82-7 93 87 43 132L82-64C71-53 59-42 53-27h129V0H18c2-99 128-94 128-182 0-28-16-43-45-43s-46 15-49 41l-32-3c6-41 34-60 81-64" id="aB"/><path fill="#333" d="M134-131c28 9 52 24 51 62-1 50-34 73-85 73S17-19 16-69c0-36 21-54 49-61-75-25-45-126 34-121 46 3 78 18 79 63 0 33-17 51-44 57zm-34-11c31 1 46-15 46-44 0-28-17-43-47-42-29 0-46 13-45 42 1 28 16 44 46 44zm1 122c35 0 51-18 51-52 0-30-18-46-53-46-33 0-51 17-51 47 0 34 19 51 53 51" id="aC"/><g id="w"><use transform="matrix(0.06172839506172839,0,0,0.06172839506172839,0,0)" xlink:href="#I"/><use transform="matrix(0.06172839506172839,0,0,0.06172839506172839,12.345679012345679,0)" xlink:href="#M"/><use transform="matrix(0.06172839506172839,0,0,0.06172839506172839,17.22222222222222,0)" xlink:href="#ar"/><use transform="matrix(0.06172839506172839,0,0,0.06172839506172839,33.20987654320987,0)" xlink:href="#az"/><use transform="matrix(0.06172839506172839,0,0,0.06172839506172839,45.55555555555555,0)" xlink:href="#aA"/><use transform="matrix(0.06172839506172839,0,0,0.06172839506172839,56.66666666666666,0)" xlink:href="#al"/><use transform="matrix(0.06172839506172839,0,0,0.06172839506172839,67.77777777777777,0)" xlink:href="#aB"/><use transform="matrix(0.06172839506172839,0,0,0.06172839506172839,80.12345679012346,0)" xlink:href="#M"/><use transform="matrix(0.06172839506172839,0,0,0.06172839506172839,85,0)" xlink:href="#al"/><use transform="matrix(0.06172839506172839,0,0,0.06172839506172839,96.11111111111111,0)" xlink:href="#aC"/><use transform="matrix(0.06172839506172839,0,0,0.06172839506172839,108.4567901234568,0)" xlink:href="#am"/></g><g id="x"><use transform="matrix(0.06172839506172839,0,0,0.06172839506172839,0,0)" xlink:href="#ap"/><use transform="matrix(0.06172839506172839,0,0,0.06172839506172839,11.11111111111111,0)" xlink:href="#M"/><use transform="matrix(0.06172839506172839,0,0,0.06172839506172839,15.987654320987653,0)" xlink:href="#ag"/><use transform="matrix(0.06172839506172839,0,0,0.06172839506172839,28.333333333333332,0)" xlink:href="#H"/><use transform="matrix(0.06172839506172839,0,0,0.06172839506172839,40.67901234567901,0)" xlink:href="#L"/><use transform="matrix(0.06172839506172839,0,0,0.06172839506172839,53.02469135802469,0)" xlink:href="#ai"/><use transform="matrix(0.06172839506172839,0,0,0.06172839506172839,60.37037037037037,0)" xlink:href="#O"/><use transform="matrix(0.06172839506172839,0,0,0.06172839506172839,72.71604938271605,0)" xlink:href="#S"/><use transform="matrix(0.06172839506172839,0,0,0.06172839506172839,85.06172839506173,0)" xlink:href="#ai"/><use transform="matrix(0.06172839506172839,0,0,0.06172839506172839,92.40740740740742,0)" xlink:href="#ah"/><use transform="matrix(0.06172839506172839,0,0,0.06172839506172839,98.58024691358025,0)" xlink:href="#L"/><use transform="matrix(0.06172839506172839,0,0,0.06172839506172839,110.92592592592594,0)" xlink:href="#ag"/></g><g id="y"><use transform="matrix(0.06172839506172839,0,0,0.06172839506172839,0,0)" xlink:href="#L"/><use transform="matrix(0.06172839506172839,0,0,0.06172839506172839,12.345679012345679,0)" xlink:href="#ag"/><use transform="matrix(0.06172839506172839,0,0,0.06172839506172839,24.691358024691358,0)" xlink:href="#ak"/><use transform="matrix(0.06172839506172839,0,0,0.06172839506172839,35.80246913580247,0)" xlink:href="#an"/><use transform="matrix(0.06172839506172839,0,0,0.06172839506172839,40.67901234567901,0)" xlink:href="#Q"/><use transform="matrix(0.06172839506172839,0,0,0.06172839506172839,53.02469135802469,0)" xlink:href="#am"/><use transform="matrix(0.06172839506172839,0,0,0.06172839506172839,64.1358024691358,0)" xlink:href="#L"/><use transform="matrix(0.06172839506172839,0,0,0.06172839506172839,76.48148148148148,0)" xlink:href="#H"/><use transform="matrix(0.06172839506172839,0,0,0.06172839506172839,88.82716049382717,0)" xlink:href="#aj"/></g><path fill="#333" d="M106-169C34-169 62-67 57 0H25v-261h32l-1 103c12-21 28-36 61-36 89 0 53 116 60 194h-32v-121c2-32-8-49-39-48" id="aD"/><g id="z"><use transform="matrix(0.06172839506172839,0,0,0.06172839506172839,0,0)" xlink:href="#am"/><use transform="matrix(0.06172839506172839,0,0,0.06172839506172839,11.11111111111111,0)" xlink:href="#ak"/><use transform="matrix(0.06172839506172839,0,0,0.06172839506172839,22.22222222222222,0)" xlink:href="#aD"/><use transform="matrix(0.06172839506172839,0,0,0.06172839506172839,34.5679012345679,0)" xlink:href="#Q"/><use transform="matrix(0.06172839506172839,0,0,0.06172839506172839,46.913580246913575,0)" xlink:href="#Q"/><use transform="matrix(0.06172839506172839,0,0,0.06172839506172839,59.25925925925925,0)" xlink:href="#an"/></g><use transform="matrix(0.03703703703703702,0,0,0.03703703703703702,0,0)" xlink:href="#ao" id="A"/><g id="B"><use transform="matrix(0.03703703703703702,0,0,0.03703703703703702,0,0)" xlink:href="#ak"/><use transform="matrix(0.03703703703703702,0,0,0.03703703703703702,6.666666666666663,0)" xlink:href="#K"/><use transform="matrix(0.03703703703703702,0,0,0.03703703703703702,14.074074074074067,0)" xlink:href="#ai"/><use transform="matrix(0.03703703703703702,0,0,0.03703703703703702,18.481481481481474,0)" xlink:href="#al"/><use transform="matrix(0.03703703703703702,0,0,0.03703703703703702,25.148148148148138,0)" xlink:href="#L"/><use transform="matrix(0.03703703703703702,0,0,0.03703703703703702,32.55555555555554,0)" xlink:href="#H"/></g><g id="C"><use transform="matrix(0.03703703703703702,0,0,0.03703703703703702,0,0)" xlink:href="#ay"/><use transform="matrix(0.03703703703703702,0,0,0.03703703703703702,9.592592592592588,0)" xlink:href="#S"/><use transform="matrix(0.03703703703703702,0,0,0.03703703703703702,16.999999999999993,0)" xlink:href="#an"/><use transform="matrix(0.03703703703703702,0,0,0.03703703703703702,19.925925925925917,0)" xlink:href="#an"/><use transform="matrix(0.03703703703703702,0,0,0.03703703703703702,22.85185185185184,0)" xlink:href="#am"/></g><g id="D"><use transform="matrix(0.04938271604938272,0,0,0.04938271604938272,0,0)" xlink:href="#at"/><use transform="matrix(0.04938271604938272,0,0,0.04938271604938272,8.88888888888889,0)" xlink:href="#Q"/><use transform="matrix(0.04938271604938272,0,0,0.04938271604938272,18.765432098765434,0)" xlink:href="#Q"/><use transform="matrix(0.04938271604938272,0,0,0.04938271604938272,28.641975308641978,0)" xlink:href="#X"/></g><g id="E"><use transform="matrix(0.04938271604938272,0,0,0.04938271604938272,0,0)" xlink:href="#Q"/><use transform="matrix(0.04938271604938272,0,0,0.04938271604938272,9.876543209876544,0)" xlink:href="#K"/><use transform="matrix(0.04938271604938272,0,0,0.04938271604938272,19.75308641975309,0)" xlink:href="#ah"/></g><g id="F"><use transform="matrix(0.04938271604938272,0,0,0.04938271604938272,0,0)" xlink:href="#al"/><use transform="matrix(0.04938271604938272,0,0,0.04938271604938272,8.88888888888889,0)" xlink:href="#S"/><use transform="matrix(0.04938271604938272,0,0,0.04938271604938272,18.765432098765434,0)" xlink:href="#ai"/><use transform="matrix(0.04938271604938272,0,0,0.04938271604938272,24.641975308641978,0)" xlink:href="#aA"/></g><g id="G"><use transform="matrix(0.04938271604938272,0,0,0.04938271604938272,0,0)" xlink:href="#am"/><use transform="matrix(0.04938271604938272,0,0,0.04938271604938272,8.88888888888889,0)" xlink:href="#K"/><use transform="matrix(0.04938271604938272,0,0,0.04938271604938272,18.765432098765434,0)" xlink:href="#az"/><use transform="matrix(0.04938271604938272,0,0,0.04938271604938272,28.641975308641978,0)" xlink:href="#ah"/><use transform="matrix(0.04938271604938272,0,0,0.04938271604938272,33.580246913580254,0)" xlink:href="#an"/><use transform="matrix(0.04938271604938272,0,0,0.04938271604938272,37.48148148148149,0)" xlink:href="#L"/></g></defs></g></svg>