<svg xmlns="http://www.w3.org/2000/svg" xmlns:xlink="http://www.w3.org/1999/xlink" xmlns:lucid="lucid" width="2616" height="854"><g transform="translate(5261 2272)" lucid:page-tab-id="mv_GDh85LMSB"><path d="M-5420.6-3776.5h9098.33v5099.34H-5420.6z" fill="#fff"/><path d="M-5200-2214a6 6 0 0 1 6-6h1766.28a6 6 0 0 1 6 6v748.1a6 6 0 0 1-6 6H-5194a6 6 0 0 1-6-6z" fill="#fff0f0"/><use xlink:href="#a" transform="matrix(1,0,0,1,-5195,-2215) translate(884.5 15.999999999999993)"/><use xlink:href="#a" transform="matrix(1,0,0,1,-5195,-2215) translate(884.5 39.999999999999986)"/><use xlink:href="#b" transform="matrix(1,0,0,1,-5195,-2215) translate(765.9753086419753 71.11111111111109)"/><use xlink:href="#c" transform="matrix(1,0,0,1,-5195,-2215) translate(892.4444444444445 71.11111111111109)"/><path d="M-4636.2-1954.22a6 6 0 0 1 6-6h215.65a6 6 0 0 1 6 6v30.88a6 6 0 0 1-6 6h-215.65a6 6 0 0 1-6-6z" stroke="#fe7070" stroke-width="3" fill="#f2f3f5"/><use xlink:href="#d" transform="matrix(1,0,0,1,-4631.197403049954,-1955.2244615769346) translate(44 25.17361111111111)"/><path d="M-4416.7-1716.44a6 6 0 0 1 6-6h102a6 6 0 0 1 6 6v80.5a6 6 0 0 1-6 6h-102a6 6 0 0 1-6-6zM-4116.7-2059a6 6 0 0 1 6-6h102a6 6 0 0 1 6 6v80.5a6 6 0 0 1-6 6h-102a6 6 0 0 1-6-6z" stroke="#fc9432" stroke-width="3" fill="#fff"/><path d="M-4296.7-2018.8a6 6 0 0 1 6-6h102a6 6 0 0 1 6 6v80.52a6 6 0 0 1-6 6h-102a6 6 0 0 1-6-6z" stroke="#fc9432" stroke-width="3" fill="#dfe3e8"/><path d="M-3808.8-1986.66a6 6 0 0 1 6-6h102a6 6 0 0 1 6 6v80.5a6 6 0 0 1-6 6h-102a6 6 0 0 1-6-6z" stroke="#fc9432" stroke-width="3" fill="#ffd9d9"/><path d="M-4256.7-1716.44a6 6 0 0 1 6-6h102a6 6 0 0 1 6 6v80.5a6 6 0 0 1-6 6h-102a6 6 0 0 1-6-6z" stroke="#fc9432" stroke-width="3" fill="#fff"/><path d="M-4120-1543.9a6 6 0 0 1 6-6h319.6a6 6 0 0 1 6 6v78a6 6 0 0 1-6 6H-4114a6 6 0 0 1-6-6z" stroke="#000" stroke-opacity="0" stroke-width="3" fill="#fff" fill-opacity="0"/><use xlink:href="#e" transform="matrix(1,0,0,1,-4115,-1544.89519476848) translate(10.3055555555556 46.66666666666666)"/><use xlink:href="#f" transform="matrix(1,0,0,1,-4115,-1544.89519476848) translate(117.62037037037037 46.66666666666666)"/><path d="M-4887.85-1959.6l37.9.73 27.27 1.7 23.47 2.46 96.07 13.48 27.27 1.7 37.9.73" stroke="#5e5e5e" stroke-width=".5" stroke-linejoin="round" fill="none"/><path d="M-4887.84-1959.85v.5h-.27v-.5zM-4637.7-1939.03v.5h-.25v-.5z" stroke="#5e5e5e" stroke-width=".05" fill="#5e5e5e"/><path d="M-4923.36-1889.04l22.85-.46 18.95-1.18 16.18-1.7 14.4-2.1 13.37-2.56 13.2-3.1 14.52-4.07 72.97-23.47 13.2-3.1 13.37-2.55 14.4-2.12 16.17-1.7 18.96-1.17 22.85-.48" stroke="#5e5e5e" stroke-width=".5" stroke-linejoin="round" fill="none"/><path d="M-4923.35-1888.8l-.26.02v-.5h.24zM-4637.7-1938.53h-.25v-.5h.25z" stroke="#5e5e5e" stroke-width=".05" fill="#5e5e5e"/><path d="M-4887.85-1789.46l10.62-.22 9.75-.6 8.87-.94 8.15-1.2 7.6-1.45 7.18-1.7 6.87-1.9 6.65-2.16 6.57-2.44 6.6-2.78 6.82-3.2 7.35-3.86 8.53-4.95 12.48-7.96 34.27-22.7 8.53-4.94 7.35-3.84 6.83-3.22 6.6-2.77 6.56-2.44 6.66-2.18 6.86-1.9 7.18-1.7 7.6-1.44 8.16-1.2 8.87-.94 9.75-.6 10.63-.22" stroke="#5e5e5e" stroke-width=".5" stroke-linejoin="round" fill="none"/><path d="M-4887.84-1789.2h-.27v-.5h.25zM-4637.7-1874.64h-.25v-.5h.25z" stroke="#5e5e5e" stroke-width=".05" fill="#5e5e5e"/><path d="M-4852.35-1720.73l3-.07 3.16-.2 3.05-.3 2.96-.45 2.9-.55 2.85-.67 2.8-.78 2.76-.9 2.77-1.02 2.74-1.16 2.77-1.3 2.77-1.45 2.8-1.62 2.86-1.8 2.9-2.03 3-2.28 3.1-2.57 3.23-2.9 3.4-3.33 3.58-3.83 3.86-4.46 4.2-5.3 4.65-6.4 5.37-8.1 6.53-10.8 9.27-16.95 37.22-72.55 6.53-10.82 5.35-8.08 4.67-6.42 4.2-5.3 3.84-4.46 3.58-3.83 3.4-3.33 3.2-2.9 3.1-2.57 3-2.28 2.92-2.02 2.85-1.8 2.8-1.63 2.78-1.45 2.76-1.3 2.73-1.15 2.75-1.03 2.77-.9 2.8-.78 2.84-.67 2.9-.56 2.95-.44 3.04-.32 3.14-.2 3-.06" stroke="#5e5e5e" stroke-width=".5" stroke-linejoin="round" fill="none"/><path d="M-4852.34-1720.48h-.26v-.5h.25zM-4637.7-1938.53h-.25v-.5h.25z" stroke="#5e5e5e" stroke-width=".05" fill="#5e5e5e"/><path d="M-4889.6-1731.77a6 6 0 0 1 6-6h23.5a6 6 0 0 1 6 6v22.1a6 6 0 0 1-6 6h-23.5a6 6 0 0 1-6-6z" stroke="#fe7070" stroke-width="3" fill="#fff"/><path d="M-4925.1-1800.5a6 6 0 0 1 6-6h23.5a6 6 0 0 1 6 6v22.1a6 6 0 0 1-6 6h-23.5a6 6 0 0 1-6-6z" stroke="#fc9432" stroke-width="3" fill="#fff"/><path d="M-4960.62-1900.08a6 6 0 0 1 6-6h23.5a6 6 0 0 1 6 6v22.1a6 6 0 0 1-6 6h-23.5a6 6 0 0 1-6-6zM-4925.1-1970.4a6 6 0 0 1 6-6h23.5a6 6 0 0 1 6 6v22.1a6 6 0 0 1-6 6h-23.5a6 6 0 0 1-6-6z" stroke="#fe7070" stroke-width="3" fill="#fff"/><path d="M-4180.95-1977.54l2.45-.1 2.46-.3 2.27-.44 2.14-.6 2.07-.78 2.03-.95 2.05-1.17 2.12-1.45 2.3-1.83 2.64-2.5 3.55-3.93 13.9-17.05 2.63-2.5 2.3-1.83 2.12-1.44 2.05-1.16 2.03-.95 2.07-.78 2.14-.6 2.27-.46 2.45-.3 2.45-.1" stroke="#fc9432" stroke-width=".5" stroke-linejoin="round" fill="none"/><path d="M-4180.94-1977.3l-.27.02v-.5h.24zM-4118.2-2018.5h-.24v-.5h.24z" stroke="#fc9432" stroke-width=".05" fill="#fc9432"/><path d="M-4300.95-1676.18h42.5" stroke="#5e5e5e" stroke-width=".5" stroke-linejoin="round" fill="none"/><path d="M-4300.95-1675.93h-.26v-.5h.25zM-4258.2-1675.93h-.25v-.5h.25z" stroke="#5e5e5e" stroke-width=".05" fill="#5e5e5e"/><path d="M-3887.3-1899.67l2.7-.1 2.7-.25 2.5-.4 2.34-.55 2.24-.67 2.17-.8 2.13-.96 2.14-1.13 2.18-1.34 2.28-1.62 2.5-2 2.85-2.64 3.84-4.05 15.46-17.73 2.87-2.65 2.48-2 2.28-1.62 2.18-1.34 2.14-1.13 2.14-.95 2.17-.8 2.23-.68 2.34-.54 2.5-.4 2.7-.27 2.7-.1" stroke="#5e5e5e" stroke-width=".5" stroke-linejoin="round" fill="none"/><path d="M-3887.28-1899.42h-.27v-.5h.25zM-3810.3-1946.15h-.25v-.5h.26z" stroke="#5e5e5e" stroke-width=".05" fill="#5e5e5e"/><path d="M-4418.45-1676.2l-2.3-.04-2.38-.18-2.27-.28-2.16-.37-2.1-.47-2-.55-2-.64-1.93-.74-1.92-.85-1.92-.96-1.93-1.08-1.97-1.24-2.02-1.4-2.1-1.63-2.22-1.9-2.4-2.27-2.67-2.78-3.15-3.62-4.24-5.38-18.86-25.82-3.15-3.62-2.68-2.78-2.4-2.27-2.2-1.88-2.1-1.63-2.03-1.42-1.97-1.24-1.94-1.1-1.92-.95-1.9-.86-1.95-.74-1.98-.65-2.02-.55-2.1-.47-2.16-.37-2.27-.28-2.4-.17-2.28-.05" stroke="#5e5e5e" stroke-width=".5" stroke-linejoin="round" fill="none"/><path d="M-4418.2-1676.43v.5h-.26v-.5zM-4520.45-1749.7v.5h-.26v-.5z" stroke="#5e5e5e" stroke-width=".05" fill="#5e5e5e"/><path d="M-4636.2-1789.7a6 6 0 0 1 6-6h102a6 6 0 0 1 6 6v80.5a6 6 0 0 1-6 6h-102a6 6 0 0 1-6-6z" stroke="#fc9432" stroke-width="3" fill="#dfe3e8"/><path d="M-3788.4-1543.9a6 6 0 0 1 6-6h297.7a6 6 0 0 1 6 6v78a6 6 0 0 1-6 6h-297.7a6 6 0 0 1-6-6z" stroke="#000" stroke-opacity="0" stroke-width="3" fill="#fff" fill-opacity="0"/><use xlink:href="#g" transform="matrix(1,0,0,1,-3783.3953494940665,-1544.89519476848) translate(5.833333333333371 46.66666666666666)"/><use xlink:href="#h" transform="matrix(1,0,0,1,-3783.3953494940665,-1544.89519476848) translate(100.0925925925926 46.66666666666666)"/><path d="M-5063.2-1642.3a6 6 0 0 1 6-6h329.97a6 6 0 0 1 6 6v90.27a6 6 0 0 1-6 6h-329.98a6 6 0 0 1-6-6z" fill="none"/><use xlink:href="#i" transform="matrix(1,0,0,1,-5063.209301011865,-1648.29034827083) translate(138.6851851851852 58.166666666666664)"/><path d="M-5057.2-1656.98a6 6 0 0 1-6-6v-328.88a6 6 0 0 1 6-6h90.58a6 6 0 0 1 6 6v328.88a6 6 0 0 1-6 6z" fill="none"/><use xlink:href="#j" transform="matrix(6.123233995736766e-17,-1,1,6.123233995736766e-17,-5063.209301011864,-1656.977525390991) translate(82.26851851851856 57.27777777777777)"/><use xlink:href="#k" transform="matrix(6.123233995736766e-17,-1,1,6.123233995736766e-17,-5063.209301011864,-1656.977525390991) translate(184.98456790123458 57.27777777777777)"/><path d="M-3424.17-2213.86a6 6 0 0 1 6-6H-3066a6 6 0 0 1 6 6v747.97a6 6 0 0 1-6 6h-352.17a6 6 0 0 1-6-6z" fill="#fff3d9"/><use xlink:href="#l" transform="matrix(1,0,0,1,-3419.1742927230853,-2214.86453944741) translate(177.5 17.77777777777778)"/><use xlink:href="#l" transform="matrix(1,0,0,1,-3419.1742927230853,-2214.86453944741) translate(177.5 44.44444444444444)"/><use xlink:href="#m" transform="matrix(1,0,0,1,-3419.1742927230853,-2214.86453944741) translate(90.58641975308643 71.11111111111111)"/><use xlink:href="#n" transform="matrix(1,0,0,1,-3419.1742927230853,-2214.86453944741) translate(179.35185185185185 71.11111111111111)"/><path d="M-3358.54-1726.5a6 6 0 0 1 6-6h218.22a6 6 0 0 1 6 6v56.92a6 6 0 0 1-6 6h-218.22a6 6 0 0 1-6-6z" fill="none"/><use xlink:href="#o" transform="matrix(1,0,0,1,-3358.543124982093,-1732.4946807732802) translate(25.59259259259258 38.94444444444444)"/><use xlink:href="#p" transform="matrix(1,0,0,1,-3358.543124982093,-1732.4946807732802) translate(140.03703703703704 38.94444444444444)"/><path d="M-3358.54-1925a6 6 0 0 1 6-6h64.74a6 6 0 0 1 6 6v125.84a6 6 0 0 1-6 6h-64.74a6 6 0 0 1-6-6z" stroke="#5e5e5e" stroke-width="3" fill="#f2f3f5"/><path d="M-3281.8-1889.66a6 6 0 0 1 6-6h64.74a6 6 0 0 1 6 6v90.5a6 6 0 0 1-6 6h-64.74a6 6 0 0 1-6-6z" stroke="#5e5e5e" stroke-width="3" fill="#dfe3e8"/><path d="M-3326.8-1812.53a3.6 3.6 0 0 1 3.6-3.6 3.6 3.6 0 0 1 3.6 3.6v15.76a3.6 3.6 0 0 1-3.6 3.6 3.6 3.6 0 0 1-3.6-3.6zM-3266.46-1810.14a6 6 0 0 1 6-6h11.9a6 6 0 0 1 6 6v10.98a6 6 0 0 1-6 6h-11.9a6 6 0 0 1-6-6z" stroke="#5e5e5e" stroke-width="3" fill="#fff"/><path d="M-3319.6-1812.53a3.6 3.6 0 0 1 3.62-3.6 3.6 3.6 0 0 1 3.6 3.6v15.76a3.6 3.6 0 0 1-3.6 3.6 3.6 3.6 0 0 1-3.6-3.6zM-3349.82-1838.74a4.4 4.4 0 0 1 4.4-4.4h1.3a4.4 4.4 0 0 1 4.4 4.4 4.4 4.4 0 0 1-4.4 4.4h-1.3a4.4 4.4 0 0 1-4.4-4.4zM-3326.8-1838.74a4.4 4.4 0 0 1 4.4-4.4h1.3a4.4 4.4 0 0 1 4.4 4.4 4.4 4.4 0 0 1-4.4 4.4h-1.3a4.4 4.4 0 0 1-4.4-4.4zM-3300.63-1839.48a4.4 4.4 0 0 1 4.4-4.4h1.3a4.4 4.4 0 0 1 4.4 4.4 4.4 4.4 0 0 1-4.4 4.4h-1.3a4.4 4.4 0 0 1-4.4-4.4zM-3267.34-1830.23a4.83 4.83 0 0 1 4.84-4.84h14.23a4.83 4.83 0 0 1 4.84 4.84 4.83 4.83 0 0 1-4.84 4.83h-14.23a4.83 4.83 0 0 1-4.84-4.83zM-3349.82-1909.88a4.4 4.4 0 0 1 4.4-4.4h1.3a4.4 4.4 0 0 1 4.4 4.4 4.4 4.4 0 0 1-4.4 4.4h-1.3a4.4 4.4 0 0 1-4.4-4.4zM-3326.8-1909.88a4.4 4.4 0 0 1 4.4-4.4h1.3a4.4 4.4 0 0 1 4.4 4.4 4.4 4.4 0 0 1-4.4 4.4h-1.3a4.4 4.4 0 0 1-4.4-4.4zM-3300.63-1910.62a4.4 4.4 0 0 1 4.4-4.4h1.3a4.4 4.4 0 0 1 4.4 4.4 4.4 4.4 0 0 1-4.4 4.4h-1.3a4.4 4.4 0 0 1-4.4-4.4zM-3349.82-1861.7a4.4 4.4 0 0 1 4.4-4.42h1.3a4.4 4.4 0 0 1 4.4 4.4 4.4 4.4 0 0 1-4.4 4.42h-1.3a4.4 4.4 0 0 1-4.4-4.4zM-3326.8-1861.7a4.4 4.4 0 0 1 4.4-4.42h1.3a4.4 4.4 0 0 1 4.4 4.4 4.4 4.4 0 0 1-4.4 4.42h-1.3a4.4 4.4 0 0 1-4.4-4.4zM-3300.63-1862.45a4.4 4.4 0 0 1 4.4-4.4h1.3a4.4 4.4 0 0 1 4.4 4.4 4.4 4.4 0 0 1-4.4 4.4h-1.3a4.4 4.4 0 0 1-4.4-4.4zM-3349.82-1885.42a4.4 4.4 0 0 1 4.4-4.4h1.3a4.4 4.4 0 0 1 4.4 4.4 4.4 4.4 0 0 1-4.4 4.4h-1.3a4.4 4.4 0 0 1-4.4-4.4zM-3326.8-1885.42a4.4 4.4 0 0 1 4.4-4.4h1.3a4.4 4.4 0 0 1 4.4 4.4 4.4 4.4 0 0 1-4.4 4.4h-1.3a4.4 4.4 0 0 1-4.4-4.4zM-3300.63-1886.16a4.4 4.4 0 0 1 4.4-4.4h1.3a4.4 4.4 0 0 1 4.4 4.4 4.4 4.4 0 0 1-4.4 4.4h-1.3a4.4 4.4 0 0 1-4.4-4.4z" stroke="#5e5e5e" stroke-width="3" fill="#fff"/><path d="M-3243.43-1830.23a4.83 4.83 0 0 1 4.83-4.84h14.23a4.83 4.83 0 0 1 4.84 4.84 4.83 4.83 0 0 1-4.84 4.83h-14.23a4.83 4.83 0 0 1-4.83-4.83zM-3267.34-1876.18a4.83 4.83 0 0 1 4.84-4.83h14.23a4.83 4.83 0 0 1 4.84 4.82 4.83 4.83 0 0 1-4.84 4.84h-14.23a4.83 4.83 0 0 1-4.84-4.84z" stroke="#5e5e5e" stroke-width="3" fill="#fff"/><path d="M-3243.43-1876.18a4.83 4.83 0 0 1 4.83-4.83h14.23a4.83 4.83 0 0 1 4.84 4.82 4.83 4.83 0 0 1-4.84 4.84h-14.23a4.83 4.83 0 0 1-4.83-4.84zM-3267.34-1853.2a4.83 4.83 0 0 1 4.84-4.84h14.23a4.83 4.83 0 0 1 4.84 4.83 4.83 4.83 0 0 1-4.84 4.83h-14.23a4.83 4.83 0 0 1-4.84-4.84z" stroke="#5e5e5e" stroke-width="3" fill="#fff"/><path d="M-3243.43-1853.2a4.83 4.83 0 0 1 4.83-4.84h14.23a4.83 4.83 0 0 1 4.84 4.83 4.83 4.83 0 0 1-4.84 4.83h-14.23a4.83 4.83 0 0 1-4.83-4.84z" stroke="#5e5e5e" stroke-width="3" fill="#fff"/><path d="M-3205.07-1924.62a6 6 0 0 1 6-6h64.75a6 6 0 0 1 6 6v125.82a6 6 0 0 1-6 6h-64.74a6 6 0 0 1-6-6z" stroke="#5e5e5e" stroke-width="3" fill="#f2f3f5"/><path d="M-3173.32-1812.16a3.6 3.6 0 0 1 3.6-3.6 3.6 3.6 0 0 1 3.6 3.6v15.76a3.6 3.6 0 0 1-3.6 3.6 3.6 3.6 0 0 1-3.6-3.6zM-3166.1-1812.16a3.6 3.6 0 0 1 3.6-3.6 3.6 3.6 0 0 1 3.6 3.6v15.76a3.6 3.6 0 0 1-3.6 3.6 3.6 3.6 0 0 1-3.6-3.6zM-3196.34-1838.37a4.4 4.4 0 0 1 4.4-4.4h1.3a4.4 4.4 0 0 1 4.4 4.4 4.4 4.4 0 0 1-4.4 4.4h-1.3a4.4 4.4 0 0 1-4.4-4.4zM-3173.32-1838.37a4.4 4.4 0 0 1 4.4-4.4h1.3a4.4 4.4 0 0 1 4.4 4.4 4.4 4.4 0 0 1-4.4 4.4h-1.3a4.4 4.4 0 0 1-4.4-4.4zM-3147.15-1839.1a4.4 4.4 0 0 1 4.4-4.42h1.3a4.4 4.4 0 0 1 4.4 4.4 4.4 4.4 0 0 1-4.4 4.42h-1.3a4.4 4.4 0 0 1-4.4-4.4zM-3196.34-1909.5a4.4 4.4 0 0 1 4.4-4.42h1.3a4.4 4.4 0 0 1 4.4 4.4 4.4 4.4 0 0 1-4.4 4.42h-1.3a4.4 4.4 0 0 1-4.4-4.4zM-3173.32-1909.5a4.4 4.4 0 0 1 4.4-4.42h1.3a4.4 4.4 0 0 1 4.4 4.4 4.4 4.4 0 0 1-4.4 4.42h-1.3a4.4 4.4 0 0 1-4.4-4.4zM-3147.15-1910.25a4.4 4.4 0 0 1 4.4-4.4h1.3a4.4 4.4 0 0 1 4.4 4.4 4.4 4.4 0 0 1-4.4 4.4h-1.3a4.4 4.4 0 0 1-4.4-4.4zM-3196.34-1861.34a4.4 4.4 0 0 1 4.4-4.4h1.3a4.4 4.4 0 0 1 4.4 4.4 4.4 4.4 0 0 1-4.4 4.4h-1.3a4.4 4.4 0 0 1-4.4-4.4zM-3173.32-1861.34a4.4 4.4 0 0 1 4.4-4.4h1.3a4.4 4.4 0 0 1 4.4 4.4 4.4 4.4 0 0 1-4.4 4.4h-1.3a4.4 4.4 0 0 1-4.4-4.4zM-3147.15-1862.08a4.4 4.4 0 0 1 4.4-4.4h1.3a4.4 4.4 0 0 1 4.4 4.4 4.4 4.4 0 0 1-4.4 4.4h-1.3a4.4 4.4 0 0 1-4.4-4.4zM-3196.34-1885.05a4.4 4.4 0 0 1 4.4-4.4h1.3a4.4 4.4 0 0 1 4.4 4.4 4.4 4.4 0 0 1-4.4 4.4h-1.3a4.4 4.4 0 0 1-4.4-4.4zM-3173.32-1885.05a4.4 4.4 0 0 1 4.4-4.4h1.3a4.4 4.4 0 0 1 4.4 4.4 4.4 4.4 0 0 1-4.4 4.4h-1.3a4.4 4.4 0 0 1-4.4-4.4zM-3147.15-1885.8a4.4 4.4 0 0 1 4.4-4.4h1.3a4.4 4.4 0 0 1 4.4 4.4 4.4 4.4 0 0 1-4.4 4.42h-1.3a4.4 4.4 0 0 1-4.4-4.4z" stroke="#5e5e5e" stroke-width="3" fill="#fff"/><path d="M-3693.04-1946.4l18.88.4 16.6 1.02 14.67 1.54 13.27 1.95 12.22 2.34 11.5 2.7 11.12 3.1 11.1 3.6 11.57 4.32 13.15 5.55 19.98 9.47 44.57 21.84 13.17 5.56 11.58 4.3 11.1 3.6 11.1 3.1 11.52 2.7 12.22 2.34 13.25 1.96 14.68 1.53 16.6 1.03 18.88.38" stroke="#5e5e5e" stroke-width=".5" stroke-linejoin="round" fill="none"/><path d="M-3693.03-1946.65v.5h-.27v-.5zM-3360.04-1862.33v.5h-.26v-.5z" stroke="#5e5e5e" stroke-width=".05" fill="#5e5e5e"/><path d="M-3060-2213.86a6 6 0 0 1 6-6h348a6 6 0 0 1 6 6v747.97a6 6 0 0 1-6 6h-348a6 6 0 0 1-6-6z" fill="#f7f4e4"/><use xlink:href="#l" transform="matrix(1,0,0,1,-3055,-2214.86453944741) translate(175.5 17.77777777777778)"/><use xlink:href="#l" transform="matrix(1,0,0,1,-3055,-2214.86453944741) translate(175.5 44.44444444444444)"/><use xlink:href="#q" transform="matrix(1,0,0,1,-3055,-2214.86453944741) translate(98.8641975308642 71.11111111111111)"/><use xlink:href="#n" transform="matrix(1,0,0,1,-3055,-2214.86453944741) translate(167.07407407407408 71.11111111111111)"/><path d="M-2958.7-1936.3a6 6 0 0 1 6-6h165.4a6 6 0 0 1 6 6v138.66a6 6 0 0 1-6 6h-165.4a6 6 0 0 1-6-6z" stroke="#5e5e5e" stroke-width="3" fill="#f2f3f5"/><use xlink:href="#r" transform="matrix(1,0,0,1,-2953.6932831354743,-1937.3042106998937) translate(7.611111111111114 22.18402777777778)"/><use xlink:href="#s" transform="matrix(1,0,0,1,-2953.6932831354743,-1937.3042106998937) translate(40.75925925925927 22.18402777777778)"/><use xlink:href="#t" transform="matrix(1,0,0,1,-2953.6932831354743,-1937.3042106998937) translate(65.45061728395062 22.18402777777778)"/><use xlink:href="#u" transform="matrix(1,0,0,1,-2953.6932831354743,-1937.3042106998937) translate(84 48.85069444444444)"/><use xlink:href="#v" transform="matrix(1,0,0,1,-2953.6932831354743,-1937.3042106998937) translate(17.425925925925924 75.51736111111111)"/><use xlink:href="#u" transform="matrix(1,0,0,1,-2953.6932831354743,-1937.3042106998937) translate(84 102.18402777777777)"/><use xlink:href="#w" transform="matrix(1,0,0,1,-2953.6932831354743,-1937.3042106998937) translate(51.31481481481482 128.85069444444446)"/><path d="M-2995.6-1726.27a6 6 0 0 1 6-6h219.2a6 6 0 0 1 6 6v57.3a6 6 0 0 1-6 6h-219.2a6 6 0 0 1-6-6z" fill="none"/><use xlink:href="#x" transform="matrix(1,0,0,1,-2995.6042682508537,-1732.2738513821787) translate(56.86419753086419 39.44444444444444)"/><path d="M-3126.57-1820.12l8.42-.17 7.62-.47 6.8-.7 6.2-.92 5.72-1.08 5.38-1.26 5.16-1.45 5.07-1.63 5.14-1.9 5.42-2.3 6.2-2.92 9.24-4.86 22.6-12.33 6.22-2.93 5.42-2.28 5.13-1.9 5.07-1.65 5.17-1.44 5.4-1.26 5.7-1.1 6.2-.9 6.8-.72 7.63-.47 8.43-.16" stroke="#5e5e5e" stroke-width=".5" stroke-linejoin="round" fill="none"/><path d="M-3126.56-1819.87h-.27v-.5h.26zM-2960.2-1866.72h-.25v-.5h.26z" stroke="#5e5e5e" stroke-width=".05" fill="#5e5e5e"/><path d="M-4416.7-1803.4a6 6 0 0 1 6-6h215.65a6 6 0 0 1 6 6v30.9a6 6 0 0 1-6 6h-215.65a6 6 0 0 1-6-6z" stroke="#fe7070" stroke-width="3" fill="#f2f3f5"/><use xlink:href="#y" transform="matrix(1,0,0,1,-4411.697938581112,-1804.386395748812) translate(65.66666666666667 25.17361111111111)"/><path d="M-4636.2-1890.33a6 6 0 0 1 6-6h215.65a6 6 0 0 1 6 6v30.88a6 6 0 0 1-6 6h-215.65a6 6 0 0 1-6-6z" stroke="#fe7070" stroke-width="3" fill="#f2f3f5"/><use xlink:href="#y" transform="matrix(1,0,0,1,-4631.197403049954,-1891.3331210261324) translate(65.66666666666667 25.17361111111111)"/><path d="M-4116.7-1930.4a6 6 0 0 1 6-6h215.65a6 6 0 0 1 6 6v61.46a6 6 0 0 1-6 6h-215.65a6 6 0 0 1-6-6z" stroke="#fe7070" stroke-width="3" fill="#f2f3f5"/><use xlink:href="#z" transform="matrix(1,0,0,1,-4111.697938581112,-1931.3927744597856) translate(44 27.11111111111111)"/><use xlink:href="#A" transform="matrix(1,0,0,1,-4111.697938581112,-1931.3927744597856) translate(72.88888888888889 61.77777777777777)"/><path d="M-4923.36-1889.03l65.3 1.23 45.92 2.9 108.9 8.78 65.3 1.22" stroke="#5e5e5e" stroke-width=".5" stroke-linejoin="round" fill="none"/><path d="M-4923.35-1889.28v.5h-.26v-.5zM-4637.7-1875.14v.5h-.25v-.5z" stroke="#5e5e5e" stroke-width=".05" fill="#5e5e5e"/><path d="M-4406.8-1938.8l4.6-.1 4.32-.3 3.93-.44 3.63-.6 3.38-.7 3.2-.82 3.06-.94 3-1.08 2.97-1.22 3.02-1.42 3.2-1.67 3.55-2.07 4.5-2.92 20.12-14.05 3.54-2.08 3.2-1.67 3.02-1.4 2.98-1.24 3-1.07 3.06-.96 3.2-.82 3.38-.7 3.62-.6 3.94-.45 4.32-.3 4.6-.1" stroke="#5e5e5e" stroke-width=".5" stroke-linejoin="round" fill="none"/><path d="M-4406.78-1938.54h-.27v-.5h.26zM-4298.2-1978.3h-.25v-.5h.25z" stroke="#5e5e5e" stroke-width=".05" fill="#5e5e5e"/><path d="M-4852.35-1720.73l21.68-.44 17.17-1.06 14.36-1.5 12.9-1.9 12.82-2.46 16.74-3.95 39.8-10.05 12.82-2.45 12.9-1.9 14.36-1.5 17.17-1.07 21.68-.43" stroke="#5e5e5e" stroke-width=".5" stroke-linejoin="round" fill="none"/><path d="M-4852.34-1720.48h-.26v-.5h.25zM-4637.7-1749.2h-.25v-.5h.25z" stroke="#5e5e5e" stroke-width=".05" fill="#5e5e5e"/><path d="M-4520.45-1749.46l4.44-.1 4.18-.3 3.8-.48 3.5-.6 3.27-.73 3.1-.85 2.97-.98 2.93-1.12 2.92-1.3 3.02-1.5 3.25-1.83 3.8-2.4 5.86-4.1 13.74-10 3.8-2.4 3.26-1.83 3.02-1.5 2.93-1.3 2.92-1.12 2.98-.98 3.1-.85 3.26-.73 3.5-.6 3.8-.47 4.2-.3 4.45-.1" stroke="#5e5e5e" stroke-width=".5" stroke-linejoin="round" fill="none"/><path d="M-4520.44-1749.2h-.27v-.5h.25zM-4418.2-1787.7h-.25v-.5h.25z" stroke="#5e5e5e" stroke-width=".05" fill="#5e5e5e"/><path d="M-4180.95-1978.53l.9.03 1.14.1 1.07.18 1.07.24 1.05.3 1.03.4 1.05.45 1.06.55 1.1.65 1.12.78 1.18.92 1.26 1.12 1.34 1.36 1.48 1.7 1.64 2.17 1.9 2.86 2.33 4.02 3.17 6.45 15.84 36.7 2.33 4.03 1.9 2.87 1.65 2.17 1.47 1.7 1.35 1.36 1.25 1.12 1.18.93 1.13.78 1.1.65 1.06.55 1.05.46 1.04.37 1.06.3 1.06.25 1.1.17 1.1.1.93.03" stroke="#5e5e5e" stroke-width=".5" stroke-linejoin="round" fill="none"/><path d="M-4180.94-1978.78l-.02.5h-.25v-.5zM-4118.2-1899.92v.5h-.24v-.5z" stroke="#5e5e5e" stroke-width=".05" fill="#5e5e5e"/><path d="M-3889.05-1760.98a6 6 0 0 1 6-6h102a6 6 0 0 1 6 6v80.5a6 6 0 0 1-6 6h-102a6 6 0 0 1-6-6z" stroke="#fc9432" stroke-width="3" fill="#ffd9d9"/><path d="M-3890.8-1720.73l-18.65-.38-16.14-1.02-14.13-1.48-12.68-1.87-11.7-2.22-11.04-2.6-10.82-3-11.13-3.63-12.52-4.67-19.3-8.18-39.55-17.3-12.53-4.66-11.13-3.63-10.82-3.02-11.05-2.58-11.68-2.22-12.68-1.87-14.14-1.48-16.14-1-18.66-.4" stroke="#5e5e5e" stroke-width=".5" stroke-linejoin="round" fill="none"/><path d="M-3890.55-1720.98v.5h-.26v-.5zM-4187.3-1788.2v.5h-.25v-.5z" stroke="#5e5e5e" stroke-width=".05" fill="#5e5e5e"/><path d="M-3360.3-1862.07l-17.67.36-16.1 1-14.6 1.53-13.46 1.98-12.55 2.4-11.84 2.78-11.32 3.16-10.97 3.56-10.84 4.03-10.88 4.58-11.24 5.3-12.1 6.33-14.02 8.1-20.3 12.96-57.53 38.15-14.04 8.1-12.1 6.34-11.24 5.3-10.88 4.56-10.82 4.03-10.98 3.56-11.32 3.15-11.84 2.8-12.55 2.38-13.45 1.98-14.62 1.54-16.08 1-17.68.37" stroke="#5e5e5e" stroke-width=".5" stroke-linejoin="round" fill="none"/><path d="M-3360.04-1861.83h-.26v-.5h.26zM-3773.3-1720.48h-.25v-.5h.25z" stroke="#5e5e5e" stroke-width=".05" fill="#5e5e5e"/><defs><path fill="#333" d="M169-182c-1-43-94-46-97-3 18 66 151 10 154 114 3 95-165 93-204 36-6-8-10-19-12-30l50-8c3 46 112 56 116 5-17-69-150-10-154-114-4-87 153-88 188-35 5 8 8 18 10 28" id="B"/><path fill="#333" d="M195 0l-88-114-31 24V0H24v-248h52v113l112-113h60L142-143 257 0h-62" id="C"/><path fill="#333" d="M24 0v-248h195v40H76v63h132v40H76v65h150V0H24" id="D"/><path fill="#333" d="M136-208V0H84v-208H4v-40h212v40h-80" id="E"/><path fill="#333" d="M67-125c0 53 21 87 73 88 37 1 54-22 65-47l45 17C233-25 199 4 140 4 58 4 20-42 15-125 8-235 124-281 211-232c18 10 29 29 36 50l-46 12c-8-25-30-41-62-41-52 0-71 34-72 86" id="F"/><path fill="#333" d="M186 0v-106H76V0H24v-248h52v99h110v-99h50V0h-50" id="G"/><g id="b"><use transform="matrix(0.08024691358024691,0,0,0.08024691358024691,0,0)" xlink:href="#B"/><use transform="matrix(0.08024691358024691,0,0,0.08024691358024691,19.25925925925926,0)" xlink:href="#C"/><use transform="matrix(0.08024691358024691,0,0,0.08024691358024691,40.04320987654321,0)" xlink:href="#D"/><use transform="matrix(0.08024691358024691,0,0,0.08024691358024691,59.30246913580247,0)" xlink:href="#E"/><use transform="matrix(0.08024691358024691,0,0,0.08024691358024691,76.87654320987654,0)" xlink:href="#F"/><use transform="matrix(0.08024691358024691,0,0,0.08024691358024691,97.6604938271605,0)" xlink:href="#G"/></g><path fill="#333" d="M24-248c120-7 223 5 221 122C244-46 201 0 124 0H24v-248zM76-40c74 7 117-18 117-86 0-67-45-88-117-82v168" id="H"/><path fill="#333" d="M24 0v-248h52V0H24" id="I"/><path fill="#333" d="M67-125c0 54 23 88 75 88 28 0 53-7 68-21v-34h-60v-39h108v91C232-14 192 4 140 4 58 4 20-42 15-125 8-236 126-280 215-234c19 10 29 26 37 47l-47 15c-11-23-29-39-63-39-53 1-75 33-75 86" id="J"/><path fill="#333" d="M175 0L67-191c6 58 2 128 3 191H24v-248h59L193-55c-6-58-2-129-3-193h46V0h-61" id="K"/><g id="c"><use transform="matrix(0.08024691358024691,0,0,0.08024691358024691,0,0)" xlink:href="#H"/><use transform="matrix(0.08024691358024691,0,0,0.08024691358024691,20.78395061728395,0)" xlink:href="#D"/><use transform="matrix(0.08024691358024691,0,0,0.08024691358024691,40.04320987654321,0)" xlink:href="#B"/><use transform="matrix(0.08024691358024691,0,0,0.08024691358024691,59.30246913580247,0)" xlink:href="#I"/><use transform="matrix(0.08024691358024691,0,0,0.08024691358024691,67.32716049382717,0)" xlink:href="#J"/><use transform="matrix(0.08024691358024691,0,0,0.08024691358024691,89.7962962962963,0)" xlink:href="#K"/></g><path fill="#333" d="M141 0L90-78 38 0H4l68-98-65-92h35l48 74 47-74h35l-64 92 68 98h-35" id="L"/><g id="d"><use transform="matrix(0.08024691358024691,0,0,0.08024691358024691,0,0)" xlink:href="#L"/><use transform="matrix(0.08024691358024691,0,0,0.08024691358024691,14.444444444444443,0)" xlink:href="#L"/><use transform="matrix(0.08024691358024691,0,0,0.08024691358024691,28.888888888888886,0)" xlink:href="#L"/><use transform="matrix(0.08024691358024691,0,0,0.08024691358024691,43.33333333333333,0)" xlink:href="#L"/><use transform="matrix(0.08024691358024691,0,0,0.08024691358024691,57.77777777777777,0)" xlink:href="#L"/><use transform="matrix(0.08024691358024691,0,0,0.08024691358024691,72.22222222222221,0)" xlink:href="#L"/><use transform="matrix(0.08024691358024691,0,0,0.08024691358024691,86.66666666666666,0)" xlink:href="#L"/><use transform="matrix(0.08024691358024691,0,0,0.08024691358024691,101.1111111111111,0)" xlink:href="#L"/><use transform="matrix(0.08024691358024691,0,0,0.08024691358024691,115.55555555555554,0)" xlink:href="#L"/></g><path fill="#fe7070" d="M59-47c-2 24 18 29 38 22v24C64 9 27 4 27-40v-127H5v-23h24l9-43h21v43h35v23H59v120" id="M"/><path fill="#fe7070" d="M100-194c63 0 86 42 84 106H49c0 40 14 67 53 68 26 1 43-12 49-29l28 8c-11 28-37 45-77 45C44 4 14-33 15-96c1-61 26-98 85-98zm52 81c6-60-76-77-97-28-3 7-6 17-6 28h103" id="N"/><path fill="#fe7070" d="M141 0L90-78 38 0H4l68-98-65-92h35l48 74 47-74h35l-64 92 68 98h-35" id="O"/><path fill="#fe7070" d="M84 4C-5 8 30-112 23-190h32v120c0 31 7 50 39 49 72-2 45-101 50-169h31l1 190h-30c-1-10 1-25-2-33-11 22-28 36-60 37" id="P"/><path fill="#fe7070" d="M141-36C126-15 110 5 73 4 37 3 15-17 15-53c-1-64 63-63 125-63 3-35-9-54-41-54-24 1-41 7-42 31l-33-3c5-37 33-52 76-52 45 0 72 20 72 64v82c-1 20 7 32 28 27v20c-31 9-61-2-59-35zM48-53c0 20 12 33 32 33 41-3 63-29 60-74-43 2-92-5-92 41" id="Q"/><path fill="#fe7070" d="M24 0v-261h32V0H24" id="R"/><g id="e"><use transform="matrix(0.09259259259259256,0,0,0.09259259259259256,0,0)" xlink:href="#M"/><use transform="matrix(0.09259259259259256,0,0,0.09259259259259256,9.259259259259256,0)" xlink:href="#N"/><use transform="matrix(0.09259259259259256,0,0,0.09259259259259256,27.777777777777768,0)" xlink:href="#O"/><use transform="matrix(0.09259259259259256,0,0,0.09259259259259256,44.44444444444443,0)" xlink:href="#M"/><use transform="matrix(0.09259259259259256,0,0,0.09259259259259256,53.70370370370368,0)" xlink:href="#P"/><use transform="matrix(0.09259259259259256,0,0,0.09259259259259256,72.2222222222222,0)" xlink:href="#Q"/><use transform="matrix(0.09259259259259256,0,0,0.09259259259259256,90.7407407407407,0)" xlink:href="#R"/></g><path fill="#fe7070" d="M24-231v-30h32v30H24zM24 0v-190h32V0H24" id="S"/><path fill="#fe7070" d="M117-194c89-4 53 116 60 194h-32v-121c0-31-8-49-39-48C34-167 62-67 57 0H25l-1-190h30c1 10-1 24 2 32 11-22 29-35 61-36" id="T"/><path fill="#fe7070" d="M114-163C36-179 61-72 57 0H25l-1-190h30c1 12-1 29 2 39 6-27 23-49 58-41v29" id="U"/><path fill="#fe7070" d="M115-194c55 1 70 41 70 98S169 2 115 4C84 4 66-9 55-30l1 105H24l-1-265h31l2 30c10-21 28-34 59-34zm-8 174c40 0 45-34 45-75s-6-73-45-74c-42 0-51 32-51 76 0 43 10 73 51 73" id="V"/><path fill="#fe7070" d="M100-194c62-1 85 37 85 99 1 63-27 99-86 99S16-35 15-95c0-66 28-99 85-99zM99-20c44 1 53-31 53-75 0-43-8-75-51-75s-53 32-53 75 10 74 51 75" id="W"/><g id="f"><use transform="matrix(0.09259259259259256,0,0,0.09259259259259256,0,0)" xlink:href="#S"/><use transform="matrix(0.09259259259259256,0,0,0.09259259259259256,7.314814814814812,0)" xlink:href="#T"/><use transform="matrix(0.09259259259259256,0,0,0.09259259259259256,25.833333333333325,0)" xlink:href="#M"/><use transform="matrix(0.09259259259259256,0,0,0.09259259259259256,35.09259259259258,0)" xlink:href="#N"/><use transform="matrix(0.09259259259259256,0,0,0.09259259259259256,53.61111111111109,0)" xlink:href="#U"/><use transform="matrix(0.09259259259259256,0,0,0.09259259259259256,64.6296296296296,0)" xlink:href="#V"/><use transform="matrix(0.09259259259259256,0,0,0.09259259259259256,83.14814814814812,0)" xlink:href="#U"/><use transform="matrix(0.09259259259259256,0,0,0.09259259259259256,94.16666666666664,0)" xlink:href="#N"/><use transform="matrix(0.09259259259259256,0,0,0.09259259259259256,112.68518518518516,0)" xlink:href="#M"/><use transform="matrix(0.09259259259259256,0,0,0.09259259259259256,121.94444444444443,0)" xlink:href="#Q"/><use transform="matrix(0.09259259259259256,0,0,0.09259259259259256,140.46296296296293,0)" xlink:href="#M"/><use transform="matrix(0.09259259259259256,0,0,0.09259259259259256,149.7222222222222,0)" xlink:href="#S"/><use transform="matrix(0.09259259259259256,0,0,0.09259259259259256,157.037037037037,0)" xlink:href="#W"/><use transform="matrix(0.09259259259259256,0,0,0.09259259259259256,175.55555555555551,0)" xlink:href="#T"/></g><path fill="#fc9432" d="M108 0H70L1-190h34L89-25l56-165h34" id="X"/><path fill="#fc9432" d="M24-231v-30h32v30H24zM24 0v-190h32V0H24" id="Y"/><path fill="#fc9432" d="M135-143c-3-34-86-38-87 0 15 53 115 12 119 90S17 21 10-45l28-5c4 36 97 45 98 0-10-56-113-15-118-90-4-57 82-63 122-42 12 7 21 19 24 35" id="Z"/><path fill="#fc9432" d="M84 4C-5 8 30-112 23-190h32v120c0 31 7 50 39 49 72-2 45-101 50-169h31l1 190h-30c-1-10 1-25-2-33-11 22-28 36-60 37" id="aa"/><path fill="#fc9432" d="M141-36C126-15 110 5 73 4 37 3 15-17 15-53c-1-64 63-63 125-63 3-35-9-54-41-54-24 1-41 7-42 31l-33-3c5-37 33-52 76-52 45 0 72 20 72 64v82c-1 20 7 32 28 27v20c-31 9-61-2-59-35zM48-53c0 20 12 33 32 33 41-3 63-29 60-74-43 2-92-5-92 41" id="ab"/><path fill="#fc9432" d="M24 0v-261h32V0H24" id="ac"/><g id="g"><use transform="matrix(0.09259259259259256,0,0,0.09259259259259256,0,0)" xlink:href="#X"/><use transform="matrix(0.09259259259259256,0,0,0.09259259259259256,16.66666666666666,0)" xlink:href="#Y"/><use transform="matrix(0.09259259259259256,0,0,0.09259259259259256,23.981481481481474,0)" xlink:href="#Z"/><use transform="matrix(0.09259259259259256,0,0,0.09259259259259256,40.64814814814814,0)" xlink:href="#aa"/><use transform="matrix(0.09259259259259256,0,0,0.09259259259259256,59.16666666666664,0)" xlink:href="#ab"/><use transform="matrix(0.09259259259259256,0,0,0.09259259259259256,77.68518518518516,0)" xlink:href="#ac"/></g><path fill="#fc9432" d="M117-194c89-4 53 116 60 194h-32v-121c0-31-8-49-39-48C34-167 62-67 57 0H25l-1-190h30c1 10-1 24 2 32 11-22 29-35 61-36" id="ad"/><path fill="#fc9432" d="M59-47c-2 24 18 29 38 22v24C64 9 27 4 27-40v-127H5v-23h24l9-43h21v43h35v23H59v120" id="ae"/><path fill="#fc9432" d="M100-194c63 0 86 42 84 106H49c0 40 14 67 53 68 26 1 43-12 49-29l28 8c-11 28-37 45-77 45C44 4 14-33 15-96c1-61 26-98 85-98zm52 81c6-60-76-77-97-28-3 7-6 17-6 28h103" id="af"/><path fill="#fc9432" d="M114-163C36-179 61-72 57 0H25l-1-190h30c1 12-1 29 2 39 6-27 23-49 58-41v29" id="ag"/><path fill="#fc9432" d="M115-194c55 1 70 41 70 98S169 2 115 4C84 4 66-9 55-30l1 105H24l-1-265h31l2 30c10-21 28-34 59-34zm-8 174c40 0 45-34 45-75s-6-73-45-74c-42 0-51 32-51 76 0 43 10 73 51 73" id="ah"/><path fill="#fc9432" d="M100-194c62-1 85 37 85 99 1 63-27 99-86 99S16-35 15-95c0-66 28-99 85-99zM99-20c44 1 53-31 53-75 0-43-8-75-51-75s-53 32-53 75 10 74 51 75" id="ai"/><g id="h"><use transform="matrix(0.09259259259259256,0,0,0.09259259259259256,0,0)" xlink:href="#Y"/><use transform="matrix(0.09259259259259256,0,0,0.09259259259259256,7.314814814814812,0)" xlink:href="#ad"/><use transform="matrix(0.09259259259259256,0,0,0.09259259259259256,25.833333333333325,0)" xlink:href="#ae"/><use transform="matrix(0.09259259259259256,0,0,0.09259259259259256,35.09259259259258,0)" xlink:href="#af"/><use transform="matrix(0.09259259259259256,0,0,0.09259259259259256,53.61111111111109,0)" xlink:href="#ag"/><use transform="matrix(0.09259259259259256,0,0,0.09259259259259256,64.6296296296296,0)" xlink:href="#ah"/><use transform="matrix(0.09259259259259256,0,0,0.09259259259259256,83.14814814814812,0)" xlink:href="#ag"/><use transform="matrix(0.09259259259259256,0,0,0.09259259259259256,94.16666666666664,0)" xlink:href="#af"/><use transform="matrix(0.09259259259259256,0,0,0.09259259259259256,112.68518518518516,0)" xlink:href="#ae"/><use transform="matrix(0.09259259259259256,0,0,0.09259259259259256,121.94444444444443,0)" xlink:href="#ab"/><use transform="matrix(0.09259259259259256,0,0,0.09259259259259256,140.46296296296293,0)" xlink:href="#ae"/><use transform="matrix(0.09259259259259256,0,0,0.09259259259259256,149.7222222222222,0)" xlink:href="#Y"/><use transform="matrix(0.09259259259259256,0,0,0.09259259259259256,157.037037037037,0)" xlink:href="#ai"/><use transform="matrix(0.09259259259259256,0,0,0.09259259259259256,175.55555555555551,0)" xlink:href="#ad"/></g><path fill="#333" d="M115-194c53 0 69 39 70 98 0 66-23 100-70 100C84 3 66-7 56-30L54 0H23l1-261h32v101c10-23 28-34 59-34zm-8 174c40 0 45-34 45-75 0-40-5-75-45-74-42 0-51 32-51 76 0 43 10 73 51 73" id="aj"/><path fill="#333" d="M114-163C36-179 61-72 57 0H25l-1-190h30c1 12-1 29 2 39 6-27 23-49 58-41v29" id="ak"/><path fill="#333" d="M24-231v-30h32v30H24zM24 0v-190h32V0H24" id="al"/><path fill="#333" d="M100-194c63 0 86 42 84 106H49c0 40 14 67 53 68 26 1 43-12 49-29l28 8c-11 28-37 45-77 45C44 4 14-33 15-96c1-61 26-98 85-98zm52 81c6-60-76-77-97-28-3 7-6 17-6 28h103" id="am"/><path fill="#333" d="M101-234c-31-9-42 10-38 44h38v23H63V0H32v-167H5v-23h27c-7-52 17-82 69-68v24" id="an"/><g id="i"><use transform="matrix(0.09259259259259256,0,0,0.09259259259259256,0,0)" xlink:href="#aj"/><use transform="matrix(0.09259259259259256,0,0,0.09259259259259256,18.518518518518512,0)" xlink:href="#ak"/><use transform="matrix(0.09259259259259256,0,0,0.09259259259259256,29.537037037037027,0)" xlink:href="#al"/><use transform="matrix(0.09259259259259256,0,0,0.09259259259259256,36.85185185185184,0)" xlink:href="#am"/><use transform="matrix(0.09259259259259256,0,0,0.09259259259259256,55.37037037037035,0)" xlink:href="#an"/></g><path fill="#333" d="M135-143c-3-34-86-38-87 0 15 53 115 12 119 90S17 21 10-45l28-5c4 36 97 45 98 0-10-56-113-15-118-90-4-57 82-63 122-42 12 7 21 19 24 35" id="ao"/><path fill="#333" d="M59-47c-2 24 18 29 38 22v24C64 9 27 4 27-40v-127H5v-23h24l9-43h21v43h35v23H59v120" id="ap"/><path fill="#333" d="M84 4C-5 8 30-112 23-190h32v120c0 31 7 50 39 49 72-2 45-101 50-169h31l1 190h-30c-1-10 1-25-2-33-11 22-28 36-60 37" id="aq"/><path fill="#333" d="M85-194c31 0 48 13 60 33l-1-100h32l1 261h-30c-2-10 0-23-3-31C134-8 116 4 85 4 32 4 16-35 15-94c0-66 23-100 70-100zm9 24c-40 0-46 34-46 75 0 40 6 74 45 74 42 0 51-32 51-76 0-42-9-74-50-73" id="ar"/><path fill="#333" d="M117-194c89-4 53 116 60 194h-32v-121c0-31-8-49-39-48C34-167 62-67 57 0H25l-1-190h30c1 10-1 24 2 32 11-22 29-35 61-36" id="as"/><g id="j"><use transform="matrix(0.08024691358024688,0,0,0.08024691358024688,0,0)" xlink:href="#ao"/><use transform="matrix(0.08024691358024688,0,0,0.08024691358024688,14.44444444444444,0)" xlink:href="#ap"/><use transform="matrix(0.08024691358024688,0,0,0.08024691358024688,22.469135802469125,0)" xlink:href="#aq"/><use transform="matrix(0.08024691358024688,0,0,0.08024691358024688,38.518518518518505,0)" xlink:href="#ar"/><use transform="matrix(0.08024691358024688,0,0,0.08024691358024688,54.56790123456789,0)" xlink:href="#am"/><use transform="matrix(0.08024691358024688,0,0,0.08024691358024688,70.61728395061726,0)" xlink:href="#as"/><use transform="matrix(0.08024691358024688,0,0,0.08024691358024688,86.66666666666666,0)" xlink:href="#ap"/></g><path fill="#333" d="M177-190C167-65 218 103 67 71c-23-6-38-20-44-43l32-5c15 47 100 32 89-28v-30C133-14 115 1 83 1 29 1 15-40 15-95c0-56 16-97 71-98 29-1 48 16 59 35 1-10 0-23 2-32h30zM94-22c36 0 50-32 50-73 0-42-14-75-50-75-39 0-46 34-46 75s6 73 46 73" id="at"/><path fill="#333" d="M100-194c62-1 85 37 85 99 1 63-27 99-86 99S16-35 15-95c0-66 28-99 85-99zM99-20c44 1 53-31 53-75 0-43-8-75-51-75s-53 32-53 75 10 74 51 75" id="au"/><path fill="#333" d="M115-194c55 1 70 41 70 98S169 2 115 4C84 4 66-9 55-30l1 105H24l-1-265h31l2 30c10-21 28-34 59-34zm-8 174c40 0 45-34 45-75s-6-73-45-74c-42 0-51 32-51 76 0 43 10 73 51 73" id="av"/><g id="k"><use transform="matrix(0.08024691358024688,0,0,0.08024691358024688,0,0)" xlink:href="#at"/><use transform="matrix(0.08024691358024688,0,0,0.08024691358024688,16.049382716049376,0)" xlink:href="#ak"/><use transform="matrix(0.08024691358024688,0,0,0.08024691358024688,25.598765432098755,0)" xlink:href="#au"/><use transform="matrix(0.08024691358024688,0,0,0.08024691358024688,41.64814814814813,0)" xlink:href="#aq"/><use transform="matrix(0.08024691358024688,0,0,0.08024691358024688,57.69753086419751,0)" xlink:href="#av"/></g><path fill="#333" d="M30-248c87 1 191-15 191 75 0 78-77 80-158 76V0H30v-248zm33 125c57 0 124 11 124-50 0-59-68-47-124-48v98" id="aw"/><path fill="#333" d="M233-177c-1 41-23 64-60 70L243 0h-38l-65-103H63V0H30v-248c88 3 205-21 203 71zM63-129c60-2 137 13 137-47 0-61-80-42-137-45v92" id="ax"/><path fill="#333" d="M30 0v-248h187v28H63v79h144v27H63v87h162V0H30" id="ay"/><path fill="#333" d="M30 0v-248h33v221h125V0H30" id="az"/><path fill="#333" d="M33 0v-248h34V0H33" id="aA"/><path fill="#333" d="M240 0l2-218c-23 76-54 145-80 218h-23L58-218 59 0H30v-248h44l77 211c21-75 51-140 76-211h43V0h-30" id="aB"/><g id="m"><use transform="matrix(0.06172839506172839,0,0,0.06172839506172839,0,0)" xlink:href="#aw"/><use transform="matrix(0.06172839506172839,0,0,0.06172839506172839,14.814814814814813,0)" xlink:href="#ax"/><use transform="matrix(0.06172839506172839,0,0,0.06172839506172839,30.80246913580247,0)" xlink:href="#ay"/><use transform="matrix(0.06172839506172839,0,0,0.06172839506172839,45.61728395061728,0)" xlink:href="#az"/><use transform="matrix(0.06172839506172839,0,0,0.06172839506172839,57.962962962962955,0)" xlink:href="#aA"/><use transform="matrix(0.06172839506172839,0,0,0.06172839506172839,64.1358024691358,0)" xlink:href="#aB"/></g><path fill="#333" d="M30-248c118-7 216 8 213 122C240-48 200 0 122 0H30v-248zM63-27c89 8 146-16 146-99s-60-101-146-95v194" id="aC"/><path fill="#333" d="M185-189c-5-48-123-54-124 2 14 75 158 14 163 119 3 78-121 87-175 55-17-10-28-26-33-46l33-7c5 56 141 63 141-1 0-78-155-14-162-118-5-82 145-84 179-34 5 7 8 16 11 25" id="aD"/><path fill="#333" d="M143 4C61 4 22-44 18-125c-5-107 100-154 193-111 17 8 29 25 37 43l-32 9c-13-25-37-40-76-40-61 0-88 39-88 99 0 61 29 100 91 101 35 0 62-11 79-27v-45h-74v-28h105v86C228-13 192 4 143 4" id="aE"/><path fill="#333" d="M190 0L58-211 59 0H30v-248h39L202-35l-2-213h31V0h-41" id="aF"/><g id="n"><use transform="matrix(0.06172839506172839,0,0,0.06172839506172839,0,0)" xlink:href="#aC"/><use transform="matrix(0.06172839506172839,0,0,0.06172839506172839,15.987654320987653,0)" xlink:href="#ay"/><use transform="matrix(0.06172839506172839,0,0,0.06172839506172839,30.80246913580247,0)" xlink:href="#aD"/><use transform="matrix(0.06172839506172839,0,0,0.06172839506172839,45.61728395061728,0)" xlink:href="#aA"/><use transform="matrix(0.06172839506172839,0,0,0.06172839506172839,51.79012345679012,0)" xlink:href="#aE"/><use transform="matrix(0.06172839506172839,0,0,0.06172839506172839,69.07407407407408,0)" xlink:href="#aF"/></g><path fill="#333" d="M24 0v-261h32V0H24" id="aG"/><path fill="#333" d="M210-169c-67 3-38 105-44 169h-31v-121c0-29-5-50-35-48C34-165 62-65 56 0H25l-1-190h30c1 10-1 24 2 32 10-44 99-50 107 0 11-21 27-35 58-36 85-2 47 119 55 194h-31v-121c0-29-5-49-35-48" id="aH"/><path fill="#333" d="M141-36C126-15 110 5 73 4 37 3 15-17 15-53c-1-64 63-63 125-63 3-35-9-54-41-54-24 1-41 7-42 31l-33-3c5-37 33-52 76-52 45 0 72 20 72 64v82c-1 20 7 32 28 27v20c-31 9-61-2-59-35zM48-53c0 20 12 33 32 33 41-3 63-29 60-74-43 2-92-5-92 41" id="aI"/><path fill="#333" d="M179-190L93 31C79 59 56 82 12 73V49c39 6 53-20 64-50L1-190h34L92-34l54-156h33" id="aJ"/><g id="o"><use transform="matrix(0.06172839506172839,0,0,0.06172839506172839,0,0)" xlink:href="#av"/><use transform="matrix(0.06172839506172839,0,0,0.06172839506172839,12.345679012345679,0)" xlink:href="#ak"/><use transform="matrix(0.06172839506172839,0,0,0.06172839506172839,19.691358024691358,0)" xlink:href="#am"/><use transform="matrix(0.06172839506172839,0,0,0.06172839506172839,32.03703703703704,0)" xlink:href="#aG"/><use transform="matrix(0.06172839506172839,0,0,0.06172839506172839,36.91358024691358,0)" xlink:href="#al"/><use transform="matrix(0.06172839506172839,0,0,0.06172839506172839,41.79012345679013,0)" xlink:href="#aH"/><use transform="matrix(0.06172839506172839,0,0,0.06172839506172839,60.24691358024691,0)" xlink:href="#al"/><use transform="matrix(0.06172839506172839,0,0,0.06172839506172839,65.12345679012346,0)" xlink:href="#as"/><use transform="matrix(0.06172839506172839,0,0,0.06172839506172839,77.46913580246914,0)" xlink:href="#aI"/><use transform="matrix(0.06172839506172839,0,0,0.06172839506172839,89.81481481481482,0)" xlink:href="#ak"/><use transform="matrix(0.06172839506172839,0,0,0.06172839506172839,97.16049382716051,0)" xlink:href="#aJ"/></g><g id="p"><use transform="matrix(0.06172839506172839,0,0,0.06172839506172839,0,0)" xlink:href="#ar"/><use transform="matrix(0.06172839506172839,0,0,0.06172839506172839,12.345679012345679,0)" xlink:href="#am"/><use transform="matrix(0.06172839506172839,0,0,0.06172839506172839,24.691358024691358,0)" xlink:href="#ao"/><use transform="matrix(0.06172839506172839,0,0,0.06172839506172839,35.80246913580247,0)" xlink:href="#al"/><use transform="matrix(0.06172839506172839,0,0,0.06172839506172839,40.67901234567901,0)" xlink:href="#at"/><use transform="matrix(0.06172839506172839,0,0,0.06172839506172839,53.02469135802469,0)" xlink:href="#as"/></g><path fill="#333" d="M63-220v92h138v28H63V0H30v-248h175v28H63" id="aK"/><path fill="#333" d="M205 0l-28-72H64L36 0H1l101-248h38L239 0h-34zm-38-99l-47-123c-12 45-31 82-46 123h93" id="aL"/><g id="q"><use transform="matrix(0.06172839506172839,0,0,0.06172839506172839,0,0)" xlink:href="#aK"/><use transform="matrix(0.06172839506172839,0,0,0.06172839506172839,13.518518518518517,0)" xlink:href="#aA"/><use transform="matrix(0.06172839506172839,0,0,0.06172839506172839,19.691358024691358,0)" xlink:href="#aF"/><use transform="matrix(0.06172839506172839,0,0,0.06172839506172839,35.67901234567901,0)" xlink:href="#aL"/><use transform="matrix(0.06172839506172839,0,0,0.06172839506172839,50.49382716049382,0)" xlink:href="#az"/></g><g id="r"><use transform="matrix(0.06172839506172839,0,0,0.06172839506172839,0,0)" xlink:href="#aj"/><use transform="matrix(0.06172839506172839,0,0,0.06172839506172839,12.345679012345679,0)" xlink:href="#al"/><use transform="matrix(0.06172839506172839,0,0,0.06172839506172839,17.22222222222222,0)" xlink:href="#aG"/><use transform="matrix(0.06172839506172839,0,0,0.06172839506172839,22.098765432098766,0)" xlink:href="#aG"/></g><g id="s"><use transform="matrix(0.06172839506172839,0,0,0.06172839506172839,0,0)" xlink:href="#au"/><use transform="matrix(0.06172839506172839,0,0,0.06172839506172839,12.345679012345679,0)" xlink:href="#an"/></g><path fill="#333" d="M145-31C134-9 116 4 85 4 32 4 16-35 15-94c0-59 17-99 70-100 32-1 48 14 60 33 0-11-1-24 2-32h30l-1 268h-32zM93-21c41 0 51-33 51-76s-8-73-50-73c-40 0-46 35-46 75s5 74 45 74" id="aM"/><g id="t"><use transform="matrix(0.06172839506172839,0,0,0.06172839506172839,0,0)" xlink:href="#aM"/><use transform="matrix(0.06172839506172839,0,0,0.06172839506172839,12.345679012345679,0)" xlink:href="#aq"/><use transform="matrix(0.06172839506172839,0,0,0.06172839506172839,24.691358024691358,0)" xlink:href="#aI"/><use transform="matrix(0.06172839506172839,0,0,0.06172839506172839,37.03703703703704,0)" xlink:href="#as"/><use transform="matrix(0.06172839506172839,0,0,0.06172839506172839,49.382716049382715,0)" xlink:href="#ap"/><use transform="matrix(0.06172839506172839,0,0,0.06172839506172839,55.55555555555556,0)" xlink:href="#al"/><use transform="matrix(0.06172839506172839,0,0,0.06172839506172839,60.4320987654321,0)" xlink:href="#ap"/><use transform="matrix(0.06172839506172839,0,0,0.06172839506172839,66.60493827160494,0)" xlink:href="#al"/><use transform="matrix(0.06172839506172839,0,0,0.06172839506172839,71.48148148148148,0)" xlink:href="#am"/><use transform="matrix(0.06172839506172839,0,0,0.06172839506172839,83.82716049382717,0)" xlink:href="#ao"/></g><path fill="#333" d="M96-169c-40 0-48 33-48 73s9 75 48 75c24 0 41-14 43-38l32 2c-6 37-31 61-74 61-59 0-76-41-82-99-10-93 101-131 147-64 4 7 5 14 7 22l-32 3c-4-21-16-35-41-35" id="aN"/><g id="v"><use transform="matrix(0.06172839506172839,0,0,0.06172839506172839,0,0)" xlink:href="#ao"/><use transform="matrix(0.06172839506172839,0,0,0.06172839506172839,11.11111111111111,0)" xlink:href="#av"/><use transform="matrix(0.06172839506172839,0,0,0.06172839506172839,23.45679012345679,0)" xlink:href="#am"/><use transform="matrix(0.06172839506172839,0,0,0.06172839506172839,35.80246913580247,0)" xlink:href="#aN"/><use transform="matrix(0.06172839506172839,0,0,0.06172839506172839,46.91358024691358,0)" xlink:href="#al"/><use transform="matrix(0.06172839506172839,0,0,0.06172839506172839,51.79012345679013,0)" xlink:href="#an"/><use transform="matrix(0.06172839506172839,0,0,0.06172839506172839,57.96296296296297,0)" xlink:href="#al"/><use transform="matrix(0.06172839506172839,0,0,0.06172839506172839,62.83950617283951,0)" xlink:href="#aN"/><use transform="matrix(0.06172839506172839,0,0,0.06172839506172839,73.95061728395062,0)" xlink:href="#aI"/><use transform="matrix(0.06172839506172839,0,0,0.06172839506172839,86.2962962962963,0)" xlink:href="#ap"/><use transform="matrix(0.06172839506172839,0,0,0.06172839506172839,92.46913580246914,0)" xlink:href="#al"/><use transform="matrix(0.06172839506172839,0,0,0.06172839506172839,97.34567901234568,0)" xlink:href="#au"/><use transform="matrix(0.06172839506172839,0,0,0.06172839506172839,109.69135802469137,0)" xlink:href="#as"/><use transform="matrix(0.06172839506172839,0,0,0.06172839506172839,122.03703703703705,0)" xlink:href="#ao"/></g><g id="w"><use transform="matrix(0.06172839506172839,0,0,0.06172839506172839,0,0)" xlink:href="#ar"/><use transform="matrix(0.06172839506172839,0,0,0.06172839506172839,12.345679012345679,0)" xlink:href="#am"/><use transform="matrix(0.06172839506172839,0,0,0.06172839506172839,24.691358024691358,0)" xlink:href="#ao"/><use transform="matrix(0.06172839506172839,0,0,0.06172839506172839,35.80246913580247,0)" xlink:href="#al"/><use transform="matrix(0.06172839506172839,0,0,0.06172839506172839,40.67901234567901,0)" xlink:href="#at"/><use transform="matrix(0.06172839506172839,0,0,0.06172839506172839,53.02469135802469,0)" xlink:href="#as"/></g><path fill="#333" d="M108 0H70L1-190h34L89-25l56-165h34" id="aO"/><g id="x"><use transform="matrix(0.06172839506172839,0,0,0.06172839506172839,0,0)" xlink:href="#ar"/><use transform="matrix(0.06172839506172839,0,0,0.06172839506172839,12.345679012345679,0)" xlink:href="#am"/><use transform="matrix(0.06172839506172839,0,0,0.06172839506172839,24.691358024691358,0)" xlink:href="#aG"/><use transform="matrix(0.06172839506172839,0,0,0.06172839506172839,29.5679012345679,0)" xlink:href="#al"/><use transform="matrix(0.06172839506172839,0,0,0.06172839506172839,34.44444444444444,0)" xlink:href="#aO"/><use transform="matrix(0.06172839506172839,0,0,0.06172839506172839,45.55555555555556,0)" xlink:href="#am"/><use transform="matrix(0.06172839506172839,0,0,0.06172839506172839,57.901234567901234,0)" xlink:href="#ak"/><use transform="matrix(0.06172839506172839,0,0,0.06172839506172839,65.24691358024691,0)" xlink:href="#aI"/><use transform="matrix(0.06172839506172839,0,0,0.06172839506172839,77.5925925925926,0)" xlink:href="#aj"/><use transform="matrix(0.06172839506172839,0,0,0.06172839506172839,89.93827160493828,0)" xlink:href="#aG"/><use transform="matrix(0.06172839506172839,0,0,0.06172839506172839,94.81481481481482,0)" xlink:href="#am"/><use transform="matrix(0.06172839506172839,0,0,0.06172839506172839,107.16049382716051,0)" xlink:href="#ao"/></g><g id="y"><use transform="matrix(0.08024691358024691,0,0,0.08024691358024691,0,0)" xlink:href="#L"/><use transform="matrix(0.08024691358024691,0,0,0.08024691358024691,14.444444444444443,0)" xlink:href="#L"/><use transform="matrix(0.08024691358024691,0,0,0.08024691358024691,28.888888888888886,0)" xlink:href="#L"/><use transform="matrix(0.08024691358024691,0,0,0.08024691358024691,43.33333333333333,0)" xlink:href="#L"/><use transform="matrix(0.08024691358024691,0,0,0.08024691358024691,57.77777777777777,0)" xlink:href="#L"/><use transform="matrix(0.08024691358024691,0,0,0.08024691358024691,72.22222222222221,0)" xlink:href="#L"/></g><g id="z"><use transform="matrix(0.08024691358024691,0,0,0.08024691358024691,0,0)" xlink:href="#L"/><use transform="matrix(0.08024691358024691,0,0,0.08024691358024691,14.444444444444443,0)" xlink:href="#L"/><use transform="matrix(0.08024691358024691,0,0,0.08024691358024691,28.888888888888886,0)" xlink:href="#L"/><use transform="matrix(0.08024691358024691,0,0,0.08024691358024691,43.33333333333333,0)" xlink:href="#L"/><use transform="matrix(0.08024691358024691,0,0,0.08024691358024691,57.77777777777777,0)" xlink:href="#L"/><use transform="matrix(0.08024691358024691,0,0,0.08024691358024691,72.22222222222221,0)" xlink:href="#L"/><use transform="matrix(0.08024691358024691,0,0,0.08024691358024691,86.66666666666666,0)" xlink:href="#L"/><use transform="matrix(0.08024691358024691,0,0,0.08024691358024691,101.1111111111111,0)" xlink:href="#L"/><use transform="matrix(0.08024691358024691,0,0,0.08024691358024691,115.55555555555554,0)" xlink:href="#L"/></g><g id="A"><use transform="matrix(0.08024691358024691,0,0,0.08024691358024691,0,0)" xlink:href="#L"/><use transform="matrix(0.08024691358024691,0,0,0.08024691358024691,14.444444444444443,0)" xlink:href="#L"/><use transform="matrix(0.08024691358024691,0,0,0.08024691358024691,28.888888888888886,0)" xlink:href="#L"/><use transform="matrix(0.08024691358024691,0,0,0.08024691358024691,43.33333333333333,0)" xlink:href="#L"/><use transform="matrix(0.08024691358024691,0,0,0.08024691358024691,57.77777777777777,0)" xlink:href="#L"/></g></defs></g></svg>