<svg xmlns="http://www.w3.org/2000/svg" xmlns:xlink="http://www.w3.org/1999/xlink" xmlns:lucid="lucid" width="2616" height="865"><g transform="translate(5273 3602)" lucid:page-tab-id="mv_GDh85LMSB"><path d="M-5420.6-3776.5h9098.33v5099.34H-5420.6z" fill="#fff"/><path d="M-5220-3534a6 6 0 0 1 6-6h1766.28a6 6 0 0 1 6 6v748.1a6 6 0 0 1-6 6H-5214a6 6 0 0 1-6-6z" fill="#fff0f0"/><use xlink:href="#a" transform="matrix(1,0,0,1,-5215,-3535) translate(884.5 15.999999999999993)"/><use xlink:href="#a" transform="matrix(1,0,0,1,-5215,-3535) translate(884.5 39.999999999999986)"/><use xlink:href="#b" transform="matrix(1,0,0,1,-5215,-3535) translate(765.9753086419753 71.11111111111109)"/><use xlink:href="#c" transform="matrix(1,0,0,1,-5215,-3535) translate(892.4444444444445 71.11111111111109)"/><path d="M-5151.6-3408.17a6 6 0 0 1 6-6h1150.72a6 6 0 0 1 6 6v530.66a6 6 0 0 1-6 6H-5145.6a6 6 0 0 1-6-6z" stroke="#fe7070" stroke-width="3" fill-opacity="0"/><path d="M-4570.24-3375.9a6 6 0 0 1 6-6H-3486a6 6 0 0 1 6 6v521a6 6 0 0 1-6 6h-1078.24a6 6 0 0 1-6-6z" stroke="#fc9432" stroke-width="3" fill-opacity="0"/><path d="M-4467.65-3299.2a6 6 0 0 1 6-6h329.98a6 6 0 0 1 6 6v277.76a6 6 0 0 1-6 6h-329.98a6 6 0 0 1-6-6z" stroke="#5e5e5e" stroke-width="3" fill="#f2f3f5"/><use xlink:href="#d" transform="matrix(1,0,0,1,-4462.651155565254,-3300.1901605292983) translate(101 58.111111111111114)"/><use xlink:href="#e" transform="matrix(1,0,0,1,-4462.651155565254,-3300.1901605292983) translate(166 92.77777777777777)"/><use xlink:href="#f" transform="matrix(1,0,0,1,-4462.651155565254,-3300.1901605292983) translate(122.66666666666667 127.44444444444443)"/><use xlink:href="#e" transform="matrix(1,0,0,1,-4462.651155565254,-3300.1901605292983) translate(166 162.1111111111111)"/><use xlink:href="#g" transform="matrix(1,0,0,1,-4462.651155565254,-3300.1901605292983) translate(101 196.77777777777774)"/><use xlink:href="#h" transform="matrix(1,0,0,1,-4462.651155565254,-3300.1901605292983) translate(101 231.4444444444444)"/><path d="M-4467.65-2962.3a6 6 0 0 1 6-6h329.98a6 6 0 0 1 6 6v90.28a6 6 0 0 1-6 6h-329.98a6 6 0 0 1-6-6z" fill="none"/><use xlink:href="#i" transform="matrix(1,0,0,1,-4467.651155565254,-2968.29034827083) translate(79.42592592592595 58.166666666666664)"/><use xlink:href="#j" transform="matrix(1,0,0,1,-4467.651155565254,-2968.29034827083) translate(142.38888888888889 58.166666666666664)"/><path d="M-3852.1-3299.96a6 6 0 0 1 6-6h102a6 6 0 0 1 6 6v80.5a6 6 0 0 1-6 6h-102a6 6 0 0 1-6-6zM-3692.5-3101.18a6 6 0 0 1 6-6h102a6 6 0 0 1 6 6v80.5a6 6 0 0 1-6 6h-102a6 6 0 0 1-6-6zM-3852.1-3112.86a6 6 0 0 1 6-6h102a6 6 0 0 1 6 6v80.52a6 6 0 0 1-6 6h-102a6 6 0 0 1-6-6zM-3641.2-3278.5a6 6 0 0 1 6-6h101.98a6 6 0 0 1 6 6v80.5a6 6 0 0 1-6 6h-102a6 6 0 0 1-6-6z" stroke="#5e5e5e" stroke-width="3" fill="#f2f3f5"/><path d="M-3624.1-3160.86a6 6 0 0 1 6-6h101.98a6 6 0 0 1 6 6v80.5a6 6 0 0 1-6 6h-102a6 6 0 0 1-6-6z" stroke="#5e5e5e" stroke-width="3" fill="#dfe3e8"/><path d="M-3852.1-2962.3a6 6 0 0 1 6-6h329.98a6 6 0 0 1 6 6v90.28a6 6 0 0 1-6 6h-329.97a6 6 0 0 1-6-6z" fill="none"/><use xlink:href="#k" transform="matrix(1,0,0,1,-3852.093010118645,-2968.29034827083) translate(37.01851851851856 58.166666666666664)"/><use xlink:href="#l" transform="matrix(1,0,0,1,-3852.093010118645,-2968.29034827083) translate(197.75925925925927 58.166666666666664)"/><path d="M-5151.6-2876.42a6 6 0 0 1 6-6h319.6a6 6 0 0 1 6 6v78a6 6 0 0 1-6 6h-319.6a6 6 0 0 1-6-6z" stroke="#000" stroke-opacity="0" stroke-width="3" fill="#fff" fill-opacity="0"/><use xlink:href="#m" transform="matrix(1,0,0,1,-5146.604650505933,-2877.416614654305) translate(10.3055555555556 46.66666666666666)"/><use xlink:href="#n" transform="matrix(1,0,0,1,-5146.604650505933,-2877.416614654305) translate(117.62037037037037 46.66666666666666)"/><path d="M-4907.85-3279.6l23.34.47 20.62 1.3 18.38 1.92 16.67 2.45 15.4 2.93 14.5 3.4 13.92 3.88 13.72 4.47 14 5.2 15.03 6.33 18.05 8.52 89.2 46.03 15.03 6.34 14 5.2 13.72 4.47 13.93 3.9 14.5 3.4 15.4 2.93 16.66 2.46 18.38 1.9 20.63 1.3 23.35.48" stroke="#5e5e5e" stroke-width=".5" stroke-linejoin="round" fill="none"/><path d="M-4907.84-3279.85v.5h-.27v-.5zM-4469.15-3160.56v.5h-.26v-.5z" stroke="#5e5e5e" stroke-width=".05" fill="#5e5e5e"/><path d="M-4943.35-3209.03l60.45 1.2 45.16 2.8 37.62 3.94 36.62 5.43 150.86 27.42 37.62 3.93 45.16 2.8 60.46 1.2" stroke="#5e5e5e" stroke-width=".5" stroke-linejoin="round" fill="none"/><path d="M-4943.34-3209.28v.5h-.27v-.5zM-4469.15-3160.56v.5h-.26v-.5z" stroke="#5e5e5e" stroke-width=".05" fill="#5e5e5e"/><path d="M-4907.85-3109.46l50.43-1 38.6-2.4 32.13-3.36 29.65-4.38 33.75-6.48 103.1-22.1 29.64-4.37 32.1-3.36 38.62-2.4 50.44-1" stroke="#5e5e5e" stroke-width=".5" stroke-linejoin="round" fill="none"/><path d="M-4907.84-3109.2h-.27v-.5h.25zM-4469.15-3160.06h-.26v-.5h.25z" stroke="#5e5e5e" stroke-width=".05" fill="#5e5e5e"/><path d="M-4872.35-3040.73l19.75-.4 17.66-1.1 15.87-1.68 14.47-2.14 13.4-2.55 12.63-2.95 12.08-3.38 11.8-3.83 11.83-4.4 12.25-5.15 13.4-6.33 16.6-8.7 76.08-43.1 13.4-6.3 12.25-5.16 11.83-4.38 11.8-3.84 12.1-3.37 12.6-2.95 13.42-2.55 14.47-2.14 15.86-1.66 17.67-1.1 19.75-.4" stroke="#5e5e5e" stroke-width=".5" stroke-linejoin="round" fill="none"/><path d="M-4872.34-3040.48h-.26v-.5h.25zM-4469.15-3160.06h-.26v-.5h.25z" stroke="#5e5e5e" stroke-width=".05" fill="#5e5e5e"/><path d="M-4123.92-3160.32l10.7-.22 9.9-.62 9.06-.95 8.38-1.24 7.83-1.5 7.4-1.73 7.1-1.98 6.85-2.23 6.73-2.5 6.73-2.83 6.84-3.23 7.17-3.76 7.86-4.53 9.37-5.96 15.56-10.88 30.67-21.95 9.38-5.96 7.86-4.53 7.17-3.76 6.85-3.2 6.72-2.84 6.74-2.5 6.86-2.23 7.08-1.98 7.4-1.73 7.84-1.5 8.37-1.23 9.04-.96 9.9-.62 10.72-.22" stroke="#5e5e5e" stroke-width=".5" stroke-linejoin="round" fill="none"/><path d="M-4123.9-3160.07h-.27v-.5h.25zM-3853.6-3259.45h-.25v-.5h.26z" stroke="#5e5e5e" stroke-width=".05" fill="#5e5e5e"/><path d="M-3785.45-3188.68l-51.14 1-36.76 2.28-31.58 3.3-131.08 18.5-36.76 2.28-51.14 1" stroke="#5e5e5e" stroke-width=".5" stroke-linejoin="round" fill="none"/><path d="M-3785.2-3188.44h-.25v-.5h.25zM-4123.92-3160.06h-.25v-.5h.25z" stroke="#5e5e5e" stroke-width=".05" fill="#5e5e5e"/><path d="M-4123.92-3160.3l12.08.24 11 .7 9.96 1.03 9.13 1.35 8.5 1.62 8 1.87 7.66 2.15 7.45 2.42 7.36 2.74 7.48 3.15 7.84 3.7 8.7 4.54 10.96 6.34 48.84 30.36 8.7 4.55 7.83 3.7 7.47 3.13 7.37 2.74 7.42 2.42 7.66 2.13 8 1.88 8.5 1.62 9.14 1.35 9.95 1.04 11 .7 12.1.24" stroke="#5e5e5e" stroke-width=".5" stroke-linejoin="round" fill="none"/><path d="M-4123.9-3160.56l-.02.5h-.25v-.5zM-3853.6-3072.85v.5h-.25v-.5z" stroke="#5e5e5e" stroke-width=".05" fill="#5e5e5e"/><path d="M-4909.6-3051.77a6 6 0 0 1 6-6h23.5a6 6 0 0 1 6 6v22.1a6 6 0 0 1-6 6h-23.5a6 6 0 0 1-6-6zM-4945.1-3120.5a6 6 0 0 1 6-6h23.5a6 6 0 0 1 6 6v22.1a6 6 0 0 1-6 6h-23.5a6 6 0 0 1-6-6zM-4980.62-3220.07a6 6 0 0 1 6-6h23.5a6 6 0 0 1 6 6v22.08a6 6 0 0 1-6 6h-23.5a6 6 0 0 1-6-6zM-4945.1-3290.4a6 6 0 0 1 6-6h23.5a6 6 0 0 1 6 6v22.1a6 6 0 0 1-6 6h-23.5a6 6 0 0 1-6-6z" stroke="#5e5e5e" stroke-width="3" fill="#dfe3e8"/><path d="M-3736.35-3071.58l5.9.33 4.53.8 4.04 1.22 17.2 7.17 4.53.8 5.9.32" stroke="#5e5e5e" stroke-width=".5" stroke-linejoin="round" fill="none"/><path d="M-3736.33-3071.82l-.03.5-.24-.02v-.5zM-3694-3061.17v.5h-.17v-.5z" stroke="#5e5e5e" stroke-width=".05" fill="#5e5e5e"/><path d="M-3667.95-3188.68l.46.02.7.08.7.12.66.18.67.23.7.3.68.36.74.45.76.55.82.68.88.86.97 1.1 1.1 1.45 1.28 1.95 1.56 2.82 2.05 4.46 3.43 9.32 9.26 27.53 2.04 4.46 1.55 2.82 1.28 1.96 1.1 1.45 1 1.1.87.86.8.68.78.56.72.45.7.37.68.3.68.22.67.17.68.12.7.07.46.02" stroke="#5e5e5e" stroke-width=".5" stroke-linejoin="round" fill="none"/><path d="M-3667.94-3188.93l-.02.5h-.24v-.5zM-3625.6-3120.85v.5h-.17v-.5z" stroke="#5e5e5e" stroke-width=".05" fill="#5e5e5e"/><path d="M-3667.95-3188.7h.23l.47-.08.47-.12.47-.18.48-.24.52-.32.56-.43.63-.6.7-.84.88-1.25 1.1-2 1.56-3.6 3.23-10.6 5.58-19.62 1.55-3.62 1.1-1.98.87-1.24.73-.84.63-.6.56-.43.5-.3.5-.25.47-.18.47-.12.47-.07h.24" stroke="#5e5e5e" stroke-width=".5" stroke-linejoin="round" fill="none"/><path d="M-3667.94-3188.45h-.26v-.5h.24zM-3642.7-3238h-.1v-.5h.1z" stroke="#5e5e5e" stroke-width=".05" fill="#5e5e5e"/><path d="M-3736.35-3259.7l7.12.18 6.1.5 5.23.7 4.68.87 4.38 1.07 4.34 1.3 4.76 1.73 7.96 3.4 12.2 5.35 4.77 1.72 4.33 1.3 4.38 1.08 4.7.9 5.23.68 6.1.5 7.1.17" stroke="#5e5e5e" stroke-width=".5" stroke-linejoin="round" fill="none"/><path d="M-3736.34-3259.95v.5h-.26v-.5zM-3642.7-3238.5v.5h-.26v-.5z" stroke="#5e5e5e" stroke-width=".05" fill="#5e5e5e"/><path d="M-3783.7-3228.94a6 6 0 0 1 6-6h102a6 6 0 0 1 6 6v80.5a6 6 0 0 1-6 6h-102a6 6 0 0 1-6-6z" stroke="#5e5e5e" stroke-width="3" fill="#dfe3e8"/><path d="M-4569.7-2852.98a6 6 0 0 1 6-6h297.7a6 6 0 0 1 6 6v78a6 6 0 0 1-6 6h-297.7a6 6 0 0 1-6-6z" stroke="#000" stroke-opacity="0" stroke-width="3" fill="#fff" fill-opacity="0"/><use xlink:href="#o" transform="matrix(1,0,0,1,-4564.704368650397,-2853.9837585283717) translate(5.833333333333371 46.66666666666666)"/><use xlink:href="#p" transform="matrix(1,0,0,1,-4564.704368650397,-2853.9837585283717) translate(100.0925925925926 46.66666666666666)"/><path d="M-5083.2-2962.3a6 6 0 0 1 6-6h329.97a6 6 0 0 1 6 6v90.28a6 6 0 0 1-6 6h-329.98a6 6 0 0 1-6-6z" fill="none"/><use xlink:href="#q" transform="matrix(1,0,0,1,-5083.209301011865,-2968.29034827083) translate(138.6851851851852 58.166666666666664)"/><path d="M-5077.2-2976.98a6 6 0 0 1-6-6v-328.88a6 6 0 0 1 6-6h90.58a6 6 0 0 1 6 6v328.88a6 6 0 0 1-6 6z" fill="none"/><use xlink:href="#r" transform="matrix(6.123233995736766e-17,-1,1,6.123233995736766e-17,-5083.209301011864,-2976.977525390991) translate(82.26851851851856 57.27777777777777)"/><use xlink:href="#s" transform="matrix(6.123233995736766e-17,-1,1,6.123233995736766e-17,-5083.209301011864,-2976.977525390991) translate(184.98456790123458 57.27777777777777)"/><path d="M-3795.1-3307.7v-17.06a6 6 0 0 0-6-6h-489.56a6 6 0 0 0-6 6v17.82" stroke="#333" stroke-width=".5" fill="none"/><path d="M-3794.85-3307.46h-.5v-.26h.5zM-4296.4-3306.7h-.5v-.25h.5z" stroke="#333" stroke-width=".05" fill="#333"/><path d="M-4220-3367.75a6 6 0 0 1 6-6h367.3a6 6 0 0 1 6 6v52.02a6 6 0 0 1-6 6H-4214a6 6 0 0 1-6-6z" fill="none"/><use xlink:href="#t" transform="matrix(1,0,0,1,-4220,-3373.7527421279747) translate(53.24074074074079 39.166666666666664)"/><use xlink:href="#u" transform="matrix(1,0,0,1,-4220,-3373.7527421279747) translate(178.8888888888889 39.166666666666664)"/><path d="M-3444.17-3533.86a6 6 0 0 1 6-6H-3086a6 6 0 0 1 6 6v747.97a6 6 0 0 1-6 6h-352.17a6 6 0 0 1-6-6z" fill="#fff3d9"/><use xlink:href="#v" transform="matrix(1,0,0,1,-3439.174292723085,-3534.86453944741) translate(177.5 17.77777777777778)"/><use xlink:href="#v" transform="matrix(1,0,0,1,-3439.174292723085,-3534.86453944741) translate(177.5 44.44444444444444)"/><use xlink:href="#w" transform="matrix(1,0,0,1,-3439.174292723085,-3534.86453944741) translate(90.58641975308643 71.11111111111111)"/><use xlink:href="#x" transform="matrix(1,0,0,1,-3439.174292723085,-3534.86453944741) translate(179.35185185185185 71.11111111111111)"/><path d="M-3378.54-3046.5a6 6 0 0 1 6-6h218.22a6 6 0 0 1 6 6v56.92a6 6 0 0 1-6 6h-218.22a6 6 0 0 1-6-6z" fill="none"/><use xlink:href="#y" transform="matrix(1,0,0,1,-3378.543124982093,-3052.49468077328) translate(25.59259259259258 38.94444444444444)"/><use xlink:href="#z" transform="matrix(1,0,0,1,-3378.543124982093,-3052.49468077328) translate(140.03703703703704 38.94444444444444)"/><path d="M-3378.54-3245a6 6 0 0 1 6-6h64.74a6 6 0 0 1 6 6v125.84a6 6 0 0 1-6 6h-64.74a6 6 0 0 1-6-6z" stroke="#5e5e5e" stroke-width="3" fill="#f2f3f5"/><path d="M-3301.8-3209.66a6 6 0 0 1 6-6h64.74a6 6 0 0 1 6 6v90.5a6 6 0 0 1-6 6h-64.74a6 6 0 0 1-6-6z" stroke="#5e5e5e" stroke-width="3" fill="#dfe3e8"/><path d="M-3346.8-3132.53a3.6 3.6 0 0 1 3.6-3.6 3.6 3.6 0 0 1 3.6 3.6v15.76a3.6 3.6 0 0 1-3.6 3.6 3.6 3.6 0 0 1-3.6-3.6zM-3286.46-3130.14a6 6 0 0 1 6-6h11.9a6 6 0 0 1 6 6v10.97a6 6 0 0 1-6 6h-11.9a6 6 0 0 1-6-6z" stroke="#5e5e5e" stroke-width="3" fill="#fff"/><path d="M-3339.6-3132.53a3.6 3.6 0 0 1 3.62-3.6 3.6 3.6 0 0 1 3.6 3.6v15.76a3.6 3.6 0 0 1-3.6 3.6 3.6 3.6 0 0 1-3.6-3.6zM-3369.82-3158.74a4.4 4.4 0 0 1 4.4-4.4h1.3a4.4 4.4 0 0 1 4.4 4.4 4.4 4.4 0 0 1-4.4 4.4h-1.3a4.4 4.4 0 0 1-4.4-4.4zM-3346.8-3158.74a4.4 4.4 0 0 1 4.4-4.4h1.3a4.4 4.4 0 0 1 4.4 4.4 4.4 4.4 0 0 1-4.4 4.4h-1.3a4.4 4.4 0 0 1-4.4-4.4zM-3320.63-3159.48a4.4 4.4 0 0 1 4.4-4.4h1.3a4.4 4.4 0 0 1 4.4 4.4 4.4 4.4 0 0 1-4.4 4.4h-1.3a4.4 4.4 0 0 1-4.4-4.4zM-3287.34-3150.23a4.83 4.83 0 0 1 4.84-4.84h14.23a4.83 4.83 0 0 1 4.84 4.84 4.83 4.83 0 0 1-4.84 4.83h-14.23a4.83 4.83 0 0 1-4.84-4.83zM-3369.82-3229.88a4.4 4.4 0 0 1 4.4-4.4h1.3a4.4 4.4 0 0 1 4.4 4.4 4.4 4.4 0 0 1-4.4 4.4h-1.3a4.4 4.4 0 0 1-4.4-4.4zM-3346.8-3229.88a4.4 4.4 0 0 1 4.4-4.4h1.3a4.4 4.4 0 0 1 4.4 4.4 4.4 4.4 0 0 1-4.4 4.4h-1.3a4.4 4.4 0 0 1-4.4-4.4zM-3320.63-3230.62a4.4 4.4 0 0 1 4.4-4.4h1.3a4.4 4.4 0 0 1 4.4 4.4 4.4 4.4 0 0 1-4.4 4.4h-1.3a4.4 4.4 0 0 1-4.4-4.4zM-3369.82-3181.7a4.4 4.4 0 0 1 4.4-4.42h1.3a4.4 4.4 0 0 1 4.4 4.4 4.4 4.4 0 0 1-4.4 4.42h-1.3a4.4 4.4 0 0 1-4.4-4.4zM-3346.8-3181.7a4.4 4.4 0 0 1 4.4-4.42h1.3a4.4 4.4 0 0 1 4.4 4.4 4.4 4.4 0 0 1-4.4 4.42h-1.3a4.4 4.4 0 0 1-4.4-4.4zM-3320.63-3182.45a4.4 4.4 0 0 1 4.4-4.4h1.3a4.4 4.4 0 0 1 4.4 4.4 4.4 4.4 0 0 1-4.4 4.4h-1.3a4.4 4.4 0 0 1-4.4-4.4zM-3369.82-3205.42a4.4 4.4 0 0 1 4.4-4.4h1.3a4.4 4.4 0 0 1 4.4 4.4 4.4 4.4 0 0 1-4.4 4.4h-1.3a4.4 4.4 0 0 1-4.4-4.4zM-3346.8-3205.42a4.4 4.4 0 0 1 4.4-4.4h1.3a4.4 4.4 0 0 1 4.4 4.4 4.4 4.4 0 0 1-4.4 4.4h-1.3a4.4 4.4 0 0 1-4.4-4.4zM-3320.63-3206.16a4.4 4.4 0 0 1 4.4-4.4h1.3a4.4 4.4 0 0 1 4.4 4.4 4.4 4.4 0 0 1-4.4 4.4h-1.3a4.4 4.4 0 0 1-4.4-4.4z" stroke="#5e5e5e" stroke-width="3" fill="#fff"/><path d="M-3263.43-3150.23a4.83 4.83 0 0 1 4.83-4.84h14.23a4.83 4.83 0 0 1 4.84 4.84 4.83 4.83 0 0 1-4.84 4.83h-14.23a4.83 4.83 0 0 1-4.83-4.83zM-3287.34-3196.18a4.83 4.83 0 0 1 4.84-4.83h14.23a4.83 4.83 0 0 1 4.84 4.82 4.83 4.83 0 0 1-4.84 4.84h-14.23a4.83 4.83 0 0 1-4.84-4.84z" stroke="#5e5e5e" stroke-width="3" fill="#fff"/><path d="M-3263.43-3196.18a4.83 4.83 0 0 1 4.83-4.83h14.23a4.83 4.83 0 0 1 4.84 4.82 4.83 4.83 0 0 1-4.84 4.84h-14.23a4.83 4.83 0 0 1-4.83-4.84zM-3287.34-3173.2a4.83 4.83 0 0 1 4.84-4.84h14.23a4.83 4.83 0 0 1 4.84 4.83 4.83 4.83 0 0 1-4.84 4.83h-14.23a4.83 4.83 0 0 1-4.84-4.84z" stroke="#5e5e5e" stroke-width="3" fill="#fff"/><path d="M-3263.43-3173.2a4.83 4.83 0 0 1 4.83-4.84h14.23a4.83 4.83 0 0 1 4.84 4.83 4.83 4.83 0 0 1-4.84 4.83h-14.23a4.83 4.83 0 0 1-4.83-4.84z" stroke="#5e5e5e" stroke-width="3" fill="#fff"/><path d="M-3225.07-3244.62a6 6 0 0 1 6-6h64.75a6 6 0 0 1 6 6v125.82a6 6 0 0 1-6 6h-64.74a6 6 0 0 1-6-6z" stroke="#5e5e5e" stroke-width="3" fill="#f2f3f5"/><path d="M-3193.32-3132.16a3.6 3.6 0 0 1 3.6-3.6 3.6 3.6 0 0 1 3.6 3.6v15.76a3.6 3.6 0 0 1-3.6 3.6 3.6 3.6 0 0 1-3.6-3.6zM-3186.1-3132.16a3.6 3.6 0 0 1 3.6-3.6 3.6 3.6 0 0 1 3.6 3.6v15.76a3.6 3.6 0 0 1-3.6 3.6 3.6 3.6 0 0 1-3.6-3.6zM-3216.34-3158.37a4.4 4.4 0 0 1 4.4-4.4h1.3a4.4 4.4 0 0 1 4.4 4.4 4.4 4.4 0 0 1-4.4 4.4h-1.3a4.4 4.4 0 0 1-4.4-4.4zM-3193.32-3158.37a4.4 4.4 0 0 1 4.4-4.4h1.3a4.4 4.4 0 0 1 4.4 4.4 4.4 4.4 0 0 1-4.4 4.4h-1.3a4.4 4.4 0 0 1-4.4-4.4zM-3167.15-3159.1a4.4 4.4 0 0 1 4.4-4.42h1.3a4.4 4.4 0 0 1 4.4 4.4 4.4 4.4 0 0 1-4.4 4.42h-1.3a4.4 4.4 0 0 1-4.4-4.4zM-3216.34-3229.5a4.4 4.4 0 0 1 4.4-4.42h1.3a4.4 4.4 0 0 1 4.4 4.4 4.4 4.4 0 0 1-4.4 4.42h-1.3a4.4 4.4 0 0 1-4.4-4.4zM-3193.32-3229.5a4.4 4.4 0 0 1 4.4-4.42h1.3a4.4 4.4 0 0 1 4.4 4.4 4.4 4.4 0 0 1-4.4 4.42h-1.3a4.4 4.4 0 0 1-4.4-4.4zM-3167.15-3230.25a4.4 4.4 0 0 1 4.4-4.4h1.3a4.4 4.4 0 0 1 4.4 4.4 4.4 4.4 0 0 1-4.4 4.4h-1.3a4.4 4.4 0 0 1-4.4-4.4zM-3216.34-3181.34a4.4 4.4 0 0 1 4.4-4.4h1.3a4.4 4.4 0 0 1 4.4 4.4 4.4 4.4 0 0 1-4.4 4.4h-1.3a4.4 4.4 0 0 1-4.4-4.4zM-3193.32-3181.34a4.4 4.4 0 0 1 4.4-4.4h1.3a4.4 4.4 0 0 1 4.4 4.4 4.4 4.4 0 0 1-4.4 4.4h-1.3a4.4 4.4 0 0 1-4.4-4.4zM-3167.15-3182.08a4.4 4.4 0 0 1 4.4-4.4h1.3a4.4 4.4 0 0 1 4.4 4.4 4.4 4.4 0 0 1-4.4 4.4h-1.3a4.4 4.4 0 0 1-4.4-4.4zM-3216.34-3205.05a4.4 4.4 0 0 1 4.4-4.4h1.3a4.4 4.4 0 0 1 4.4 4.4 4.4 4.4 0 0 1-4.4 4.4h-1.3a4.4 4.4 0 0 1-4.4-4.4zM-3193.32-3205.05a4.4 4.4 0 0 1 4.4-4.4h1.3a4.4 4.4 0 0 1 4.4 4.4 4.4 4.4 0 0 1-4.4 4.4h-1.3a4.4 4.4 0 0 1-4.4-4.4zM-3167.15-3205.8a4.4 4.4 0 0 1 4.4-4.4h1.3a4.4 4.4 0 0 1 4.4 4.4 4.4 4.4 0 0 1-4.4 4.42h-1.3a4.4 4.4 0 0 1-4.4-4.4z" stroke="#5e5e5e" stroke-width="3" fill="#fff"/><path d="M-3525.46-3238.24l5.38.1 5.12.33 4.7.5 4.35.63 4.07.78 3.86.9 3.7 1.04 3.6 1.17 3.5 1.32 3.5 1.46 3.52 1.67 3.66 1.9 3.92 2.27 4.44 2.82 5.75 4 24.78 18.4 4.44 2.82 3.9 2.26 3.67 1.9 3.52 1.67 3.5 1.46 3.5 1.3 3.6 1.17 3.7 1.03 3.86.9 4.08.8 4.35.63 4.7.48 5.12.32 5.4.1" stroke="#5e5e5e" stroke-width=".5" stroke-linejoin="round" fill="none"/><path d="M-3525.45-3238.5v.5h-.27v-.5zM-3380.04-3182.33v.5h-.26v-.5z" stroke="#5e5e5e" stroke-width=".05" fill="#5e5e5e"/><path d="M-3080-3533.86a6 6 0 0 1 6-6h348a6 6 0 0 1 6 6v747.97a6 6 0 0 1-6 6h-348a6 6 0 0 1-6-6z" fill="#f7f4e4"/><g><use xlink:href="#v" transform="matrix(1,0,0,1,-3075,-3534.86453944741) translate(175.5 17.77777777777778)"/><use xlink:href="#v" transform="matrix(1,0,0,1,-3075,-3534.86453944741) translate(175.5 44.44444444444444)"/><use xlink:href="#A" transform="matrix(1,0,0,1,-3075,-3534.86453944741) translate(98.8641975308642 71.11111111111111)"/><use xlink:href="#x" transform="matrix(1,0,0,1,-3075,-3534.86453944741) translate(167.07407407407408 71.11111111111111)"/></g><path d="M-2978.7-3256.3a6 6 0 0 1 6-6h165.4a6 6 0 0 1 6 6v138.66a6 6 0 0 1-6 6h-165.4a6 6 0 0 1-6-6z" stroke="#5e5e5e" stroke-width="3" fill="#f2f3f5"/><g><use xlink:href="#B" transform="matrix(1,0,0,1,-2973.6932831354743,-3257.3042106998937) translate(7.611111111111114 22.18402777777778)"/><use xlink:href="#C" transform="matrix(1,0,0,1,-2973.6932831354743,-3257.3042106998937) translate(40.75925925925927 22.18402777777778)"/><use xlink:href="#D" transform="matrix(1,0,0,1,-2973.6932831354743,-3257.3042106998937) translate(65.45061728395062 22.18402777777778)"/><use xlink:href="#E" transform="matrix(1,0,0,1,-2973.6932831354743,-3257.3042106998937) translate(84 48.85069444444444)"/><use xlink:href="#F" transform="matrix(1,0,0,1,-2973.6932831354743,-3257.3042106998937) translate(17.425925925925924 75.51736111111111)"/><use xlink:href="#E" transform="matrix(1,0,0,1,-2973.6932831354743,-3257.3042106998937) translate(84 102.18402777777777)"/><use xlink:href="#G" transform="matrix(1,0,0,1,-2973.6932831354743,-3257.3042106998937) translate(51.31481481481482 128.85069444444446)"/></g><path d="M-3015.6-3046.27a6 6 0 0 1 6-6h219.2a6 6 0 0 1 6 6v57.3a6 6 0 0 1-6 6h-219.2a6 6 0 0 1-6-6z" fill="none"/><g><use xlink:href="#H" transform="matrix(1,0,0,1,-3015.6042682508537,-3052.2738513821787) translate(56.86419753086419 39.44444444444444)"/></g><path d="M-3146.57-3140.12l8.42-.17 7.62-.47 6.8-.7 6.2-.92 5.72-1.08 5.38-1.26 5.16-1.45 5.07-1.64 5.14-1.9 5.42-2.28 6.2-2.93 9.24-4.86 22.6-12.33 6.22-2.93 5.42-2.28 5.13-1.9 5.07-1.66 5.17-1.44 5.4-1.26 5.7-1.1 6.2-.9 6.8-.72 7.63-.47 8.43-.16" stroke="#5e5e5e" stroke-width=".5" stroke-linejoin="round" fill="none"/><path d="M-3146.56-3139.87h-.27v-.5h.26zM-2980.2-3186.72h-.25v-.5h.26z" stroke="#5e5e5e" stroke-width=".05" fill="#5e5e5e"/><defs><path fill="#333" d="M169-182c-1-43-94-46-97-3 18 66 151 10 154 114 3 95-165 93-204 36-6-8-10-19-12-30l50-8c3 46 112 56 116 5-17-69-150-10-154-114-4-87 153-88 188-35 5 8 8 18 10 28" id="I"/><path fill="#333" d="M195 0l-88-114-31 24V0H24v-248h52v113l112-113h60L142-143 257 0h-62" id="J"/><path fill="#333" d="M24 0v-248h195v40H76v63h132v40H76v65h150V0H24" id="K"/><path fill="#333" d="M136-208V0H84v-208H4v-40h212v40h-80" id="L"/><path fill="#333" d="M67-125c0 53 21 87 73 88 37 1 54-22 65-47l45 17C233-25 199 4 140 4 58 4 20-42 15-125 8-235 124-281 211-232c18 10 29 29 36 50l-46 12c-8-25-30-41-62-41-52 0-71 34-72 86" id="M"/><path fill="#333" d="M186 0v-106H76V0H24v-248h52v99h110v-99h50V0h-50" id="N"/><g id="b"><use transform="matrix(0.08024691358024691,0,0,0.08024691358024691,0,0)" xlink:href="#I"/><use transform="matrix(0.08024691358024691,0,0,0.08024691358024691,19.25925925925926,0)" xlink:href="#J"/><use transform="matrix(0.08024691358024691,0,0,0.08024691358024691,40.04320987654321,0)" xlink:href="#K"/><use transform="matrix(0.08024691358024691,0,0,0.08024691358024691,59.30246913580247,0)" xlink:href="#L"/><use transform="matrix(0.08024691358024691,0,0,0.08024691358024691,76.87654320987654,0)" xlink:href="#M"/><use transform="matrix(0.08024691358024691,0,0,0.08024691358024691,97.6604938271605,0)" xlink:href="#N"/></g><path fill="#333" d="M24-248c120-7 223 5 221 122C244-46 201 0 124 0H24v-248zM76-40c74 7 117-18 117-86 0-67-45-88-117-82v168" id="O"/><path fill="#333" d="M24 0v-248h52V0H24" id="P"/><path fill="#333" d="M67-125c0 54 23 88 75 88 28 0 53-7 68-21v-34h-60v-39h108v91C232-14 192 4 140 4 58 4 20-42 15-125 8-236 126-280 215-234c19 10 29 26 37 47l-47 15c-11-23-29-39-63-39-53 1-75 33-75 86" id="Q"/><path fill="#333" d="M175 0L67-191c6 58 2 128 3 191H24v-248h59L193-55c-6-58-2-129-3-193h46V0h-61" id="R"/><g id="c"><use transform="matrix(0.08024691358024691,0,0,0.08024691358024691,0,0)" xlink:href="#O"/><use transform="matrix(0.08024691358024691,0,0,0.08024691358024691,20.78395061728395,0)" xlink:href="#K"/><use transform="matrix(0.08024691358024691,0,0,0.08024691358024691,40.04320987654321,0)" xlink:href="#I"/><use transform="matrix(0.08024691358024691,0,0,0.08024691358024691,59.30246913580247,0)" xlink:href="#P"/><use transform="matrix(0.08024691358024691,0,0,0.08024691358024691,67.32716049382717,0)" xlink:href="#Q"/><use transform="matrix(0.08024691358024691,0,0,0.08024691358024691,89.7962962962963,0)" xlink:href="#R"/></g><path fill="#333" d="M141 0L90-78 38 0H4l68-98-65-92h35l48 74 47-74h35l-64 92 68 98h-35" id="S"/><g id="d"><use transform="matrix(0.08024691358024691,0,0,0.08024691358024691,0,0)" xlink:href="#S"/><use transform="matrix(0.08024691358024691,0,0,0.08024691358024691,14.444444444444443,0)" xlink:href="#S"/><use transform="matrix(0.08024691358024691,0,0,0.08024691358024691,28.888888888888886,0)" xlink:href="#S"/><use transform="matrix(0.08024691358024691,0,0,0.08024691358024691,43.33333333333333,0)" xlink:href="#S"/><use transform="matrix(0.08024691358024691,0,0,0.08024691358024691,57.77777777777777,0)" xlink:href="#S"/><use transform="matrix(0.08024691358024691,0,0,0.08024691358024691,72.22222222222221,0)" xlink:href="#S"/><use transform="matrix(0.08024691358024691,0,0,0.08024691358024691,86.66666666666666,0)" xlink:href="#S"/><use transform="matrix(0.08024691358024691,0,0,0.08024691358024691,101.1111111111111,0)" xlink:href="#S"/><use transform="matrix(0.08024691358024691,0,0,0.08024691358024691,115.55555555555554,0)" xlink:href="#S"/></g><g id="f"><use transform="matrix(0.08024691358024691,0,0,0.08024691358024691,0,0)" xlink:href="#S"/><use transform="matrix(0.08024691358024691,0,0,0.08024691358024691,14.444444444444443,0)" xlink:href="#S"/><use transform="matrix(0.08024691358024691,0,0,0.08024691358024691,28.888888888888886,0)" xlink:href="#S"/><use transform="matrix(0.08024691358024691,0,0,0.08024691358024691,43.33333333333333,0)" xlink:href="#S"/><use transform="matrix(0.08024691358024691,0,0,0.08024691358024691,57.77777777777777,0)" xlink:href="#S"/><use transform="matrix(0.08024691358024691,0,0,0.08024691358024691,72.22222222222221,0)" xlink:href="#S"/></g><g id="g"><use transform="matrix(0.08024691358024691,0,0,0.08024691358024691,0,0)" xlink:href="#S"/><use transform="matrix(0.08024691358024691,0,0,0.08024691358024691,14.444444444444443,0)" xlink:href="#S"/><use transform="matrix(0.08024691358024691,0,0,0.08024691358024691,28.888888888888886,0)" xlink:href="#S"/><use transform="matrix(0.08024691358024691,0,0,0.08024691358024691,43.33333333333333,0)" xlink:href="#S"/><use transform="matrix(0.08024691358024691,0,0,0.08024691358024691,57.77777777777777,0)" xlink:href="#S"/><use transform="matrix(0.08024691358024691,0,0,0.08024691358024691,72.22222222222221,0)" xlink:href="#S"/><use transform="matrix(0.08024691358024691,0,0,0.08024691358024691,86.66666666666666,0)" xlink:href="#S"/><use transform="matrix(0.08024691358024691,0,0,0.08024691358024691,101.1111111111111,0)" xlink:href="#S"/><use transform="matrix(0.08024691358024691,0,0,0.08024691358024691,115.55555555555554,0)" xlink:href="#S"/></g><g id="h"><use transform="matrix(0.08024691358024691,0,0,0.08024691358024691,0,0)" xlink:href="#S"/><use transform="matrix(0.08024691358024691,0,0,0.08024691358024691,14.444444444444443,0)" xlink:href="#S"/><use transform="matrix(0.08024691358024691,0,0,0.08024691358024691,28.888888888888886,0)" xlink:href="#S"/><use transform="matrix(0.08024691358024691,0,0,0.08024691358024691,43.33333333333333,0)" xlink:href="#S"/><use transform="matrix(0.08024691358024691,0,0,0.08024691358024691,57.77777777777777,0)" xlink:href="#S"/><use transform="matrix(0.08024691358024691,0,0,0.08024691358024691,72.22222222222221,0)" xlink:href="#S"/><use transform="matrix(0.08024691358024691,0,0,0.08024691358024691,86.66666666666666,0)" xlink:href="#S"/><use transform="matrix(0.08024691358024691,0,0,0.08024691358024691,101.1111111111111,0)" xlink:href="#S"/><use transform="matrix(0.08024691358024691,0,0,0.08024691358024691,115.55555555555554,0)" xlink:href="#S"/></g><path fill="#333" d="M59-47c-2 24 18 29 38 22v24C64 9 27 4 27-40v-127H5v-23h24l9-43h21v43h35v23H59v120" id="T"/><path fill="#333" d="M100-194c63 0 86 42 84 106H49c0 40 14 67 53 68 26 1 43-12 49-29l28 8c-11 28-37 45-77 45C44 4 14-33 15-96c1-61 26-98 85-98zm52 81c6-60-76-77-97-28-3 7-6 17-6 28h103" id="U"/><g id="i"><use transform="matrix(0.09259259259259256,0,0,0.09259259259259256,0,0)" xlink:href="#T"/><use transform="matrix(0.09259259259259256,0,0,0.09259259259259256,9.259259259259256,0)" xlink:href="#U"/><use transform="matrix(0.09259259259259256,0,0,0.09259259259259256,27.777777777777768,0)" xlink:href="#S"/><use transform="matrix(0.09259259259259256,0,0,0.09259259259259256,44.44444444444443,0)" xlink:href="#T"/></g><path fill="#333" d="M115-194c55 1 70 41 70 98S169 2 115 4C84 4 66-9 55-30l1 105H24l-1-265h31l2 30c10-21 28-34 59-34zm-8 174c40 0 45-34 45-75s-6-73-45-74c-42 0-51 32-51 76 0 43 10 73 51 73" id="V"/><path fill="#333" d="M114-163C36-179 61-72 57 0H25l-1-190h30c1 12-1 29 2 39 6-27 23-49 58-41v29" id="W"/><path fill="#333" d="M100-194c62-1 85 37 85 99 1 63-27 99-86 99S16-35 15-95c0-66 28-99 85-99zM99-20c44 1 53-31 53-75 0-43-8-75-51-75s-53 32-53 75 10 74 51 75" id="X"/><path fill="#333" d="M210-169c-67 3-38 105-44 169h-31v-121c0-29-5-50-35-48C34-165 62-65 56 0H25l-1-190h30c1 10-1 24 2 32 10-44 99-50 107 0 11-21 27-35 58-36 85-2 47 119 55 194h-31v-121c0-29-5-49-35-48" id="Y"/><path fill="#333" d="M135-143c-3-34-86-38-87 0 15 53 115 12 119 90S17 21 10-45l28-5c4 36 97 45 98 0-10-56-113-15-118-90-4-57 82-63 122-42 12 7 21 19 24 35" id="Z"/><g id="j"><use transform="matrix(0.09259259259259256,0,0,0.09259259259259256,0,0)" xlink:href="#V"/><use transform="matrix(0.09259259259259256,0,0,0.09259259259259256,18.518518518518512,0)" xlink:href="#W"/><use transform="matrix(0.09259259259259256,0,0,0.09259259259259256,29.537037037037027,0)" xlink:href="#X"/><use transform="matrix(0.09259259259259256,0,0,0.09259259259259256,48.055555555555536,0)" xlink:href="#Y"/><use transform="matrix(0.09259259259259256,0,0,0.09259259259259256,75.74074074074072,0)" xlink:href="#V"/><use transform="matrix(0.09259259259259256,0,0,0.09259259259259256,94.25925925925924,0)" xlink:href="#T"/><use transform="matrix(0.09259259259259256,0,0,0.09259259259259256,103.51851851851848,0)" xlink:href="#Z"/></g><path fill="#333" d="M24-231v-30h32v30H24zM24 0v-190h32V0H24" id="aa"/><path fill="#333" d="M117-194c89-4 53 116 60 194h-32v-121c0-31-8-49-39-48C34-167 62-67 57 0H25l-1-190h30c1 10-1 24 2 32 11-22 29-35 61-36" id="ab"/><path fill="#333" d="M141-36C126-15 110 5 73 4 37 3 15-17 15-53c-1-64 63-63 125-63 3-35-9-54-41-54-24 1-41 7-42 31l-33-3c5-37 33-52 76-52 45 0 72 20 72 64v82c-1 20 7 32 28 27v20c-31 9-61-2-59-35zM48-53c0 20 12 33 32 33 41-3 63-29 60-74-43 2-92-5-92 41" id="ac"/><g id="k"><use transform="matrix(0.09259259259259256,0,0,0.09259259259259256,0,0)" xlink:href="#aa"/><use transform="matrix(0.09259259259259256,0,0,0.09259259259259256,7.314814814814812,0)" xlink:href="#ab"/><use transform="matrix(0.09259259259259256,0,0,0.09259259259259256,25.833333333333325,0)" xlink:href="#Z"/><use transform="matrix(0.09259259259259256,0,0,0.09259259259259256,42.499999999999986,0)" xlink:href="#V"/><use transform="matrix(0.09259259259259256,0,0,0.09259259259259256,61.0185185185185,0)" xlink:href="#aa"/><use transform="matrix(0.09259259259259256,0,0,0.09259259259259256,68.33333333333331,0)" xlink:href="#W"/><use transform="matrix(0.09259259259259256,0,0,0.09259259259259256,79.35185185185183,0)" xlink:href="#ac"/><use transform="matrix(0.09259259259259256,0,0,0.09259259259259256,97.87037037037035,0)" xlink:href="#T"/><use transform="matrix(0.09259259259259256,0,0,0.09259259259259256,107.12962962962962,0)" xlink:href="#aa"/><use transform="matrix(0.09259259259259256,0,0,0.09259259259259256,114.44444444444443,0)" xlink:href="#X"/><use transform="matrix(0.09259259259259256,0,0,0.09259259259259256,132.96296296296293,0)" xlink:href="#ab"/></g><path fill="#333" d="M177-190C167-65 218 103 67 71c-23-6-38-20-44-43l32-5c15 47 100 32 89-28v-30C133-14 115 1 83 1 29 1 15-40 15-95c0-56 16-97 71-98 29-1 48 16 59 35 1-10 0-23 2-32h30zM94-22c36 0 50-32 50-73 0-42-14-75-50-75-39 0-46 34-46 75s6 73 46 73" id="ad"/><g id="l"><use transform="matrix(0.09259259259259256,0,0,0.09259259259259256,0,0)" xlink:href="#aa"/><use transform="matrix(0.09259259259259256,0,0,0.09259259259259256,7.314814814814812,0)" xlink:href="#Y"/><use transform="matrix(0.09259259259259256,0,0,0.09259259259259256,34.999999999999986,0)" xlink:href="#ac"/><use transform="matrix(0.09259259259259256,0,0,0.09259259259259256,53.5185185185185,0)" xlink:href="#ad"/><use transform="matrix(0.09259259259259256,0,0,0.09259259259259256,72.03703703703701,0)" xlink:href="#U"/><use transform="matrix(0.09259259259259256,0,0,0.09259259259259256,90.55555555555551,0)" xlink:href="#Z"/></g><path fill="#fe7070" d="M59-47c-2 24 18 29 38 22v24C64 9 27 4 27-40v-127H5v-23h24l9-43h21v43h35v23H59v120" id="ae"/><path fill="#fe7070" d="M100-194c63 0 86 42 84 106H49c0 40 14 67 53 68 26 1 43-12 49-29l28 8c-11 28-37 45-77 45C44 4 14-33 15-96c1-61 26-98 85-98zm52 81c6-60-76-77-97-28-3 7-6 17-6 28h103" id="af"/><path fill="#fe7070" d="M141 0L90-78 38 0H4l68-98-65-92h35l48 74 47-74h35l-64 92 68 98h-35" id="ag"/><path fill="#fe7070" d="M84 4C-5 8 30-112 23-190h32v120c0 31 7 50 39 49 72-2 45-101 50-169h31l1 190h-30c-1-10 1-25-2-33-11 22-28 36-60 37" id="ah"/><path fill="#fe7070" d="M141-36C126-15 110 5 73 4 37 3 15-17 15-53c-1-64 63-63 125-63 3-35-9-54-41-54-24 1-41 7-42 31l-33-3c5-37 33-52 76-52 45 0 72 20 72 64v82c-1 20 7 32 28 27v20c-31 9-61-2-59-35zM48-53c0 20 12 33 32 33 41-3 63-29 60-74-43 2-92-5-92 41" id="ai"/><path fill="#fe7070" d="M24 0v-261h32V0H24" id="aj"/><g id="m"><use transform="matrix(0.09259259259259256,0,0,0.09259259259259256,0,0)" xlink:href="#ae"/><use transform="matrix(0.09259259259259256,0,0,0.09259259259259256,9.259259259259256,0)" xlink:href="#af"/><use transform="matrix(0.09259259259259256,0,0,0.09259259259259256,27.777777777777768,0)" xlink:href="#ag"/><use transform="matrix(0.09259259259259256,0,0,0.09259259259259256,44.44444444444443,0)" xlink:href="#ae"/><use transform="matrix(0.09259259259259256,0,0,0.09259259259259256,53.70370370370368,0)" xlink:href="#ah"/><use transform="matrix(0.09259259259259256,0,0,0.09259259259259256,72.2222222222222,0)" xlink:href="#ai"/><use transform="matrix(0.09259259259259256,0,0,0.09259259259259256,90.7407407407407,0)" xlink:href="#aj"/></g><path fill="#fe7070" d="M24-231v-30h32v30H24zM24 0v-190h32V0H24" id="ak"/><path fill="#fe7070" d="M117-194c89-4 53 116 60 194h-32v-121c0-31-8-49-39-48C34-167 62-67 57 0H25l-1-190h30c1 10-1 24 2 32 11-22 29-35 61-36" id="al"/><path fill="#fe7070" d="M114-163C36-179 61-72 57 0H25l-1-190h30c1 12-1 29 2 39 6-27 23-49 58-41v29" id="am"/><path fill="#fe7070" d="M115-194c55 1 70 41 70 98S169 2 115 4C84 4 66-9 55-30l1 105H24l-1-265h31l2 30c10-21 28-34 59-34zm-8 174c40 0 45-34 45-75s-6-73-45-74c-42 0-51 32-51 76 0 43 10 73 51 73" id="an"/><path fill="#fe7070" d="M100-194c62-1 85 37 85 99 1 63-27 99-86 99S16-35 15-95c0-66 28-99 85-99zM99-20c44 1 53-31 53-75 0-43-8-75-51-75s-53 32-53 75 10 74 51 75" id="ao"/><g id="n"><use transform="matrix(0.09259259259259256,0,0,0.09259259259259256,0,0)" xlink:href="#ak"/><use transform="matrix(0.09259259259259256,0,0,0.09259259259259256,7.314814814814812,0)" xlink:href="#al"/><use transform="matrix(0.09259259259259256,0,0,0.09259259259259256,25.833333333333325,0)" xlink:href="#ae"/><use transform="matrix(0.09259259259259256,0,0,0.09259259259259256,35.09259259259258,0)" xlink:href="#af"/><use transform="matrix(0.09259259259259256,0,0,0.09259259259259256,53.61111111111109,0)" xlink:href="#am"/><use transform="matrix(0.09259259259259256,0,0,0.09259259259259256,64.6296296296296,0)" xlink:href="#an"/><use transform="matrix(0.09259259259259256,0,0,0.09259259259259256,83.14814814814812,0)" xlink:href="#am"/><use transform="matrix(0.09259259259259256,0,0,0.09259259259259256,94.16666666666664,0)" xlink:href="#af"/><use transform="matrix(0.09259259259259256,0,0,0.09259259259259256,112.68518518518516,0)" xlink:href="#ae"/><use transform="matrix(0.09259259259259256,0,0,0.09259259259259256,121.94444444444443,0)" xlink:href="#ai"/><use transform="matrix(0.09259259259259256,0,0,0.09259259259259256,140.46296296296293,0)" xlink:href="#ae"/><use transform="matrix(0.09259259259259256,0,0,0.09259259259259256,149.7222222222222,0)" xlink:href="#ak"/><use transform="matrix(0.09259259259259256,0,0,0.09259259259259256,157.037037037037,0)" xlink:href="#ao"/><use transform="matrix(0.09259259259259256,0,0,0.09259259259259256,175.55555555555551,0)" xlink:href="#al"/></g><path fill="#fc9432" d="M108 0H70L1-190h34L89-25l56-165h34" id="ap"/><path fill="#fc9432" d="M24-231v-30h32v30H24zM24 0v-190h32V0H24" id="aq"/><path fill="#fc9432" d="M135-143c-3-34-86-38-87 0 15 53 115 12 119 90S17 21 10-45l28-5c4 36 97 45 98 0-10-56-113-15-118-90-4-57 82-63 122-42 12 7 21 19 24 35" id="ar"/><path fill="#fc9432" d="M84 4C-5 8 30-112 23-190h32v120c0 31 7 50 39 49 72-2 45-101 50-169h31l1 190h-30c-1-10 1-25-2-33-11 22-28 36-60 37" id="as"/><path fill="#fc9432" d="M141-36C126-15 110 5 73 4 37 3 15-17 15-53c-1-64 63-63 125-63 3-35-9-54-41-54-24 1-41 7-42 31l-33-3c5-37 33-52 76-52 45 0 72 20 72 64v82c-1 20 7 32 28 27v20c-31 9-61-2-59-35zM48-53c0 20 12 33 32 33 41-3 63-29 60-74-43 2-92-5-92 41" id="at"/><path fill="#fc9432" d="M24 0v-261h32V0H24" id="au"/><g id="o"><use transform="matrix(0.09259259259259256,0,0,0.09259259259259256,0,0)" xlink:href="#ap"/><use transform="matrix(0.09259259259259256,0,0,0.09259259259259256,16.66666666666666,0)" xlink:href="#aq"/><use transform="matrix(0.09259259259259256,0,0,0.09259259259259256,23.981481481481474,0)" xlink:href="#ar"/><use transform="matrix(0.09259259259259256,0,0,0.09259259259259256,40.64814814814814,0)" xlink:href="#as"/><use transform="matrix(0.09259259259259256,0,0,0.09259259259259256,59.16666666666664,0)" xlink:href="#at"/><use transform="matrix(0.09259259259259256,0,0,0.09259259259259256,77.68518518518516,0)" xlink:href="#au"/></g><path fill="#fc9432" d="M117-194c89-4 53 116 60 194h-32v-121c0-31-8-49-39-48C34-167 62-67 57 0H25l-1-190h30c1 10-1 24 2 32 11-22 29-35 61-36" id="av"/><path fill="#fc9432" d="M59-47c-2 24 18 29 38 22v24C64 9 27 4 27-40v-127H5v-23h24l9-43h21v43h35v23H59v120" id="aw"/><path fill="#fc9432" d="M100-194c63 0 86 42 84 106H49c0 40 14 67 53 68 26 1 43-12 49-29l28 8c-11 28-37 45-77 45C44 4 14-33 15-96c1-61 26-98 85-98zm52 81c6-60-76-77-97-28-3 7-6 17-6 28h103" id="ax"/><path fill="#fc9432" d="M114-163C36-179 61-72 57 0H25l-1-190h30c1 12-1 29 2 39 6-27 23-49 58-41v29" id="ay"/><path fill="#fc9432" d="M115-194c55 1 70 41 70 98S169 2 115 4C84 4 66-9 55-30l1 105H24l-1-265h31l2 30c10-21 28-34 59-34zm-8 174c40 0 45-34 45-75s-6-73-45-74c-42 0-51 32-51 76 0 43 10 73 51 73" id="az"/><path fill="#fc9432" d="M100-194c62-1 85 37 85 99 1 63-27 99-86 99S16-35 15-95c0-66 28-99 85-99zM99-20c44 1 53-31 53-75 0-43-8-75-51-75s-53 32-53 75 10 74 51 75" id="aA"/><g id="p"><use transform="matrix(0.09259259259259256,0,0,0.09259259259259256,0,0)" xlink:href="#aq"/><use transform="matrix(0.09259259259259256,0,0,0.09259259259259256,7.314814814814812,0)" xlink:href="#av"/><use transform="matrix(0.09259259259259256,0,0,0.09259259259259256,25.833333333333325,0)" xlink:href="#aw"/><use transform="matrix(0.09259259259259256,0,0,0.09259259259259256,35.09259259259258,0)" xlink:href="#ax"/><use transform="matrix(0.09259259259259256,0,0,0.09259259259259256,53.61111111111109,0)" xlink:href="#ay"/><use transform="matrix(0.09259259259259256,0,0,0.09259259259259256,64.6296296296296,0)" xlink:href="#az"/><use transform="matrix(0.09259259259259256,0,0,0.09259259259259256,83.14814814814812,0)" xlink:href="#ay"/><use transform="matrix(0.09259259259259256,0,0,0.09259259259259256,94.16666666666664,0)" xlink:href="#ax"/><use transform="matrix(0.09259259259259256,0,0,0.09259259259259256,112.68518518518516,0)" xlink:href="#aw"/><use transform="matrix(0.09259259259259256,0,0,0.09259259259259256,121.94444444444443,0)" xlink:href="#at"/><use transform="matrix(0.09259259259259256,0,0,0.09259259259259256,140.46296296296293,0)" xlink:href="#aw"/><use transform="matrix(0.09259259259259256,0,0,0.09259259259259256,149.7222222222222,0)" xlink:href="#aq"/><use transform="matrix(0.09259259259259256,0,0,0.09259259259259256,157.037037037037,0)" xlink:href="#aA"/><use transform="matrix(0.09259259259259256,0,0,0.09259259259259256,175.55555555555551,0)" xlink:href="#av"/></g><path fill="#333" d="M115-194c53 0 69 39 70 98 0 66-23 100-70 100C84 3 66-7 56-30L54 0H23l1-261h32v101c10-23 28-34 59-34zm-8 174c40 0 45-34 45-75 0-40-5-75-45-74-42 0-51 32-51 76 0 43 10 73 51 73" id="aB"/><path fill="#333" d="M101-234c-31-9-42 10-38 44h38v23H63V0H32v-167H5v-23h27c-7-52 17-82 69-68v24" id="aC"/><g id="q"><use transform="matrix(0.09259259259259256,0,0,0.09259259259259256,0,0)" xlink:href="#aB"/><use transform="matrix(0.09259259259259256,0,0,0.09259259259259256,18.518518518518512,0)" xlink:href="#W"/><use transform="matrix(0.09259259259259256,0,0,0.09259259259259256,29.537037037037027,0)" xlink:href="#aa"/><use transform="matrix(0.09259259259259256,0,0,0.09259259259259256,36.85185185185184,0)" xlink:href="#U"/><use transform="matrix(0.09259259259259256,0,0,0.09259259259259256,55.37037037037035,0)" xlink:href="#aC"/></g><path fill="#333" d="M84 4C-5 8 30-112 23-190h32v120c0 31 7 50 39 49 72-2 45-101 50-169h31l1 190h-30c-1-10 1-25-2-33-11 22-28 36-60 37" id="aD"/><path fill="#333" d="M85-194c31 0 48 13 60 33l-1-100h32l1 261h-30c-2-10 0-23-3-31C134-8 116 4 85 4 32 4 16-35 15-94c0-66 23-100 70-100zm9 24c-40 0-46 34-46 75 0 40 6 74 45 74 42 0 51-32 51-76 0-42-9-74-50-73" id="aE"/><g id="r"><use transform="matrix(0.08024691358024688,0,0,0.08024691358024688,0,0)" xlink:href="#Z"/><use transform="matrix(0.08024691358024688,0,0,0.08024691358024688,14.44444444444444,0)" xlink:href="#T"/><use transform="matrix(0.08024691358024688,0,0,0.08024691358024688,22.469135802469125,0)" xlink:href="#aD"/><use transform="matrix(0.08024691358024688,0,0,0.08024691358024688,38.518518518518505,0)" xlink:href="#aE"/><use transform="matrix(0.08024691358024688,0,0,0.08024691358024688,54.56790123456789,0)" xlink:href="#U"/><use transform="matrix(0.08024691358024688,0,0,0.08024691358024688,70.61728395061726,0)" xlink:href="#ab"/><use transform="matrix(0.08024691358024688,0,0,0.08024691358024688,86.66666666666666,0)" xlink:href="#T"/></g><g id="s"><use transform="matrix(0.08024691358024688,0,0,0.08024691358024688,0,0)" xlink:href="#ad"/><use transform="matrix(0.08024691358024688,0,0,0.08024691358024688,16.049382716049376,0)" xlink:href="#W"/><use transform="matrix(0.08024691358024688,0,0,0.08024691358024688,25.598765432098755,0)" xlink:href="#X"/><use transform="matrix(0.08024691358024688,0,0,0.08024691358024688,41.64814814814813,0)" xlink:href="#aD"/><use transform="matrix(0.08024691358024688,0,0,0.08024691358024688,57.69753086419751,0)" xlink:href="#V"/></g><path fill="#333" d="M108 0H70L1-190h34L89-25l56-165h34" id="aF"/><g id="t"><use transform="matrix(0.09259259259259256,0,0,0.09259259259259256,0,0)" xlink:href="#aa"/><use transform="matrix(0.09259259259259256,0,0,0.09259259259259256,7.314814814814812,0)" xlink:href="#T"/><use transform="matrix(0.09259259259259256,0,0,0.09259259259259256,16.57407407407407,0)" xlink:href="#U"/><use transform="matrix(0.09259259259259256,0,0,0.09259259259259256,35.09259259259258,0)" xlink:href="#W"/><use transform="matrix(0.09259259259259256,0,0,0.09259259259259256,46.1111111111111,0)" xlink:href="#ac"/><use transform="matrix(0.09259259259259256,0,0,0.09259259259259256,64.62962962962962,0)" xlink:href="#T"/><use transform="matrix(0.09259259259259256,0,0,0.09259259259259256,73.88888888888887,0)" xlink:href="#aa"/><use transform="matrix(0.09259259259259256,0,0,0.09259259259259256,81.20370370370368,0)" xlink:href="#aF"/><use transform="matrix(0.09259259259259256,0,0,0.09259259259259256,97.87037037037034,0)" xlink:href="#U"/></g><g id="u"><use transform="matrix(0.09259259259259256,0,0,0.09259259259259256,0,0)" xlink:href="#V"/><use transform="matrix(0.09259259259259256,0,0,0.09259259259259256,18.518518518518512,0)" xlink:href="#W"/><use transform="matrix(0.09259259259259256,0,0,0.09259259259259256,29.537037037037027,0)" xlink:href="#X"/><use transform="matrix(0.09259259259259256,0,0,0.09259259259259256,48.055555555555536,0)" xlink:href="#Y"/><use transform="matrix(0.09259259259259256,0,0,0.09259259259259256,75.74074074074072,0)" xlink:href="#V"/><use transform="matrix(0.09259259259259256,0,0,0.09259259259259256,94.25925925925924,0)" xlink:href="#T"/><use transform="matrix(0.09259259259259256,0,0,0.09259259259259256,103.51851851851848,0)" xlink:href="#aa"/><use transform="matrix(0.09259259259259256,0,0,0.09259259259259256,110.8333333333333,0)" xlink:href="#ab"/><use transform="matrix(0.09259259259259256,0,0,0.09259259259259256,129.35185185185182,0)" xlink:href="#ad"/></g><path fill="#333" d="M30-248c87 1 191-15 191 75 0 78-77 80-158 76V0H30v-248zm33 125c57 0 124 11 124-50 0-59-68-47-124-48v98" id="aG"/><path fill="#333" d="M233-177c-1 41-23 64-60 70L243 0h-38l-65-103H63V0H30v-248c88 3 205-21 203 71zM63-129c60-2 137 13 137-47 0-61-80-42-137-45v92" id="aH"/><path fill="#333" d="M30 0v-248h187v28H63v79h144v27H63v87h162V0H30" id="aI"/><path fill="#333" d="M30 0v-248h33v221h125V0H30" id="aJ"/><path fill="#333" d="M33 0v-248h34V0H33" id="aK"/><path fill="#333" d="M240 0l2-218c-23 76-54 145-80 218h-23L58-218 59 0H30v-248h44l77 211c21-75 51-140 76-211h43V0h-30" id="aL"/><g id="w"><use transform="matrix(0.06172839506172839,0,0,0.06172839506172839,0,0)" xlink:href="#aG"/><use transform="matrix(0.06172839506172839,0,0,0.06172839506172839,14.814814814814813,0)" xlink:href="#aH"/><use transform="matrix(0.06172839506172839,0,0,0.06172839506172839,30.80246913580247,0)" xlink:href="#aI"/><use transform="matrix(0.06172839506172839,0,0,0.06172839506172839,45.61728395061728,0)" xlink:href="#aJ"/><use transform="matrix(0.06172839506172839,0,0,0.06172839506172839,57.962962962962955,0)" xlink:href="#aK"/><use transform="matrix(0.06172839506172839,0,0,0.06172839506172839,64.1358024691358,0)" xlink:href="#aL"/></g><path fill="#333" d="M30-248c118-7 216 8 213 122C240-48 200 0 122 0H30v-248zM63-27c89 8 146-16 146-99s-60-101-146-95v194" id="aM"/><path fill="#333" d="M185-189c-5-48-123-54-124 2 14 75 158 14 163 119 3 78-121 87-175 55-17-10-28-26-33-46l33-7c5 56 141 63 141-1 0-78-155-14-162-118-5-82 145-84 179-34 5 7 8 16 11 25" id="aN"/><path fill="#333" d="M143 4C61 4 22-44 18-125c-5-107 100-154 193-111 17 8 29 25 37 43l-32 9c-13-25-37-40-76-40-61 0-88 39-88 99 0 61 29 100 91 101 35 0 62-11 79-27v-45h-74v-28h105v86C228-13 192 4 143 4" id="aO"/><path fill="#333" d="M190 0L58-211 59 0H30v-248h39L202-35l-2-213h31V0h-41" id="aP"/><g id="x"><use transform="matrix(0.06172839506172839,0,0,0.06172839506172839,0,0)" xlink:href="#aM"/><use transform="matrix(0.06172839506172839,0,0,0.06172839506172839,15.987654320987653,0)" xlink:href="#aI"/><use transform="matrix(0.06172839506172839,0,0,0.06172839506172839,30.80246913580247,0)" xlink:href="#aN"/><use transform="matrix(0.06172839506172839,0,0,0.06172839506172839,45.61728395061728,0)" xlink:href="#aK"/><use transform="matrix(0.06172839506172839,0,0,0.06172839506172839,51.79012345679012,0)" xlink:href="#aO"/><use transform="matrix(0.06172839506172839,0,0,0.06172839506172839,69.07407407407408,0)" xlink:href="#aP"/></g><path fill="#333" d="M24 0v-261h32V0H24" id="aQ"/><path fill="#333" d="M179-190L93 31C79 59 56 82 12 73V49c39 6 53-20 64-50L1-190h34L92-34l54-156h33" id="aR"/><g id="y"><use transform="matrix(0.06172839506172839,0,0,0.06172839506172839,0,0)" xlink:href="#V"/><use transform="matrix(0.06172839506172839,0,0,0.06172839506172839,12.345679012345679,0)" xlink:href="#W"/><use transform="matrix(0.06172839506172839,0,0,0.06172839506172839,19.691358024691358,0)" xlink:href="#U"/><use transform="matrix(0.06172839506172839,0,0,0.06172839506172839,32.03703703703704,0)" xlink:href="#aQ"/><use transform="matrix(0.06172839506172839,0,0,0.06172839506172839,36.91358024691358,0)" xlink:href="#aa"/><use transform="matrix(0.06172839506172839,0,0,0.06172839506172839,41.79012345679013,0)" xlink:href="#Y"/><use transform="matrix(0.06172839506172839,0,0,0.06172839506172839,60.24691358024691,0)" xlink:href="#aa"/><use transform="matrix(0.06172839506172839,0,0,0.06172839506172839,65.12345679012346,0)" xlink:href="#ab"/><use transform="matrix(0.06172839506172839,0,0,0.06172839506172839,77.46913580246914,0)" xlink:href="#ac"/><use transform="matrix(0.06172839506172839,0,0,0.06172839506172839,89.81481481481482,0)" xlink:href="#W"/><use transform="matrix(0.06172839506172839,0,0,0.06172839506172839,97.16049382716051,0)" xlink:href="#aR"/></g><g id="z"><use transform="matrix(0.06172839506172839,0,0,0.06172839506172839,0,0)" xlink:href="#aE"/><use transform="matrix(0.06172839506172839,0,0,0.06172839506172839,12.345679012345679,0)" xlink:href="#U"/><use transform="matrix(0.06172839506172839,0,0,0.06172839506172839,24.691358024691358,0)" xlink:href="#Z"/><use transform="matrix(0.06172839506172839,0,0,0.06172839506172839,35.80246913580247,0)" xlink:href="#aa"/><use transform="matrix(0.06172839506172839,0,0,0.06172839506172839,40.67901234567901,0)" xlink:href="#ad"/><use transform="matrix(0.06172839506172839,0,0,0.06172839506172839,53.02469135802469,0)" xlink:href="#ab"/></g><path fill="#333" d="M63-220v92h138v28H63V0H30v-248h175v28H63" id="aS"/><path fill="#333" d="M205 0l-28-72H64L36 0H1l101-248h38L239 0h-34zm-38-99l-47-123c-12 45-31 82-46 123h93" id="aT"/><g id="A"><use transform="matrix(0.06172839506172839,0,0,0.06172839506172839,0,0)" xlink:href="#aS"/><use transform="matrix(0.06172839506172839,0,0,0.06172839506172839,13.518518518518517,0)" xlink:href="#aK"/><use transform="matrix(0.06172839506172839,0,0,0.06172839506172839,19.691358024691358,0)" xlink:href="#aP"/><use transform="matrix(0.06172839506172839,0,0,0.06172839506172839,35.67901234567901,0)" xlink:href="#aT"/><use transform="matrix(0.06172839506172839,0,0,0.06172839506172839,50.49382716049382,0)" xlink:href="#aJ"/></g><g id="B"><use transform="matrix(0.06172839506172839,0,0,0.06172839506172839,0,0)" xlink:href="#aB"/><use transform="matrix(0.06172839506172839,0,0,0.06172839506172839,12.345679012345679,0)" xlink:href="#aa"/><use transform="matrix(0.06172839506172839,0,0,0.06172839506172839,17.22222222222222,0)" xlink:href="#aQ"/><use transform="matrix(0.06172839506172839,0,0,0.06172839506172839,22.098765432098766,0)" xlink:href="#aQ"/></g><g id="C"><use transform="matrix(0.06172839506172839,0,0,0.06172839506172839,0,0)" xlink:href="#X"/><use transform="matrix(0.06172839506172839,0,0,0.06172839506172839,12.345679012345679,0)" xlink:href="#aC"/></g><path fill="#333" d="M145-31C134-9 116 4 85 4 32 4 16-35 15-94c0-59 17-99 70-100 32-1 48 14 60 33 0-11-1-24 2-32h30l-1 268h-32zM93-21c41 0 51-33 51-76s-8-73-50-73c-40 0-46 35-46 75s5 74 45 74" id="aU"/><g id="D"><use transform="matrix(0.06172839506172839,0,0,0.06172839506172839,0,0)" xlink:href="#aU"/><use transform="matrix(0.06172839506172839,0,0,0.06172839506172839,12.345679012345679,0)" xlink:href="#aD"/><use transform="matrix(0.06172839506172839,0,0,0.06172839506172839,24.691358024691358,0)" xlink:href="#ac"/><use transform="matrix(0.06172839506172839,0,0,0.06172839506172839,37.03703703703704,0)" xlink:href="#ab"/><use transform="matrix(0.06172839506172839,0,0,0.06172839506172839,49.382716049382715,0)" xlink:href="#T"/><use transform="matrix(0.06172839506172839,0,0,0.06172839506172839,55.55555555555556,0)" xlink:href="#aa"/><use transform="matrix(0.06172839506172839,0,0,0.06172839506172839,60.4320987654321,0)" xlink:href="#T"/><use transform="matrix(0.06172839506172839,0,0,0.06172839506172839,66.60493827160494,0)" xlink:href="#aa"/><use transform="matrix(0.06172839506172839,0,0,0.06172839506172839,71.48148148148148,0)" xlink:href="#U"/><use transform="matrix(0.06172839506172839,0,0,0.06172839506172839,83.82716049382717,0)" xlink:href="#Z"/></g><path fill="#333" d="M96-169c-40 0-48 33-48 73s9 75 48 75c24 0 41-14 43-38l32 2c-6 37-31 61-74 61-59 0-76-41-82-99-10-93 101-131 147-64 4 7 5 14 7 22l-32 3c-4-21-16-35-41-35" id="aV"/><g id="F"><use transform="matrix(0.06172839506172839,0,0,0.06172839506172839,0,0)" xlink:href="#Z"/><use transform="matrix(0.06172839506172839,0,0,0.06172839506172839,11.11111111111111,0)" xlink:href="#V"/><use transform="matrix(0.06172839506172839,0,0,0.06172839506172839,23.45679012345679,0)" xlink:href="#U"/><use transform="matrix(0.06172839506172839,0,0,0.06172839506172839,35.80246913580247,0)" xlink:href="#aV"/><use transform="matrix(0.06172839506172839,0,0,0.06172839506172839,46.91358024691358,0)" xlink:href="#aa"/><use transform="matrix(0.06172839506172839,0,0,0.06172839506172839,51.79012345679013,0)" xlink:href="#aC"/><use transform="matrix(0.06172839506172839,0,0,0.06172839506172839,57.96296296296297,0)" xlink:href="#aa"/><use transform="matrix(0.06172839506172839,0,0,0.06172839506172839,62.83950617283951,0)" xlink:href="#aV"/><use transform="matrix(0.06172839506172839,0,0,0.06172839506172839,73.95061728395062,0)" xlink:href="#ac"/><use transform="matrix(0.06172839506172839,0,0,0.06172839506172839,86.2962962962963,0)" xlink:href="#T"/><use transform="matrix(0.06172839506172839,0,0,0.06172839506172839,92.46913580246914,0)" xlink:href="#aa"/><use transform="matrix(0.06172839506172839,0,0,0.06172839506172839,97.34567901234568,0)" xlink:href="#X"/><use transform="matrix(0.06172839506172839,0,0,0.06172839506172839,109.69135802469137,0)" xlink:href="#ab"/><use transform="matrix(0.06172839506172839,0,0,0.06172839506172839,122.03703703703705,0)" xlink:href="#Z"/></g><g id="G"><use transform="matrix(0.06172839506172839,0,0,0.06172839506172839,0,0)" xlink:href="#aE"/><use transform="matrix(0.06172839506172839,0,0,0.06172839506172839,12.345679012345679,0)" xlink:href="#U"/><use transform="matrix(0.06172839506172839,0,0,0.06172839506172839,24.691358024691358,0)" xlink:href="#Z"/><use transform="matrix(0.06172839506172839,0,0,0.06172839506172839,35.80246913580247,0)" xlink:href="#aa"/><use transform="matrix(0.06172839506172839,0,0,0.06172839506172839,40.67901234567901,0)" xlink:href="#ad"/><use transform="matrix(0.06172839506172839,0,0,0.06172839506172839,53.02469135802469,0)" xlink:href="#ab"/></g><g id="H"><use transform="matrix(0.06172839506172839,0,0,0.06172839506172839,0,0)" xlink:href="#aE"/><use transform="matrix(0.06172839506172839,0,0,0.06172839506172839,12.345679012345679,0)" xlink:href="#U"/><use transform="matrix(0.06172839506172839,0,0,0.06172839506172839,24.691358024691358,0)" xlink:href="#aQ"/><use transform="matrix(0.06172839506172839,0,0,0.06172839506172839,29.5679012345679,0)" xlink:href="#aa"/><use transform="matrix(0.06172839506172839,0,0,0.06172839506172839,34.44444444444444,0)" xlink:href="#aF"/><use transform="matrix(0.06172839506172839,0,0,0.06172839506172839,45.55555555555556,0)" xlink:href="#U"/><use transform="matrix(0.06172839506172839,0,0,0.06172839506172839,57.901234567901234,0)" xlink:href="#W"/><use transform="matrix(0.06172839506172839,0,0,0.06172839506172839,65.24691358024691,0)" xlink:href="#ac"/><use transform="matrix(0.06172839506172839,0,0,0.06172839506172839,77.5925925925926,0)" xlink:href="#aB"/><use transform="matrix(0.06172839506172839,0,0,0.06172839506172839,89.93827160493828,0)" xlink:href="#aQ"/><use transform="matrix(0.06172839506172839,0,0,0.06172839506172839,94.81481481481482,0)" xlink:href="#U"/><use transform="matrix(0.06172839506172839,0,0,0.06172839506172839,107.16049382716051,0)" xlink:href="#Z"/></g></defs></g></svg>