<svg xmlns="http://www.w3.org/2000/svg" xmlns:xlink="http://www.w3.org/1999/xlink" xmlns:lucid="lucid" width="1848" height="1433"><g transform="translate(1777 3672)" lucid:page-tab-id="mv_GDh85LMSB"><path d="M-5420.6-3776.5h9098.33v5099.34H-5420.6z" fill="#fff"/><path d="M-1176.38-2495.08h195" stroke="#5e5e5e" stroke-width=".5" stroke-linejoin="round" fill="none"/><path d="M-1176.38-2494.83h-.26v-.5h.26zM-981.14-2494.83h-.25v-.5h.26z" stroke="#5e5e5e" stroke-width=".05" fill="#5e5e5e"/><path d="M-1516.64-2916.83a6 6 0 0 1 6-6h168a6 6 0 0 1 6 6v68a6 6 0 0 1-6 6h-168a6 6 0 0 1-6-6z" stroke="#5e5e5e" stroke-width="3" fill="#dfe3e8"/><use xlink:href="#a" transform="matrix(1,0,0,1,-1511.6356737838346,-2917.8337488998513) translate(15.339506172839506 39.96527777777778)"/><path d="M-1700-3374.42a6 6 0 0 1 6-6h248a6 6 0 0 1 6 6v22.16a6 6 0 0 1-6 6h-248a6 6 0 0 1-6-6z" stroke="#000" stroke-opacity="0" stroke-width="3" fill="#f2f3f5"/><use xlink:href="#b" transform="matrix(1,0,0,1,-1695,-3375.4216428348564) translate(10.370370370370381 19.34027777777778)"/><use xlink:href="#c" transform="matrix(1,0,0,1,-1695,-3375.4216428348564) translate(89.32098765432099 19.34027777777778)"/><use xlink:href="#d" transform="matrix(1,0,0,1,-1695,-3375.4216428348564) translate(159.5679012345679 19.34027777777778)"/><path d="M-1260-3345.34a6 6 0 0 1 6-6h228a6 6 0 0 1 6 6v22.17a6 6 0 0 1-6 6h-228a6 6 0 0 1-6-6z" stroke="#000" stroke-opacity="0" stroke-width="3" fill="#f2f3f5"/><use xlink:href="#e" transform="matrix(1,0,0,1,-1255,-3346.3359758041343) translate(2.4691358024691397 19.34027777777778)"/><use xlink:href="#f" transform="matrix(1,0,0,1,-1255,-3346.3359758041343) translate(21.60493827160494 19.34027777777778)"/><use xlink:href="#g" transform="matrix(1,0,0,1,-1255,-3346.3359758041343) translate(104.1358024691358 19.34027777777778)"/><use xlink:href="#h" transform="matrix(1,0,0,1,-1255,-3346.3359758041343) translate(154.69135802469137 19.34027777777778)"/><use xlink:href="#i" transform="matrix(1,0,0,1,-1255,-3346.3359758041343) translate(191.7283950617284 19.34027777777778)"/><path d="M-1700-3241.28a6 6 0 0 1 6-6h248a6 6 0 0 1 6 6v51.04a6 6 0 0 1-6 6h-248a6 6 0 0 1-6-6z" stroke="#000" stroke-opacity="0" stroke-width="3" fill="#f2f3f5"/><use xlink:href="#j" transform="matrix(1,0,0,1,-1695,-3242.277810455702) translate(35 21.15277777777778)"/><use xlink:href="#k" transform="matrix(1,0,0,1,-1695,-3242.277810455702) translate(148.39506172839506 21.15277777777778)"/><use xlink:href="#l" transform="matrix(1,0,0,1,-1695,-3242.277810455702) translate(17.71604938271605 47.81944444444444)"/><use xlink:href="#g" transform="matrix(1,0,0,1,-1695,-3242.277810455702) translate(108.88888888888889 47.81944444444444)"/><use xlink:href="#h" transform="matrix(1,0,0,1,-1695,-3242.277810455702) translate(159.44444444444446 47.81944444444444)"/><use xlink:href="#i" transform="matrix(1,0,0,1,-1695,-3242.277810455702) translate(196.4814814814815 47.81944444444444)"/><path d="M-1700-3574.87a6 6 0 0 1 6-6h248a6 6 0 0 1 6 6v51.04a6 6 0 0 1-6 6h-248a6 6 0 0 1-6-6z" stroke="#000" stroke-opacity="0" stroke-width="3" fill="#f2f3f5"/><use xlink:href="#m" transform="matrix(1,0,0,1,-1695,-3575.8664871111196) translate(31.975308641975303 21.15277777777778)"/><use xlink:href="#n" transform="matrix(1,0,0,1,-1695,-3575.8664871111196) translate(154.01234567901236 21.15277777777778)"/><use xlink:href="#o" transform="matrix(1,0,0,1,-1695,-3575.8664871111196) translate(45.49382716049382 47.81944444444444)"/><use xlink:href="#p" transform="matrix(1,0,0,1,-1695,-3575.8664871111196) translate(174.93827160493828 47.81944444444444)"/><path d="M-1700-3466.5a6 6 0 0 1 6-6h248a6 6 0 0 1 6 6v20.33a6 6 0 0 1-6 6h-248a6 6 0 0 1-6-6z" stroke="#000" stroke-opacity="0" stroke-width="3" fill="#f2f3f5"/><use xlink:href="#q" transform="matrix(1,0,0,1,-1695,-3467.5147891973565) translate(22.654320987654316 19.21527777777778)"/><use xlink:href="#r" transform="matrix(1,0,0,1,-1695,-3467.5147891973565) translate(81.85185185185185 19.21527777777778)"/><use xlink:href="#s" transform="matrix(1,0,0,1,-1695,-3467.5147891973565) translate(181.66666666666669 19.21527777777778)"/><path d="M-1516.64-3112.3a6 6 0 0 1 6-6h168a6 6 0 0 1 6 6v68a6 6 0 0 1-6 6h-168a6 6 0 0 1-6-6z" stroke="#5e5e5e" stroke-width="3" fill="#dfe3e8"/><use xlink:href="#t" transform="matrix(1,0,0,1,-1511.6356737838346,-3113.285946361846) translate(5.493827160493822 39.96527777777778)"/><path d="M-1519.1-2641.9a6 6 0 0 1 6-6h168a6 6 0 0 1 6 6v68a6 6 0 0 1-6 6h-168a6 6 0 0 1-6-6z" stroke="#5e5e5e" stroke-width="3" fill="#dfe3e8"/><use xlink:href="#u" transform="matrix(1,0,0,1,-1514.110548135965,-2642.894334706527) translate(16.049382716049394 39.96527777777778)"/><path d="M-1400-3394.84a6 6 0 0 1 6-6h88a6 6 0 0 1 6 6v63a6 6 0 0 1-6 6h-88a6 6 0 0 1-6-6z" stroke="#5e5e5e" stroke-width="3" fill="#fff"/><path d="M-1439.75-3363.34h38" stroke="#5e5e5e" stroke-width=".5" stroke-linejoin="round" fill="none"/><path d="M-1439.74-3363.1h-.26v-.5h.26zM-1401.5-3363.1h-.26v-.5h.26z" stroke="#5e5e5e" stroke-width=".05" fill="#5e5e5e"/><path d="M-980-3365.75a6 6 0 0 1 6-6h88a6 6 0 0 1 6 6v63a6 6 0 0 1-6 6h-88a6 6 0 0 1-6-6z" stroke="#5e5e5e" stroke-width="3" fill="#fff"/><path d="M-1019.75-3334.25h38" stroke="#5e5e5e" stroke-width=".5" stroke-linejoin="round" fill="none"/><path d="M-1019.74-3334h-.26v-.5h.26zM-981.5-3334h-.26v-.5h.26z" stroke="#5e5e5e" stroke-width=".05" fill="#5e5e5e"/><path d="M-1400-3580.85a6 6 0 0 1 6-6h88a6 6 0 0 1 6 6v63a6 6 0 0 1-6 6h-88a6 6 0 0 1-6-6z" stroke="#5e5e5e" stroke-width="3" fill="#fff"/><path d="M-1439.75-3549.35h38" stroke="#5e5e5e" stroke-width=".5" stroke-linejoin="round" fill="none"/><path d="M-1439.74-3549.1h-.26v-.5h.26zM-1401.5-3549.1h-.26v-.5h.26z" stroke="#5e5e5e" stroke-width=".05" fill="#5e5e5e"/><path d="M-1400-3487.84a6 6 0 0 1 6-6h88a6 6 0 0 1 6 6v63a6 6 0 0 1-6 6h-88a6 6 0 0 1-6-6z" stroke="#5e5e5e" stroke-width="3" fill="#fff"/><path d="M-1439.75-3456.34h38" stroke="#5e5e5e" stroke-width=".5" stroke-linejoin="round" fill="none"/><path d="M-1439.74-3456.1h-.26v-.5h.26zM-1401.5-3456.1h-.26v-.5h.26z" stroke="#5e5e5e" stroke-width=".05" fill="#5e5e5e"/><path d="M-1400-3247.26a6 6 0 0 1 6-6h88a6 6 0 0 1 6 6v63a6 6 0 0 1-6 6h-88a6 6 0 0 1-6-6z" stroke="#5e5e5e" stroke-width="3" fill="#fff"/><path d="M-1439.75-3215.76h38" stroke="#5e5e5e" stroke-width=".5" stroke-linejoin="round" fill="none"/><path d="M-1439.74-3215.5h-.26v-.5h.26zM-1401.5-3215.5h-.26v-.5h.26z" stroke="#5e5e5e" stroke-width=".05" fill="#5e5e5e"/><path d="M-1298.25-3363.32l2.05.13 2.04.4 1.9.65 1.86.9 1.93 1.3 2.15 1.87 2.85 3.24 11.3 15.33 2.14 1.87 1.93 1.28 1.86.9 1.9.65 2.04.4 2.05.13" stroke="#5e5e5e" stroke-width=".5" stroke-linejoin="round" fill="none"/><path d="M-1298.23-3363.57l-.03.5-.24-.02v-.5zM-1260-3334.5v.5h-.15v-.5z" stroke="#5e5e5e" stroke-width=".05" fill="#5e5e5e"/><path d="M-976.64-2966.1a6 6 0 0 1 6-6h88a6 6 0 0 1 6 6v63a6 6 0 0 1-6 6h-88a6 6 0 0 1-6-6z" stroke="#5e5e5e" stroke-width="3" fill="#fff"/><path d="M-1334.88-2882.84l1.74-.08 1.85-.24 1.76-.38 1.7-.52 1.64-.67 1.67-.84 1.7-1.06 1.78-1.33 1.92-1.72 2.17-2.3 2.6-3.28 3.8-5.74 13.13-22.1 2.62-3.3 2.15-2.28 1.93-1.72 1.78-1.33 1.7-1.06 1.66-.83 1.66-.67 1.7-.52 1.74-.38 1.85-.24 1.75-.08" stroke="#5e5e5e" stroke-width=".5" stroke-linejoin="round" fill="none"/><path d="M-1334.87-2882.6l-.27.02v-.5h.25zM-1276.64-2935.28h-.22v-.5h.22z" stroke="#5e5e5e" stroke-width=".05" fill="#5e5e5e"/><path d="M-979.64-2860.36a6 6 0 0 1 6-6h88a6 6 0 0 1 6 6v63a6 6 0 0 1-6 6h-88a6 6 0 0 1-6-6z" stroke="#5e5e5e" stroke-width="3" fill="#fff"/><path d="M-1334.88-2882.82l1.64.07 1.77.23 1.68.38 1.63.5 1.6.68 1.6.84 1.67 1.07 1.75 1.35 1.9 1.77 2.17 2.38 2.64 3.5 3.97 6.4 12.44 22 2.64 3.5 2.17 2.4 1.9 1.75 1.75 1.35 1.66 1.07 1.62.84 1.6.67 1.62.52 1.68.37 1.76.23 1.65.07" stroke="#5e5e5e" stroke-width=".5" stroke-linejoin="round" fill="none"/><path d="M-1334.87-2883.07l-.02.5h-.24v-.5zM-1278.14-2829.1v.5h-.22v-.5z" stroke="#5e5e5e" stroke-width=".05" fill="#5e5e5e"/><path d="M-1276.64-3109.8a6 6 0 0 1 6-6h88a6 6 0 0 1 6 6v63a6 6 0 0 1-6 6h-88a6 6 0 0 1-6-6z" stroke="#5e5e5e" stroke-width="3" fill="#fff"/><path d="M-1334.88-3078.86l56.5.57" stroke="#5e5e5e" stroke-width=".5" stroke-linejoin="round" fill="none"/><path d="M-1334.88-3079.1v.5l-.26-.02v-.5zM-1278.14-3078.54v.5h-.25v-.5z" stroke="#5e5e5e" stroke-width=".05" fill="#5e5e5e"/><path d="M-1570-3184l.46 22 .96 13.7 1.2 10.17 1.32 8 1.4 6.52 1.44 5.4 1.45 4.6 1.45 3.94 1.45 3.42 1.44 3 1.43 2.65 1.42 2.37 1.42 2.1 1.4 1.92 1.42 1.72 1.4 1.57 1.43 1.43 1.4 1.32 1.46 1.2 1.46 1.12 1.5 1.03 1.5.94 1.56.87 1.6.8 1.65.73 1.7.66 1.8.58 1.86.52 1.95.45 2.08.38 2.2.3 2.35.2 2.52.08h.5" stroke="#5e5e5e" stroke-width=".5" stroke-linejoin="round" fill="none"/><path d="M-1569.74-3184l-.5.02v-.26h.5zM-1518.14-3078.54v.5h-.25v-.5z" stroke="#5e5e5e" stroke-width=".05" fill="#5e5e5e"/><path d="M-1570-3184l-.33 14.98-1.35 20.92-3.92 36.34-13.06 103.72-1.23 19.2-.3 13.67.22 10.6.53 8.57.75 7.15.9 6.1 1 5.26 1.08 4.63 1.14 4.1 1.2 3.68 1.23 3.32 1.26 3.02 1.3 2.75 1.34 2.53 1.35 2.35 1.38 2.18 1.4 2.04 1.46 1.9 1.48 1.8 1.52 1.7 1.57 1.6 1.62 1.5 1.67 1.45 1.72 1.37 1.8 1.3 1.87 1.25 1.95 1.18 2.05 1.13 2.16 1.07 2.3 1.02 2.4.96 2.6.9 2.77.84 2.98.76 3.23.68 3.5.6 3.85.5 4.23.35 4.7.2h2.3" stroke="#5e5e5e" stroke-width=".5" stroke-linejoin="round" fill="none"/><path d="M-1569.76-3183.98h-.5v-.26h.5zM-1518.14-2883.08v.5h-.25v-.5z" stroke="#5e5e5e" stroke-width=".05" fill="#5e5e5e"/><path d="M-1570-3184l-.44 19.96-1.56 24.54-3.3 31.22-6.5 43.42-17.2 88.15-29.4 144.1-5.44 36.35-2.65 24.93-1.2 18.9-.32 15.13.25 12.5.66 10.55.94 9.1 1.17 7.93 1.35 7.02 1.46 6.27 1.6 5.64 1.65 5.14 1.74 4.68 1.8 4.3 1.87 4 1.94 3.7 2 3.45 2.06 3.25 2.12 3.05 2.2 2.9 2.25 2.72 2.34 2.6 2.43 2.47 2.52 2.36 2.62 2.27 2.74 2.17 2.87 2.08 3.02 2 3.17 1.93 3.36 1.84 3.56 1.77 3.8 1.68 4.07 1.6 4.38 1.54 4.74 1.42 5.14 1.32 5.62 1.2 6.18 1.04 6.85.86 7.64.64 8.6.36 4.47.04" stroke="#5e5e5e" stroke-width=".5" stroke-linejoin="round" fill="none"/><path d="M-1569.76-3183.97h-.5v-.27h.5zM-1520.6-2608.14v.5h-.27v-.5z" stroke="#5e5e5e" stroke-width=".05" fill="#5e5e5e"/><path d="M-1278.14-2526.58a6 6 0 0 1 6-6h88a6 6 0 0 1 6 6v63a6 6 0 0 1-6 6h-88a6 6 0 0 1-6-6z" stroke="#5e5e5e" stroke-width="3" fill="#fff"/><path d="M-1337.36-2607.9l.24.02.48.03.48.05.46.08.47.1.47.1.46.14.47.16.48.2.48.2.5.26.5.28.5.32.54.36.55.4.58.5.6.53.65.63.68.73.73.85.78 1 .86 1.2.94 1.47 1.04 1.8 1.2 2.23 1.35 2.9 1.62 3.9 2.04 5.55 2.86 9.1 14.3 51.72 2.04 5.56 1.62 3.9 1.37 2.9 1.17 2.24 1.04 1.8.95 1.45.86 1.2.8 1 .72.86.68.73.64.63.6.54.6.47.54.43.54.36.5.3.5.3.5.24.5.2.46.2.47.16.47.14.46.12.47.1.47.06.47.06.47.03h.24" stroke="#5e5e5e" stroke-width=".5" stroke-linejoin="round" fill="none"/><path d="M-1337.35-2608.14v.5h-.26v-.5zM-1279.64-2495.33v.5h-.22v-.5z" stroke="#5e5e5e" stroke-width=".05" fill="#5e5e5e"/><path d="M-979.64-2721.45a6 6 0 0 1 6-6h88a6 6 0 0 1 6 6v63a6 6 0 0 1-6 6h-88a6 6 0 0 1-6-6z" stroke="#5e5e5e" stroke-width="3" fill="#fff"/><path d="M-1039.4-2689.95h58" stroke="#5e5e5e" stroke-width=".5" stroke-linejoin="round" fill="none"/><path d="M-1039.38-2689.7h-.26v-.5h.26zM-981.14-2689.7h-.25v-.5h.26z" stroke="#5e5e5e" stroke-width=".05" fill="#5e5e5e"/><path d="M-1279.64-2701.04a6 6 0 0 1 6-6h228a6 6 0 0 1 6 6v22.17a6 6 0 0 1-6 6h-228a6 6 0 0 1-6-6z" stroke="#000" stroke-opacity="0" stroke-width="3" fill="#f2f3f5"/><use xlink:href="#e" transform="matrix(1,0,0,1,-1274.6365280276914,-2702.035846588199) translate(88.82716049382717 19.34027777777778)"/><use xlink:href="#v" transform="matrix(1,0,0,1,-1274.6365280276914,-2702.035846588199) translate(107.96296296296296 19.34027777777778)"/><path d="M-1337.36-2607.9l.67-.02.9-.08.86-.14.85-.18.85-.24.83-.3.85-.34.86-.42.86-.5.9-.6.96-.7 1-.84 1.06-1.02 1.14-1.24 1.26-1.54 1.42-1.95 1.62-2.58 1.95-3.54 2.53-5.36 4.3-10.88 10.46-28 2.53-5.36 1.93-3.55 1.63-2.57 1.4-1.95 1.27-1.53 1.15-1.24 1.06-1 1-.86.94-.7.9-.6.9-.5.84-.4.85-.37.84-.3.85-.23.85-.18.86-.14.88-.1h.67" stroke="#5e5e5e" stroke-width=".5" stroke-linejoin="round" fill="none"/><path d="M-1337.35-2607.65h-.26v-.5h.24zM-1279.64-2689.7h-.22v-.5h.22z" stroke="#5e5e5e" stroke-width=".05" fill="#5e5e5e"/><path d="M-979.64-2614.37a6 6 0 0 1 6-6h228a6 6 0 0 1 6 6v22.17a6 6 0 0 1-6 6h-228a6 6 0 0 1-6-6z" stroke="#000" stroke-opacity="0" stroke-width="3" fill="#f2f3f5"/><use xlink:href="#e" transform="matrix(1,0,0,1,-974.6365280276915,-2615.36927969518) translate(73.9814814814815 19.34027777777778)"/><use xlink:href="#w" transform="matrix(1,0,0,1,-974.6365280276915,-2615.36927969518) translate(93.11728395061729 19.34027777777778)"/><path d="M-1039.4-2689.95l.65.02.85.08.83.12.82.17.8.2.82.28.8.32.83.38.84.44.86.53.9.6.93.74.98.86 1.06 1.04 1.13 1.26 1.23 1.55 1.4 1.95 1.58 2.53 1.88 3.42 2.38 5 3.6 8.9 12.8 34.76 2.38 5 1.88 3.44 1.6 2.52 1.37 1.95 1.23 1.56 1.14 1.26 1.05 1.04.98.86.93.73.9.62.86.53.82.45.82.38.82.3.8.28.8.23.83.16.83.1.85.1h.63" stroke="#5e5e5e" stroke-width=".5" stroke-linejoin="round" fill="none"/><path d="M-1039.37-2690.2l-.02.5h-.24v-.5zM-979.64-2603.54v.5h-.23v-.5z" stroke="#5e5e5e" stroke-width=".05" fill="#5e5e5e"/><path d="M-679.64-2634.8a6 6 0 0 1 6-6h88a6 6 0 0 1 6 6v63a6 6 0 0 1-6 6h-88a6 6 0 0 1-6-6z" stroke="#5e5e5e" stroke-width="3" fill="#fff"/><path d="M-739.4-2603.3h58" stroke="#5e5e5e" stroke-width=".5" stroke-linejoin="round" fill="none"/><path d="M-739.38-2603.3h-.26" stroke="#5e5e5e" stroke-width=".5" fill="none"/><path d="M-681.14-2603.04h-.25v-.5h.26z" stroke="#5e5e5e" stroke-width=".05" fill="#5e5e5e"/><path d="M-1278.14-2839.95a6 6 0 0 1 6-6h228a6 6 0 0 1 6 6v22.17a6 6 0 0 1-6 6h-228a6 6 0 0 1-6-6z" stroke="#000" stroke-opacity="0" stroke-width="3" fill="#f2f3f5"/><use xlink:href="#e" transform="matrix(1,0,0,1,-1273.1363077789447,-2840.947434614316) translate(49.32098765432099 19.34027777777778)"/><use xlink:href="#x" transform="matrix(1,0,0,1,-1273.1363077789447,-2840.947434614316) translate(68.45679012345678 19.34027777777778)"/><use xlink:href="#y" transform="matrix(1,0,0,1,-1273.1363077789447,-2840.947434614316) translate(109.1358024691358 19.34027777777778)"/><path d="M-1276.64-2946.6a6 6 0 0 1 6-6h228a6 6 0 0 1 6 6v22.16a6 6 0 0 1-6 6h-228a6 6 0 0 1-6-6z" stroke="#000" stroke-opacity="0" stroke-width="3" fill="#f2f3f5"/><use xlink:href="#e" transform="matrix(1,0,0,1,-1271.6356737838341,-2947.609869457663) translate(88.82716049382717 19.34027777777778)"/><use xlink:href="#v" transform="matrix(1,0,0,1,-1271.6356737838341,-2947.609869457663) translate(107.96296296296296 19.34027777777778)"/><path d="M-1036.38-2935.52l58 .9" stroke="#5e5e5e" stroke-width=".5" stroke-linejoin="round" fill="none"/><path d="M-1036.38-2935.77v.5h-.26v-.5zM-978.14-2934.86v.5h-.26v-.5z" stroke="#5e5e5e" stroke-width=".05" fill="#5e5e5e"/><path d="M-1037.9-2828.86h56.5" stroke="#5e5e5e" stroke-width=".5" stroke-linejoin="round" fill="none"/><path d="M-1037.88-2828.6h-.26v-.5h.26zM-981.14-2828.6h-.25v-.5h.26zM-1222.86-2427.6l.07.9.22.9.34.83.47.76.6.68.68.6.78.46.83.34.9.2.9.1h18.22v.5h-18.24l-.97-.1-.95-.22-.9-.38-.84-.5-.73-.64-.64-.75-.5-.85-.4-.9-.22-.96-.06-.97v-33.56h.5zm81.2-67.65l.96.23.9.37.84.5.74.65.64.75.5.83.4.9.22.96.07.97v61.53l-.06.96-.23.95-.37.9-.5.84-.65.74-.74.63-.84.52-.9.36-.96.23-.97.07h-12.94v-.5h12.92l.9-.08.9-.22.82-.34.77-.47.7-.6.58-.67.47-.78.33-.83.2-.88.08-.9v-61.5l-.06-.9-.2-.88-.35-.83-.48-.76-.6-.68-.68-.6-.77-.46-.83-.35-.88-.2-.9-.08h-33.75v-.5h33.77z" stroke="#5e5e5e" stroke-width=".05" fill="#5e5e5e"/><path d="M-1176.38-2494.83h-.26v-.5h.26z" fill="#5e5e5e"/><path d="M-1176.36-2494.8h-.3v-.55h.3zm-.25-.5v.45h.2v-.45zM-1212.72-2444l-.43.25-9.96-16.85-9.98 16.85-.43-.26 10.4-17.6z" stroke="#5e5e5e" stroke-width=".05" fill="#5e5e5e"/><use xlink:href="#z" transform="matrix(1,0,0,1,-1198.8840144949843,-2432.2513098967715) translate(0 14.222222222222223)"/><path d="M-1133.1-2433.94a6 6 0 0 1 6-6h84.46a6 6 0 0 1 6 6v9.86a6 6 0 0 1-6 6h-84.47a6 6 0 0 1-6-6z" stroke="#000" stroke-opacity="0" stroke-width="3" fill="#f2f3f5"/><use xlink:href="#A" transform="matrix(1,0,0,1,-1128.11356277111,-2434.9397344321837) translate(17.77777777777779 10.666666666666664)"/><use xlink:href="#B" transform="matrix(1,0,0,1,-1128.11356277111,-2434.9397344321837) translate(29.259259259259267 10.666666666666664)"/><path d="M-1133.1-2472.1a6 6 0 0 1 6-6h84.46a6 6 0 0 1 6 6v9.87a6 6 0 0 1-6 6h-84.47a6 6 0 0 1-6-6z" stroke="#000" stroke-opacity="0" stroke-width="3" fill="#f2f3f5"/><use xlink:href="#A" transform="matrix(1,0,0,1,-1128.11356277111,-2473.084593230106) translate(15.185185185185198 10.666666666666664)"/><use xlink:href="#C" transform="matrix(1,0,0,1,-1128.11356277111,-2473.084593230106) translate(26.66666666666667 10.666666666666664)"/><path d="M-1273.1-2532.1a6 6 0 0 1 6-6h88a6 6 0 0 1 6 6v63a6 6 0 0 1-6 6h-88a6 6 0 0 1-6-6z" stroke="#5e5e5e" stroke-width="3" fill="#fff"/><path d="M-979.64-2529.08a6 6 0 0 1 6-6h168a6 6 0 0 1 6 6v68a6 6 0 0 1-6 6h-168a6 6 0 0 1-6-6z" stroke="#5e5e5e" stroke-width="3" fill="#dfe3e8"/><use xlink:href="#t" transform="matrix(1,0,0,1,-974.6365280276914,-2530.0795352065206) translate(5.493827160493822 39.96527777777778)"/><path d="M-721.14-2506.16a6 6 0 0 1 6-6h228a6 6 0 0 1 6 6v22.16a6 6 0 0 1-6 6h-228a6 6 0 0 1-6-6z" stroke="#000" stroke-opacity="0" stroke-width="3" fill="#f2f3f5"/><use xlink:href="#e" transform="matrix(1,0,0,1,-716.1389242362129,-2507.16281865303) translate(9.876543209876544 19.34027777777778)"/><use xlink:href="#D" transform="matrix(1,0,0,1,-716.1389242362129,-2507.16281865303) translate(29.012345679012345 19.34027777777778)"/><use xlink:href="#E" transform="matrix(1,0,0,1,-716.1389242362129,-2507.16281865303) translate(98.02469135802468 19.34027777777778)"/><use xlink:href="#F" transform="matrix(1,0,0,1,-716.1389242362129,-2507.16281865303) translate(153.51851851851853 19.34027777777778)"/><path d="M-421.14-2526.58a6 6 0 0 1 6-6h88a6 6 0 0 1 6 6v63a6 6 0 0 1-6 6h-88a6 6 0 0 1-6-6z" stroke="#5e5e5e" stroke-width="3" fill="#fff"/><path d="M-480.9-2495.08h58" stroke="#5e5e5e" stroke-width=".5" stroke-linejoin="round" fill="none"/><path d="M-480.88-2495.08h-.26" stroke="#5e5e5e" stroke-width=".5" fill="none"/><path d="M-422.64-2494.83h-.26v-.5h.26z" stroke="#5e5e5e" stroke-width=".05" fill="#5e5e5e"/><path d="M-797.9-2495.08h76.5" stroke="#5e5e5e" stroke-width=".5" stroke-linejoin="round" fill="none"/><path d="M-797.88-2494.83h-.26v-.5h.26zM-721.14-2494.83h-.25v-.5h.26z" stroke="#5e5e5e" stroke-width=".05" fill="#5e5e5e"/><path d="M-721.14-2396.86a6 6 0 0 1 6-6h228a6 6 0 0 1 6 6v22.17a6 6 0 0 1-6 6h-228a6 6 0 0 1-6-6z" stroke="#000" stroke-opacity="0" stroke-width="3" fill="#f2f3f5"/><g><use xlink:href="#e" transform="matrix(1,0,0,1,-716.1389242362129,-2397.85640109885) translate(12.345679012345684 19.34027777777778)"/><use xlink:href="#G" transform="matrix(1,0,0,1,-716.1389242362129,-2397.85640109885) translate(31.481481481481485 19.34027777777778)"/><use xlink:href="#H" transform="matrix(1,0,0,1,-716.1389242362129,-2397.85640109885) translate(88.14814814814815 19.34027777777778)"/><use xlink:href="#F" transform="matrix(1,0,0,1,-716.1389242362129,-2397.85640109885) translate(151.04938271604937 19.34027777777778)"/></g><path d="M-421.14-2417.27a6 6 0 0 1 6-6h88a6 6 0 0 1 6 6v63a6 6 0 0 1-6 6h-88a6 6 0 0 1-6-6z" stroke="#5e5e5e" stroke-width="3" fill="#fff"/><path d="M-480.9-2385.77h58" stroke="#5e5e5e" stroke-width=".5" stroke-linejoin="round" fill="none"/><path d="M-480.88-2385.77h-.26" stroke="#5e5e5e" stroke-width=".5" fill="none"/><path d="M-422.64-2385.52h-.26v-.5h.26z" stroke="#5e5e5e" stroke-width=".05" fill="#5e5e5e"/><path d="M-797.9-2495.07h.68l.9.07.86.1.86.14.85.18.83.2.84.27.83.3.84.33.84.4.86.44.87.5.9.6.93.65.96.75 1 .85 1.04 1 1.1 1.14 1.2 1.33 1.27 1.57 1.38 1.9 1.53 2.3 1.72 2.86 2 3.7 2.4 5 3.25 7.62 18.26 48.46 2.43 5.03 2 3.7 1.7 2.86 1.54 2.3 1.4 1.88 1.26 1.57 1.18 1.34 1.12 1.14 1.05.98 1 .86.96.75.92.66.9.57.88.5.86.45.83.4.84.34.84.3.84.25.84.23.84.18.86.14.87.1.9.07.66.02" stroke="#5e5e5e" stroke-width=".5" stroke-linejoin="round" fill="none"/><path d="M-797.87-2495.32v.5h-.27v-.5zM-721.14-2386.02v.5h-.25v-.5z" stroke="#5e5e5e" stroke-width=".05" fill="#5e5e5e"/><path d="M-131.14-2526.58a6 6 0 0 1 6-6h88a6 6 0 0 1 6 6v63a6 6 0 0 1-6 6h-88a6 6 0 0 1-6-6z" stroke="#5e5e5e" stroke-width="3" fill="#fff"/><path d="M-270.8-2493.06h-50.1v-.5h50.1zm137.7 0H-183v-.5h49.9z" stroke="#5e5e5e" stroke-width=".05" fill="#5e5e5e"/><path d="M-320.88-2493.06h-.26v-.5h.26zM-132.64-2493.3l-17.58 10.4-.26-.44 16.85-9.97-16.85-9.97.26-.43z" stroke="#5e5e5e" stroke-width=".05" fill="#5e5e5e"/><g><use xlink:href="#I" transform="matrix(1,0,0,1,-270.79296032928687,-2503.9739841885016) translate(0 14.222222222222223)"/><use xlink:href="#J" transform="matrix(1,0,0,1,-270.79296032928687,-2503.9739841885016) translate(38.46913580246914 14.222222222222223)"/></g><path d="M-131.14-2419.05a6 6 0 0 1 6-6h88a6 6 0 0 1 6 6v63a6 6 0 0 1-6 6h-88a6 6 0 0 1-6-6z" stroke="#5e5e5e" stroke-width="3" fill="#fff"/><path d="M-270.04-2385.52h-49.35v-.5h49.36zm136.94 0h-49.14v-.5h49.14z" stroke="#5e5e5e" stroke-width=".05" fill="#5e5e5e"/><path d="M-319.38-2385.52h-.26v-.5h.26z" fill="#5e5e5e"/><path d="M-319.36-2385.5h-.3v-.55h.3zm-.25-.5v.45h.2v-.45zM-132.64-2385.77l-17.58 10.4-.26-.44 16.85-9.97-16.85-9.97.26-.43z" stroke="#5e5e5e" stroke-width=".05" fill="#5e5e5e"/><g><use xlink:href="#I" transform="matrix(1,0,0,1,-270.04158287254575,-2396.4397344321833) translate(0 14.222222222222223)"/><use xlink:href="#J" transform="matrix(1,0,0,1,-270.04158287254575,-2396.4397344321833) translate(38.46913580246914 14.222222222222223)"/></g><path d="M-366.4-2320.8l.1.9.2.9.34.82.47.77.6.67.7.6.75.46.84.35.86.2.9.08h14.35v.5h-14.34l-.97-.08-.97-.23-.9-.37-.84-.5-.76-.65-.63-.75-.5-.83-.38-.9-.23-.96-.1-.98v-33.56h.5zm81.74-65.15l.95.23.9.38.83.5.75.65.64.75.5.84.38.9.23.95.08.97v59l-.07.97-.22.94-.37.9-.5.84-.65.75-.75.64-.83.5-.9.38-.96.23-.97.08h-17.35v-.5h17.33l.9-.07.9-.22.82-.35.77-.47.7-.6.57-.67.48-.78.35-.83.2-.9.08-.9v-58.96l-.06-.9-.2-.9-.36-.82-.47-.77-.57-.7-.7-.57-.76-.48-.83-.34-.88-.2-.9-.08h-33.75v-.5h33.77z" stroke="#5e5e5e" stroke-width=".05" fill="#5e5e5e"/><path d="M-319.38-2385.52h-.26v-.5h.26z" fill="#5e5e5e"/><path d="M-319.36-2385.5h-.3v-.55h.3zm-.25-.5v.45h.2v-.45zM-356.24-2337.2l-.43.24-9.97-16.85-9.96 16.84-.43-.25 10.4-17.6z" stroke="#5e5e5e" stroke-width=".05" fill="#5e5e5e"/><g><use xlink:href="#z" transform="matrix(1,0,0,1,-346.2899947714886,-2325.4577709389214) translate(0 14.222222222222223)"/></g><path d="M-416.64-2425.3a6 6 0 0 1 6-6h88a6 6 0 0 1 6 6v63a6 6 0 0 1-6 6h-88a6 6 0 0 1-6-6z" stroke="#5e5e5e" stroke-width="3" fill="#fff0f0"/><defs><path fill="#333" d="M63-220v92h138v28H63V0H30v-248h175v28H63" id="K"/><path fill="#333" d="M24-231v-30h32v30H24zM-9 49c24 4 33-6 33-30v-209h32V24c2 40-23 58-65 49V49" id="L"/><path fill="#333" d="M27 0v-27h64v-190l-56 39v-29l58-41h29v221h61V0H27" id="M"/><path fill="#333" d="M143 4C61 4 22-44 18-125c-5-107 100-154 193-111 17 8 29 25 37 43l-32 9c-13-25-37-40-76-40-61 0-88 39-88 99 0 61 29 100 91 101 35 0 62-11 79-27v-45h-74v-28h105v86C228-13 192 4 143 4" id="N"/><path fill="#333" d="M30-248c87 1 191-15 191 75 0 78-77 80-158 76V0H30v-248zm33 125c57 0 124 11 124-50 0-59-68-47-124-48v98" id="O"/><path fill="#333" d="M115-194c55 1 70 41 70 98S169 2 115 4C84 4 66-9 55-30l1 105H24l-1-265h31l2 30c10-21 28-34 59-34zm-8 174c40 0 45-34 45-75s-6-73-45-74c-42 0-51 32-51 76 0 43 10 73 51 73" id="P"/><path fill="#333" d="M9 0v-24l116-142H16v-24h144v24L44-24h123V0H9" id="Q"/><path fill="#333" d="M54-142c48-35 137-8 131 61C196 18 31 33 14-55l32-4c7 23 22 37 52 37 35-1 51-22 54-58 4-55-73-65-99-34H22l8-134h141v27H59" id="R"/><path fill="#333" d="M205 0l-28-72H64L36 0H1l101-248h38L239 0h-34zm-38-99l-47-123c-12 45-31 82-46 123h93" id="S"/><path fill="#333" d="M134-131c28 9 52 24 51 62-1 50-34 73-85 73S17-19 16-69c0-36 21-54 49-61-75-25-45-126 34-121 46 3 78 18 79 63 0 33-17 51-44 57zm-34-11c31 1 46-15 46-44 0-28-17-43-47-42-29 0-46 13-45 42 1 28 16 44 46 44zm1 122c35 0 51-18 51-52 0-30-18-46-53-46-33 0-51 17-51 47 0 34 19 51 53 51" id="T"/><g id="a"><use transform="matrix(0.06172839506172839,0,0,0.06172839506172839,0,0)" xlink:href="#K"/><use transform="matrix(0.06172839506172839,0,0,0.06172839506172839,13.518518518518517,0)" xlink:href="#L"/><use transform="matrix(0.06172839506172839,0,0,0.06172839506172839,18.39506172839506,0)" xlink:href="#K"/><use transform="matrix(0.06172839506172839,0,0,0.06172839506172839,31.91358024691358,0)" xlink:href="#M"/><use transform="matrix(0.06172839506172839,0,0,0.06172839506172839,44.25925925925925,0)" xlink:href="#N"/><use transform="matrix(0.06172839506172839,0,0,0.06172839506172839,61.5432098765432,0)" xlink:href="#O"/><use transform="matrix(0.06172839506172839,0,0,0.06172839506172839,76.35802469135801,0)" xlink:href="#P"/><use transform="matrix(0.06172839506172839,0,0,0.06172839506172839,88.7037037037037,0)" xlink:href="#Q"/><use transform="matrix(0.06172839506172839,0,0,0.06172839506172839,99.81481481481481,0)" xlink:href="#R"/><use transform="matrix(0.06172839506172839,0,0,0.06172839506172839,112.1604938271605,0)" xlink:href="#S"/><use transform="matrix(0.06172839506172839,0,0,0.06172839506172839,126.9753086419753,0)" xlink:href="#T"/></g><path fill="#333" d="M96-169c-40 0-48 33-48 73s9 75 48 75c24 0 41-14 43-38l32 2c-6 37-31 61-74 61-59 0-76-41-82-99-10-93 101-131 147-64 4 7 5 14 7 22l-32 3c-4-21-16-35-41-35" id="U"/><path fill="#333" d="M84 4C-5 8 30-112 23-190h32v120c0 31 7 50 39 49 72-2 45-101 50-169h31l1 190h-30c-1-10 1-25-2-33-11 22-28 36-60 37" id="V"/><path fill="#333" d="M114-163C36-179 61-72 57 0H25l-1-190h30c1 12-1 29 2 39 6-27 23-49 58-41v29" id="W"/><path fill="#333" d="M108 0H70L1-190h34L89-25l56-165h34" id="X"/><path fill="#333" d="M100-194c63 0 86 42 84 106H49c0 40 14 67 53 68 26 1 43-12 49-29l28 8c-11 28-37 45-77 45C44 4 14-33 15-96c1-61 26-98 85-98zm52 81c6-60-76-77-97-28-3 7-6 17-6 28h103" id="Y"/><path fill="#333" d="M85-194c31 0 48 13 60 33l-1-100h32l1 261h-30c-2-10 0-23-3-31C134-8 116 4 85 4 32 4 16-35 15-94c0-66 23-100 70-100zm9 24c-40 0-46 34-46 75 0 40 6 74 45 74 42 0 51-32 51-76 0-42-9-74-50-73" id="Z"/><path fill="#333" d="M68-38c1 34 0 65-14 84H32c9-13 17-26 17-46H33v-38h35" id="aa"/><g id="b"><use transform="matrix(0.06172839506172839,0,0,0.06172839506172839,0,0)" xlink:href="#U"/><use transform="matrix(0.06172839506172839,0,0,0.06172839506172839,11.11111111111111,0)" xlink:href="#V"/><use transform="matrix(0.06172839506172839,0,0,0.06172839506172839,23.45679012345679,0)" xlink:href="#W"/><use transform="matrix(0.06172839506172839,0,0,0.06172839506172839,30.80246913580247,0)" xlink:href="#X"/><use transform="matrix(0.06172839506172839,0,0,0.06172839506172839,41.91358024691358,0)" xlink:href="#Y"/><use transform="matrix(0.06172839506172839,0,0,0.06172839506172839,54.25925925925926,0)" xlink:href="#Z"/><use transform="matrix(0.06172839506172839,0,0,0.06172839506172839,66.60493827160494,0)" xlink:href="#aa"/></g><path fill="#333" d="M115-194c53 0 69 39 70 98 0 66-23 100-70 100C84 3 66-7 56-30L54 0H23l1-261h32v101c10-23 28-34 59-34zm-8 174c40 0 45-34 45-75 0-40-5-75-45-74-42 0-51 32-51 76 0 43 10 73 51 73" id="ab"/><path fill="#333" d="M24-231v-30h32v30H24zM24 0v-190h32V0H24" id="ac"/><path fill="#333" d="M143 0L79-87 56-68V0H24v-261h32v163l83-92h37l-77 82L181 0h-38" id="ad"/><path fill="#333" d="M135-143c-3-34-86-38-87 0 15 53 115 12 119 90S17 21 10-45l28-5c4 36 97 45 98 0-10-56-113-15-118-90-4-57 82-63 122-42 12 7 21 19 24 35" id="ae"/><g id="c"><use transform="matrix(0.06172839506172839,0,0,0.06172839506172839,0,0)" xlink:href="#ab"/><use transform="matrix(0.06172839506172839,0,0,0.06172839506172839,12.345679012345679,0)" xlink:href="#W"/><use transform="matrix(0.06172839506172839,0,0,0.06172839506172839,19.691358024691358,0)" xlink:href="#ac"/><use transform="matrix(0.06172839506172839,0,0,0.06172839506172839,24.5679012345679,0)" xlink:href="#U"/><use transform="matrix(0.06172839506172839,0,0,0.06172839506172839,35.67901234567901,0)" xlink:href="#ad"/><use transform="matrix(0.06172839506172839,0,0,0.06172839506172839,46.79012345679013,0)" xlink:href="#ae"/><use transform="matrix(0.06172839506172839,0,0,0.06172839506172839,57.90123456790124,0)" xlink:href="#aa"/></g><path fill="#333" d="M210-169c-67 3-38 105-44 169h-31v-121c0-29-5-50-35-48C34-165 62-65 56 0H25l-1-190h30c1 10-1 24 2 32 10-44 99-50 107 0 11-21 27-35 58-36 85-2 47 119 55 194h-31v-121c0-29-5-49-35-48" id="af"/><path fill="#333" d="M100-194c62-1 85 37 85 99 1 63-27 99-86 99S16-35 15-95c0-66 28-99 85-99zM99-20c44 1 53-31 53-75 0-43-8-75-51-75s-53 32-53 75 10 74 51 75" id="ag"/><path fill="#333" d="M24 0v-261h32V0H24" id="ah"/><path fill="#333" d="M141-36C126-15 110 5 73 4 37 3 15-17 15-53c-1-64 63-63 125-63 3-35-9-54-41-54-24 1-41 7-42 31l-33-3c5-37 33-52 76-52 45 0 72 20 72 64v82c-1 20 7 32 28 27v20c-31 9-61-2-59-35zM48-53c0 20 12 33 32 33 41-3 63-29 60-74-43 2-92-5-92 41" id="ai"/><g id="d"><use transform="matrix(0.06172839506172839,0,0,0.06172839506172839,0,0)" xlink:href="#af"/><use transform="matrix(0.06172839506172839,0,0,0.06172839506172839,18.456790123456788,0)" xlink:href="#ag"/><use transform="matrix(0.06172839506172839,0,0,0.06172839506172839,30.80246913580247,0)" xlink:href="#Z"/><use transform="matrix(0.06172839506172839,0,0,0.06172839506172839,43.148148148148145,0)" xlink:href="#V"/><use transform="matrix(0.06172839506172839,0,0,0.06172839506172839,55.49382716049382,0)" xlink:href="#ah"/><use transform="matrix(0.06172839506172839,0,0,0.06172839506172839,60.37037037037037,0)" xlink:href="#ai"/><use transform="matrix(0.06172839506172839,0,0,0.06172839506172839,72.71604938271605,0)" xlink:href="#W"/></g><path fill="#333" d="M118-107v75H92v-75H18v-26h74v-75h26v75h74v26h-74" id="aj"/><use transform="matrix(0.06172839506172839,0,0,0.06172839506172839,0,0)" xlink:href="#aj" id="e"/><path fill="#333" d="M117-194c89-4 53 116 60 194h-32v-121c0-31-8-49-39-48C34-167 62-67 57 0H25l-1-190h30c1 10-1 24 2 32 11-22 29-35 61-36" id="ak"/><path fill="#333" d="M177-190C167-65 218 103 67 71c-23-6-38-20-44-43l32-5c15 47 100 32 89-28v-30C133-14 115 1 83 1 29 1 15-40 15-95c0-56 16-97 71-98 29-1 48 16 59 35 1-10 0-23 2-32h30zM94-22c36 0 50-32 50-73 0-42-14-75-50-75-39 0-46 34-46 75s6 73 46 73" id="al"/><g id="f"><use transform="matrix(0.06172839506172839,0,0,0.06172839506172839,0,0)" xlink:href="#ab"/><use transform="matrix(0.06172839506172839,0,0,0.06172839506172839,12.345679012345679,0)" xlink:href="#V"/><use transform="matrix(0.06172839506172839,0,0,0.06172839506172839,24.691358024691358,0)" xlink:href="#ac"/><use transform="matrix(0.06172839506172839,0,0,0.06172839506172839,29.5679012345679,0)" xlink:href="#ah"/><use transform="matrix(0.06172839506172839,0,0,0.06172839506172839,34.44444444444444,0)" xlink:href="#Z"/><use transform="matrix(0.06172839506172839,0,0,0.06172839506172839,46.79012345679012,0)" xlink:href="#ac"/><use transform="matrix(0.06172839506172839,0,0,0.06172839506172839,51.666666666666664,0)" xlink:href="#ak"/><use transform="matrix(0.06172839506172839,0,0,0.06172839506172839,64.01234567901234,0)" xlink:href="#al"/></g><g id="g"><use transform="matrix(0.06172839506172839,0,0,0.06172839506172839,0,0)" xlink:href="#ak"/><use transform="matrix(0.06172839506172839,0,0,0.06172839506172839,12.345679012345679,0)" xlink:href="#Y"/><use transform="matrix(0.06172839506172839,0,0,0.06172839506172839,24.691358024691358,0)" xlink:href="#ai"/><use transform="matrix(0.06172839506172839,0,0,0.06172839506172839,37.03703703703704,0)" xlink:href="#W"/></g><path fill="#333" d="M59-47c-2 24 18 29 38 22v24C64 9 27 4 27-40v-127H5v-23h24l9-43h21v43h35v23H59v120" id="am"/><path fill="#333" d="M106-169C34-169 62-67 57 0H25v-261h32l-1 103c12-21 28-36 61-36 89 0 53 116 60 194h-32v-121c2-32-8-49-39-48" id="an"/><g id="h"><use transform="matrix(0.06172839506172839,0,0,0.06172839506172839,0,0)" xlink:href="#am"/><use transform="matrix(0.06172839506172839,0,0,0.06172839506172839,6.172839506172839,0)" xlink:href="#an"/><use transform="matrix(0.06172839506172839,0,0,0.06172839506172839,18.51851851851852,0)" xlink:href="#Y"/></g><g id="i"><use transform="matrix(0.06172839506172839,0,0,0.06172839506172839,0,0)" xlink:href="#ae"/><use transform="matrix(0.06172839506172839,0,0,0.06172839506172839,11.11111111111111,0)" xlink:href="#Y"/><use transform="matrix(0.06172839506172839,0,0,0.06172839506172839,23.45679012345679,0)" xlink:href="#ai"/></g><path fill="#333" d="M179-190L93 31C79 59 56 82 12 73V49c39 6 53-20 64-50L1-190h34L92-34l54-156h33" id="ao"/><g id="j"><use transform="matrix(0.06172839506172839,0,0,0.06172839506172839,0,0)" xlink:href="#U"/><use transform="matrix(0.06172839506172839,0,0,0.06172839506172839,11.11111111111111,0)" xlink:href="#ag"/><use transform="matrix(0.06172839506172839,0,0,0.06172839506172839,23.45679012345679,0)" xlink:href="#af"/><use transform="matrix(0.06172839506172839,0,0,0.06172839506172839,41.91358024691358,0)" xlink:href="#af"/><use transform="matrix(0.06172839506172839,0,0,0.06172839506172839,60.37037037037037,0)" xlink:href="#V"/><use transform="matrix(0.06172839506172839,0,0,0.06172839506172839,72.71604938271605,0)" xlink:href="#ak"/><use transform="matrix(0.06172839506172839,0,0,0.06172839506172839,85.06172839506173,0)" xlink:href="#ac"/><use transform="matrix(0.06172839506172839,0,0,0.06172839506172839,89.93827160493828,0)" xlink:href="#am"/><use transform="matrix(0.06172839506172839,0,0,0.06172839506172839,96.11111111111111,0)" xlink:href="#ao"/></g><g id="k"><use transform="matrix(0.06172839506172839,0,0,0.06172839506172839,0,0)" xlink:href="#U"/><use transform="matrix(0.06172839506172839,0,0,0.06172839506172839,11.11111111111111,0)" xlink:href="#Y"/><use transform="matrix(0.06172839506172839,0,0,0.06172839506172839,23.45679012345679,0)" xlink:href="#ak"/><use transform="matrix(0.06172839506172839,0,0,0.06172839506172839,35.80246913580247,0)" xlink:href="#am"/><use transform="matrix(0.06172839506172839,0,0,0.06172839506172839,41.97530864197531,0)" xlink:href="#Y"/><use transform="matrix(0.06172839506172839,0,0,0.06172839506172839,54.32098765432099,0)" xlink:href="#W"/><use transform="matrix(0.06172839506172839,0,0,0.06172839506172839,60.432098765432094,0)" xlink:href="#aa"/></g><g id="l"><use transform="matrix(0.06172839506172839,0,0,0.06172839506172839,0,0)" xlink:href="#af"/><use transform="matrix(0.06172839506172839,0,0,0.06172839506172839,18.456790123456788,0)" xlink:href="#ag"/><use transform="matrix(0.06172839506172839,0,0,0.06172839506172839,30.80246913580247,0)" xlink:href="#Z"/><use transform="matrix(0.06172839506172839,0,0,0.06172839506172839,43.148148148148145,0)" xlink:href="#V"/><use transform="matrix(0.06172839506172839,0,0,0.06172839506172839,55.49382716049382,0)" xlink:href="#ah"/><use transform="matrix(0.06172839506172839,0,0,0.06172839506172839,60.37037037037037,0)" xlink:href="#ai"/><use transform="matrix(0.06172839506172839,0,0,0.06172839506172839,72.71604938271605,0)" xlink:href="#W"/><use transform="matrix(0.06172839506172839,0,0,0.06172839506172839,78.82716049382717,0)" xlink:href="#aa"/></g><g id="m"><use transform="matrix(0.06172839506172839,0,0,0.06172839506172839,0,0)" xlink:href="#ai"/><use transform="matrix(0.06172839506172839,0,0,0.06172839506172839,12.345679012345679,0)" xlink:href="#W"/><use transform="matrix(0.06172839506172839,0,0,0.06172839506172839,19.691358024691358,0)" xlink:href="#U"/><use transform="matrix(0.06172839506172839,0,0,0.06172839506172839,30.80246913580247,0)" xlink:href="#an"/><use transform="matrix(0.06172839506172839,0,0,0.06172839506172839,43.148148148148145,0)" xlink:href="#ac"/><use transform="matrix(0.06172839506172839,0,0,0.06172839506172839,48.02469135802469,0)" xlink:href="#am"/><use transform="matrix(0.06172839506172839,0,0,0.06172839506172839,54.19753086419753,0)" xlink:href="#Y"/><use transform="matrix(0.06172839506172839,0,0,0.06172839506172839,66.54320987654322,0)" xlink:href="#U"/><use transform="matrix(0.06172839506172839,0,0,0.06172839506172839,77.65432098765433,0)" xlink:href="#am"/><use transform="matrix(0.06172839506172839,0,0,0.06172839506172839,83.82716049382717,0)" xlink:href="#V"/><use transform="matrix(0.06172839506172839,0,0,0.06172839506172839,96.17283950617285,0)" xlink:href="#W"/><use transform="matrix(0.06172839506172839,0,0,0.06172839506172839,103.51851851851853,0)" xlink:href="#Y"/></g><path fill="#333" d="M101-234c-31-9-42 10-38 44h38v23H63V0H32v-167H5v-23h27c-7-52 17-82 69-68v24" id="ap"/><path fill="#333" d="M206 0h-36l-40-164L89 0H53L-1-190h32L70-26l43-164h34l41 164 42-164h31" id="aq"/><g id="n"><use transform="matrix(0.06172839506172839,0,0,0.06172839506172839,0,0)" xlink:href="#ap"/><use transform="matrix(0.06172839506172839,0,0,0.06172839506172839,6.172839506172839,0)" xlink:href="#ah"/><use transform="matrix(0.06172839506172839,0,0,0.06172839506172839,11.049382716049383,0)" xlink:href="#ag"/><use transform="matrix(0.06172839506172839,0,0,0.06172839506172839,23.395061728395063,0)" xlink:href="#aq"/><use transform="matrix(0.06172839506172839,0,0,0.06172839506172839,39.382716049382715,0)" xlink:href="#Y"/><use transform="matrix(0.06172839506172839,0,0,0.06172839506172839,51.72839506172839,0)" xlink:href="#W"/><use transform="matrix(0.06172839506172839,0,0,0.06172839506172839,57.8395061728395,0)" xlink:href="#aa"/></g><g id="o"><use transform="matrix(0.06172839506172839,0,0,0.06172839506172839,0,0)" xlink:href="#ad"/><use transform="matrix(0.06172839506172839,0,0,0.06172839506172839,11.11111111111111,0)" xlink:href="#ac"/><use transform="matrix(0.06172839506172839,0,0,0.06172839506172839,15.987654320987653,0)" xlink:href="#ak"/><use transform="matrix(0.06172839506172839,0,0,0.06172839506172839,28.333333333333332,0)" xlink:href="#Z"/><use transform="matrix(0.06172839506172839,0,0,0.06172839506172839,40.67901234567901,0)" xlink:href="#Y"/><use transform="matrix(0.06172839506172839,0,0,0.06172839506172839,53.02469135802469,0)" xlink:href="#W"/><use transform="matrix(0.06172839506172839,0,0,0.06172839506172839,60.37037037037037,0)" xlink:href="#al"/><use transform="matrix(0.06172839506172839,0,0,0.06172839506172839,72.71604938271605,0)" xlink:href="#ai"/><use transform="matrix(0.06172839506172839,0,0,0.06172839506172839,85.06172839506173,0)" xlink:href="#W"/><use transform="matrix(0.06172839506172839,0,0,0.06172839506172839,92.40740740740742,0)" xlink:href="#am"/><use transform="matrix(0.06172839506172839,0,0,0.06172839506172839,98.58024691358025,0)" xlink:href="#Y"/><use transform="matrix(0.06172839506172839,0,0,0.06172839506172839,110.92592592592594,0)" xlink:href="#ak"/></g><g id="p"><use transform="matrix(0.06172839506172839,0,0,0.06172839506172839,0,0)" xlink:href="#ah"/><use transform="matrix(0.06172839506172839,0,0,0.06172839506172839,4.876543209876543,0)" xlink:href="#ai"/><use transform="matrix(0.06172839506172839,0,0,0.06172839506172839,17.22222222222222,0)" xlink:href="#ab"/></g><g id="q"><use transform="matrix(0.06172839506172839,0,0,0.06172839506172839,0,0)" xlink:href="#aq"/><use transform="matrix(0.06172839506172839,0,0,0.06172839506172839,15.987654320987653,0)" xlink:href="#ag"/><use transform="matrix(0.06172839506172839,0,0,0.06172839506172839,28.333333333333332,0)" xlink:href="#ag"/><use transform="matrix(0.06172839506172839,0,0,0.06172839506172839,40.67901234567901,0)" xlink:href="#Z"/></g><g id="r"><use transform="matrix(0.06172839506172839,0,0,0.06172839506172839,0,0)" xlink:href="#ap"/><use transform="matrix(0.06172839506172839,0,0,0.06172839506172839,6.172839506172839,0)" xlink:href="#V"/><use transform="matrix(0.06172839506172839,0,0,0.06172839506172839,18.51851851851852,0)" xlink:href="#W"/><use transform="matrix(0.06172839506172839,0,0,0.06172839506172839,25.864197530864196,0)" xlink:href="#am"/><use transform="matrix(0.06172839506172839,0,0,0.06172839506172839,32.03703703703704,0)" xlink:href="#ak"/><use transform="matrix(0.06172839506172839,0,0,0.06172839506172839,44.382716049382715,0)" xlink:href="#ac"/><use transform="matrix(0.06172839506172839,0,0,0.06172839506172839,49.25925925925926,0)" xlink:href="#am"/><use transform="matrix(0.06172839506172839,0,0,0.06172839506172839,55.4320987654321,0)" xlink:href="#V"/><use transform="matrix(0.06172839506172839,0,0,0.06172839506172839,67.77777777777779,0)" xlink:href="#W"/><use transform="matrix(0.06172839506172839,0,0,0.06172839506172839,75.12345679012347,0)" xlink:href="#Y"/><use transform="matrix(0.06172839506172839,0,0,0.06172839506172839,87.46913580246915,0)" xlink:href="#aa"/></g><g id="s"><use transform="matrix(0.06172839506172839,0,0,0.06172839506172839,0,0)" xlink:href="#U"/><use transform="matrix(0.06172839506172839,0,0,0.06172839506172839,11.11111111111111,0)" xlink:href="#ag"/><use transform="matrix(0.06172839506172839,0,0,0.06172839506172839,23.45679012345679,0)" xlink:href="#Q"/><use transform="matrix(0.06172839506172839,0,0,0.06172839506172839,34.5679012345679,0)" xlink:href="#ao"/></g><path fill="#333" d="M160-131c35 5 61 23 61 61C221 17 115-2 30 0v-248c76 3 177-17 177 60 0 33-19 50-47 57zm-97-11c50-1 110 9 110-42 0-47-63-36-110-37v79zm0 115c55-2 124 14 124-45 0-56-70-42-124-44v89" id="ar"/><path fill="#333" d="M30 0v-248h33v221h125V0H30" id="as"/><path fill="#333" d="M30-248c118-7 216 8 213 122C240-48 200 0 122 0H30v-248zM63-27c89 8 146-16 146-99s-60-101-146-95v194" id="at"/><path fill="#333" d="M197 0v-115H63V0H30v-248h33v105h134v-105h34V0h-34" id="au"/><path fill="#333" d="M16-82v-28h88v28H16" id="av"/><path fill="#333" d="M240 0l2-218c-23 76-54 145-80 218h-23L58-218 59 0H30v-248h44l77 211c21-75 51-140 76-211h43V0h-30" id="aw"/><g id="t"><use transform="matrix(0.06172839506172839,0,0,0.06172839506172839,0,0)" xlink:href="#al"/><use transform="matrix(0.06172839506172839,0,0,0.06172839506172839,12.345679012345679,0)" xlink:href="#ar"/><use transform="matrix(0.06172839506172839,0,0,0.06172839506172839,27.160493827160494,0)" xlink:href="#as"/><use transform="matrix(0.06172839506172839,0,0,0.06172839506172839,39.50617283950617,0)" xlink:href="#N"/><use transform="matrix(0.06172839506172839,0,0,0.06172839506172839,56.79012345679012,0)" xlink:href="#ar"/><use transform="matrix(0.06172839506172839,0,0,0.06172839506172839,71.60493827160494,0)" xlink:href="#at"/><use transform="matrix(0.06172839506172839,0,0,0.06172839506172839,87.5925925925926,0)" xlink:href="#au"/><use transform="matrix(0.06172839506172839,0,0,0.06172839506172839,103.58024691358025,0)" xlink:href="#O"/><use transform="matrix(0.06172839506172839,0,0,0.06172839506172839,118.39506172839506,0)" xlink:href="#av"/><use transform="matrix(0.06172839506172839,0,0,0.06172839506172839,125.74074074074075,0)" xlink:href="#ar"/><use transform="matrix(0.06172839506172839,0,0,0.06172839506172839,140.55555555555557,0)" xlink:href="#aw"/></g><path fill="#333" d="M137-103V0h-34v-103L8-248h37l75 118 75-118h37" id="ax"/><path fill="#333" d="M209 0H11v-25l151-195H24v-28h176v25L50-27h159V0" id="ay"/><path fill="#333" d="M266 0h-40l-56-210L115 0H75L2-248h35L96-30l15-64 43-154h32l59 218 59-218h35" id="az"/><g id="u"><use transform="matrix(0.06172839506172839,0,0,0.06172839506172839,0,0)" xlink:href="#L"/><use transform="matrix(0.06172839506172839,0,0,0.06172839506172839,4.876543209876543,0)" xlink:href="#ax"/><use transform="matrix(0.06172839506172839,0,0,0.06172839506172839,19.691358024691354,0)" xlink:href="#ap"/><use transform="matrix(0.06172839506172839,0,0,0.06172839506172839,25.864197530864192,0)" xlink:href="#ay"/><use transform="matrix(0.06172839506172839,0,0,0.06172839506172839,39.38271604938271,0)" xlink:href="#az"/><use transform="matrix(0.06172839506172839,0,0,0.06172839506172839,60.30864197530863,0)" xlink:href="#aq"/><use transform="matrix(0.06172839506172839,0,0,0.06172839506172839,76.29629629629629,0)" xlink:href="#aw"/><use transform="matrix(0.06172839506172839,0,0,0.06172839506172839,94.75308641975307,0)" xlink:href="#ai"/><use transform="matrix(0.06172839506172839,0,0,0.06172839506172839,107.09876543209876,0)" xlink:href="#ar"/><use transform="matrix(0.06172839506172839,0,0,0.06172839506172839,121.91358024691357,0)" xlink:href="#L"/><use transform="matrix(0.06172839506172839,0,0,0.06172839506172839,126.79012345679011,0)" xlink:href="#ad"/></g><g id="v"><use transform="matrix(0.06172839506172839,0,0,0.06172839506172839,0,0)" xlink:href="#ah"/><use transform="matrix(0.06172839506172839,0,0,0.06172839506172839,4.876543209876543,0)" xlink:href="#ag"/><use transform="matrix(0.06172839506172839,0,0,0.06172839506172839,17.22222222222222,0)" xlink:href="#aq"/></g><g id="w"><use transform="matrix(0.06172839506172839,0,0,0.06172839506172839,0,0)" xlink:href="#ak"/><use transform="matrix(0.06172839506172839,0,0,0.06172839506172839,12.345679012345679,0)" xlink:href="#ai"/><use transform="matrix(0.06172839506172839,0,0,0.06172839506172839,24.691358024691358,0)" xlink:href="#am"/><use transform="matrix(0.06172839506172839,0,0,0.06172839506172839,30.864197530864196,0)" xlink:href="#V"/><use transform="matrix(0.06172839506172839,0,0,0.06172839506172839,43.20987654320987,0)" xlink:href="#W"/><use transform="matrix(0.06172839506172839,0,0,0.06172839506172839,50.55555555555555,0)" xlink:href="#Y"/></g><g id="x"><use transform="matrix(0.06172839506172839,0,0,0.06172839506172839,0,0)" xlink:href="#am"/><use transform="matrix(0.06172839506172839,0,0,0.06172839506172839,6.172839506172839,0)" xlink:href="#aq"/><use transform="matrix(0.06172839506172839,0,0,0.06172839506172839,22.160493827160494,0)" xlink:href="#ag"/></g><g id="y"><use transform="matrix(0.06172839506172839,0,0,0.06172839506172839,0,0)" xlink:href="#ae"/><use transform="matrix(0.06172839506172839,0,0,0.06172839506172839,11.11111111111111,0)" xlink:href="#am"/><use transform="matrix(0.06172839506172839,0,0,0.06172839506172839,17.28395061728395,0)" xlink:href="#ag"/><use transform="matrix(0.06172839506172839,0,0,0.06172839506172839,29.629629629629626,0)" xlink:href="#W"/><use transform="matrix(0.06172839506172839,0,0,0.06172839506172839,36.9753086419753,0)" xlink:href="#Y"/><use transform="matrix(0.06172839506172839,0,0,0.06172839506172839,49.32098765432098,0)" xlink:href="#ao"/><use transform="matrix(0.06172839506172839,0,0,0.06172839506172839,60.43209876543209,0)" xlink:href="#ae"/></g><path fill="#333" d="M141 0L90-78 38 0H4l68-98-65-92h35l48 74 47-74h35l-64 92 68 98h-35" id="aA"/><g id="z"><use transform="matrix(0.04938271604938272,0,0,0.04938271604938272,0,0)" xlink:href="#W"/><use transform="matrix(0.04938271604938272,0,0,0.04938271604938272,5.8765432098765435,0)" xlink:href="#Y"/><use transform="matrix(0.04938271604938272,0,0,0.04938271604938272,15.753086419753087,0)" xlink:href="#af"/><use transform="matrix(0.04938271604938272,0,0,0.04938271604938272,30.518518518518523,0)" xlink:href="#ac"/><use transform="matrix(0.04938271604938272,0,0,0.04938271604938272,34.41975308641976,0)" xlink:href="#aA"/></g><use transform="matrix(0.03703703703703702,0,0,0.03703703703703702,0,0)" xlink:href="#aj" id="A"/><g id="B"><use transform="matrix(0.03703703703703702,0,0,0.03703703703703702,0,0)" xlink:href="#U"/><use transform="matrix(0.03703703703703702,0,0,0.03703703703703702,6.666666666666663,0)" xlink:href="#V"/><use transform="matrix(0.03703703703703702,0,0,0.03703703703703702,14.074074074074067,0)" xlink:href="#W"/><use transform="matrix(0.03703703703703702,0,0,0.03703703703703702,18.481481481481474,0)" xlink:href="#X"/><use transform="matrix(0.03703703703703702,0,0,0.03703703703703702,25.148148148148138,0)" xlink:href="#Y"/><use transform="matrix(0.03703703703703702,0,0,0.03703703703703702,32.55555555555554,0)" xlink:href="#Z"/></g><path fill="#333" d="M185-189c-5-48-123-54-124 2 14 75 158 14 163 119 3 78-121 87-175 55-17-10-28-26-33-46l33-7c5 56 141 63 141-1 0-78-155-14-162-118-5-82 145-84 179-34 5 7 8 16 11 25" id="aB"/><path fill="#333" d="M190 0L58-211 59 0H30v-248h39L202-35l-2-213h31V0h-41" id="aC"/><g id="C"><use transform="matrix(0.03703703703703702,0,0,0.03703703703703702,0,0)" xlink:href="#aB"/><use transform="matrix(0.03703703703703702,0,0,0.03703703703703702,8.888888888888886,0)" xlink:href="#S"/><use transform="matrix(0.03703703703703702,0,0,0.03703703703703702,17.77777777777777,0)" xlink:href="#aC"/><use transform="matrix(0.03703703703703702,0,0,0.03703703703703702,27.37037037037036,0)" xlink:href="#S"/><use transform="matrix(0.03703703703703702,0,0,0.03703703703703702,36.259259259259245,0)" xlink:href="#S"/></g><g id="D"><use transform="matrix(0.06172839506172839,0,0,0.06172839506172839,0,0)" xlink:href="#S"/><use transform="matrix(0.06172839506172839,0,0,0.06172839506172839,14.814814814814813,0)" xlink:href="#ah"/><use transform="matrix(0.06172839506172839,0,0,0.06172839506172839,19.691358024691354,0)" xlink:href="#X"/><use transform="matrix(0.06172839506172839,0,0,0.06172839506172839,30.802469135802465,0)" xlink:href="#ai"/><use transform="matrix(0.06172839506172839,0,0,0.06172839506172839,43.148148148148145,0)" xlink:href="#W"/><use transform="matrix(0.06172839506172839,0,0,0.06172839506172839,50.49382716049382,0)" xlink:href="#ag"/></g><g id="E"><use transform="matrix(0.06172839506172839,0,0,0.06172839506172839,0,0)" xlink:href="#aB"/><use transform="matrix(0.06172839506172839,0,0,0.06172839506172839,14.814814814814813,0)" xlink:href="#ac"/><use transform="matrix(0.06172839506172839,0,0,0.06172839506172839,19.691358024691354,0)" xlink:href="#Q"/><use transform="matrix(0.06172839506172839,0,0,0.06172839506172839,30.802469135802465,0)" xlink:href="#ai"/><use transform="matrix(0.06172839506172839,0,0,0.06172839506172839,43.148148148148145,0)" xlink:href="#aa"/></g><g id="F"><use transform="matrix(0.06172839506172839,0,0,0.06172839506172839,0,0)" xlink:href="#U"/><use transform="matrix(0.06172839506172839,0,0,0.06172839506172839,11.11111111111111,0)" xlink:href="#V"/><use transform="matrix(0.06172839506172839,0,0,0.06172839506172839,23.45679012345679,0)" xlink:href="#W"/><use transform="matrix(0.06172839506172839,0,0,0.06172839506172839,30.80246913580247,0)" xlink:href="#X"/><use transform="matrix(0.06172839506172839,0,0,0.06172839506172839,41.91358024691358,0)" xlink:href="#Y"/><use transform="matrix(0.06172839506172839,0,0,0.06172839506172839,54.25925925925926,0)" xlink:href="#Z"/></g><g id="G"><use transform="matrix(0.06172839506172839,0,0,0.06172839506172839,0,0)" xlink:href="#S"/><use transform="matrix(0.06172839506172839,0,0,0.06172839506172839,14.814814814814813,0)" xlink:href="#ah"/><use transform="matrix(0.06172839506172839,0,0,0.06172839506172839,19.691358024691354,0)" xlink:href="#X"/><use transform="matrix(0.06172839506172839,0,0,0.06172839506172839,30.802469135802465,0)" xlink:href="#ai"/><use transform="matrix(0.06172839506172839,0,0,0.06172839506172839,43.148148148148145,0)" xlink:href="#W"/></g><g id="H"><use transform="matrix(0.06172839506172839,0,0,0.06172839506172839,0,0)" xlink:href="#S"/><use transform="matrix(0.06172839506172839,0,0,0.06172839506172839,14.814814814814813,0)" xlink:href="#ai"/><use transform="matrix(0.06172839506172839,0,0,0.06172839506172839,27.160493827160494,0)" xlink:href="#ah"/><use transform="matrix(0.06172839506172839,0,0,0.06172839506172839,32.03703703703704,0)" xlink:href="#am"/><use transform="matrix(0.06172839506172839,0,0,0.06172839506172839,38.20987654320988,0)" xlink:href="#ag"/><use transform="matrix(0.06172839506172839,0,0,0.06172839506172839,50.55555555555556,0)" xlink:href="#aa"/></g><g id="I"><use transform="matrix(0.04938271604938272,0,0,0.04938271604938272,0,0)" xlink:href="#X"/><use transform="matrix(0.04938271604938272,0,0,0.04938271604938272,8.88888888888889,0)" xlink:href="#ai"/><use transform="matrix(0.04938271604938272,0,0,0.04938271604938272,18.765432098765434,0)" xlink:href="#W"/><use transform="matrix(0.04938271604938272,0,0,0.04938271604938272,24.641975308641978,0)" xlink:href="#ao"/></g><g id="J"><use transform="matrix(0.04938271604938272,0,0,0.04938271604938272,0,0)" xlink:href="#ae"/><use transform="matrix(0.04938271604938272,0,0,0.04938271604938272,8.88888888888889,0)" xlink:href="#am"/><use transform="matrix(0.04938271604938272,0,0,0.04938271604938272,13.827160493827162,0)" xlink:href="#W"/><use transform="matrix(0.04938271604938272,0,0,0.04938271604938272,19.703703703703706,0)" xlink:href="#ag"/><use transform="matrix(0.04938271604938272,0,0,0.04938271604938272,29.58024691358025,0)" xlink:href="#ak"/><use transform="matrix(0.04938271604938272,0,0,0.04938271604938272,39.4567901234568,0)" xlink:href="#al"/></g></defs></g></svg>